<?xml version="1.0" encoding="utf-8"?>
<!-- Generator: Adobe Illustrator 16.0.0, SVG Export Plug-In . SVG Version: 6.00 Build 0)  -->
<!DOCTYPE svg PUBLIC "-//W3C//DTD SVG 1.1//EN" "http://www.w3.org/Graphics/SVG/1.1/DTD/svg11.dtd">
<svg version="1.1" id="Layer_1" xmlns="http://www.w3.org/2000/svg" xmlns:xlink="http://www.w3.org/1999/xlink" x="0px" y="0px"
	 width="68.306px" height="78.645px" viewBox="2.805 1.323 68.306 78.645" enable-background="new 2.805 1.323 68.306 78.645"
	 xml:space="preserve">
<g>
	<path fill="none" d="M54.193,59.97L41.195,79.968l13.529-2.756c-0.021-0.105-0.039-0.213-0.041-0.324L54.193,59.97z"/>
	<path fill="none" d="M24.653,25.271l-5.145,11.576l33.125-7.201L51.729,1.323L24.391,23.314
		C24.822,23.851,24.952,24.599,24.653,25.271z"/>
	<polygon fill="none" points="58.34,71.861 70.198,38.306 57.836,54.453 	"/>
	<polygon fill="none" points="38.727,76.792 53.02,54.806 20.314,42.988 	"/>
	<polygon fill="none" points="23.102,39.955 55.254,51.574 68.607,34.131 54.716,33.082 	"/>
	<polygon fill="none" points="71.111,30.509 55.596,3.356 56.428,29.401 	"/>
	<polygon fill="none" points="18.032,30.813 7.156,44.867 14.686,38.343 	"/>
	<polygon fill="none" points="2.805,53.666 34.925,77.757 15.711,42.482 	"/>
</g>
</svg>
