<?xml version="1.0" encoding="utf-8"?>
<!-- Generator: Adobe Illustrator 16.0.0, SVG Export Plug-In . SVG Version: 6.00 Build 0)  -->
<!DOCTYPE svg PUBLIC "-//W3C//DTD SVG 1.1//EN" "http://www.w3.org/Graphics/SVG/1.1/DTD/svg11.dtd">
<svg version="1.1" id="Layer_1" xmlns="http://www.w3.org/2000/svg" xmlns:xlink="http://www.w3.org/1999/xlink" x="0px" y="0px"
	 width="69.667px" height="68.712px" viewBox="0 2.432 69.667 68.712" enable-background="new 0 2.432 69.667 68.712"
	 xml:space="preserve">
<g>
	<path fill="none" d="M6.154,56.749c-0.073,0.247-0.193,0.468-0.345,0.656L22.78,71.145L12.617,34.899L6.154,56.749z"/>
	<polygon fill="none" points="26.449,70.15 53.487,51.742 15.689,31.781 	"/>
	<path fill="none" d="M66.677,55.268c0.016,0.01,0.026,0.021,0.041,0.031l2.949-4.423L67.42,14.941l-8.103,35.702L66.677,55.268z"/>
	<path fill="none" d="M14.719,26.972L55.86,48.7l9.24-40.713L17.885,2.432c-0.001,0.007,0,0.015,0,0.021L14.719,26.972z"/>
	<polygon fill="none" points="13.616,5.835 0,26.542 3.677,51.727 10.801,27.643 	"/>
	<polygon fill="none" points="33.664,69.836 63.495,57.755 57.208,53.807 	"/>
</g>
</svg>
