<?xml version="1.0" encoding="utf-8"?>
<!-- Generator: Adobe Illustrator 16.0.0, SVG Export Plug-In . SVG Version: 6.00 Build 0)  -->
<!DOCTYPE svg PUBLIC "-//W3C//DTD SVG 1.1//EN" "http://www.w3.org/Graphics/SVG/1.1/DTD/svg11.dtd">
<svg version="1.1" id="Layer_1" xmlns="http://www.w3.org/2000/svg" xmlns:xlink="http://www.w3.org/1999/xlink" x="0px" y="0px"
	 width="71.797px" height="70.051px" viewBox="2.453 0.275 71.797 70.051" enable-background="new 2.453 0.275 71.797 70.051"
	 xml:space="preserve">
<g>
	<polygon fill="none" points="20.684,2.77 9.333,20.312 20.686,18.243 	"/>
	<polygon fill="none" points="71.402,53.583 74.25,11.834 24.483,0.275 24.483,18.87 	"/>
	<polygon fill="none" points="72.25,63.501 71.5,57.751 33.001,70.251 	"/>
	<path fill="none" d="M2.798,50.935c-0.1,0.141-0.219,0.256-0.345,0.359l15.671,19.031l2.232-44.086L2.798,50.935z"/>
	<path fill="none" d="M8.257,24.37c-0.115,0.021-0.23,0.031-0.343,0.031c-0.153,0-0.302-0.025-0.447-0.061l-5,20.503l15.86-22.309
		L8.257,24.37z"/>
	<polygon fill="none" points="21.953,69.841 67.152,55.166 24.299,23.461 	"/>
</g>
</svg>
