<?xml version="1.0" encoding="utf-8"?>
<!-- Generator: Adobe Illustrator 16.0.0, SVG Export Plug-In . SVG Version: 6.00 Build 0)  -->
<!DOCTYPE svg PUBLIC "-//W3C//DTD SVG 1.1//EN" "http://www.w3.org/Graphics/SVG/1.1/DTD/svg11.dtd">
<svg version="1.1" id="Layer_1" xmlns="http://www.w3.org/2000/svg" xmlns:xlink="http://www.w3.org/1999/xlink" x="0px" y="0px"
	 width="55.581px" height="72.051px" viewBox="7.524 8.106 55.581 72.051" enable-background="new 7.524 8.106 55.581 72.051"
	 xml:space="preserve">
<g>
	<polygon fill="none" points="22.348,26.171 42.505,24.992 37.729,8.681 	"/>
	<path fill="none" d="M16.146,27.662c0.017-0.045,0.029-0.091,0.049-0.135v-0.001c0,0,0-0.001,0-0.002
		c0.012-0.024,0.024-0.049,0.037-0.073c0.004-0.007,0.011-0.012,0.015-0.019c0.068-0.126,0.147-0.246,0.242-0.354l14.766-16.79
		L8.584,27.165l-1.06,27.006l8.584-26.425C16.118,27.717,16.135,27.69,16.146,27.662z"/>
	<polygon fill="none" points="21.918,32.477 42.895,77.971 60.468,51.893 	"/>
	<polygon fill="none" points="54.583,75.165 60.604,58.49 46.246,79.798 	"/>
	<path fill="none" d="M9.057,61.752c-0.043,0.134-0.118,0.245-0.186,0.361l30.847,18.044l-21.494-46.62L9.057,61.752z"/>
	<path fill="none" d="M61.471,32.68l-16.644-4.018l-19.742,1.155l38.019,19.147L62.041,32.72
		C61.854,32.732,61.664,32.727,61.471,32.68z"/>
	<polygon fill="none" points="59.678,28.338 41.521,8.106 46.515,25.16 	"/>
</g>
</svg>
