<?xml version="1.0" encoding="utf-8"?>
<!-- Generator: Adobe Illustrator 16.0.0, SVG Export Plug-In . SVG Version: 6.00 Build 0)  -->
<!DOCTYPE svg PUBLIC "-//W3C//DTD SVG 1.1//EN" "http://www.w3.org/Graphics/SVG/1.1/DTD/svg11.dtd">
<svg version="1.1" id="Layer_1" xmlns="http://www.w3.org/2000/svg" xmlns:xlink="http://www.w3.org/1999/xlink" x="0px" y="0px"
	 width="76.18px" height="74.504px" viewBox="2.224 2.124 76.18 74.504" enable-background="new 2.224 2.124 76.18 74.504"
	 xml:space="preserve">
<g>
	<path fill="none" d="M65.789,29.761L57.76,2.367c-0.023-0.081-0.033-0.162-0.045-0.243L20.802,7.871l9.568,37.328L65.789,29.761z"
		/>
	<polygon fill="none" points="16.167,12.782 2.224,36.198 11.168,40.932 	"/>
	<path fill="none" d="M66.496,33.598l-34.712,15.13l15.893,27.773l21.854-20.378c-0.268-0.285-0.453-0.649-0.502-1.067
		L66.496,33.598z"/>
	<path fill="none" d="M23.358,68.176c-0.008,0.02-0.02,0.036-0.028,0.057l20.041,8.396L29.428,52.261L23.358,68.176z"/>
	<polygon fill="none" points="19.253,17.134 14.766,42.404 26.457,45.24 	"/>
	<path fill="none" d="M70.448,34.658l2.016,17.078l5.94-11.88c-0.066-0.033-0.135-0.062-0.197-0.104L70.448,34.658z"/>
	<path fill="none" d="M12.135,45.676c-0.031-0.008-0.059-0.023-0.089-0.033c-0.098-0.028-0.19-0.062-0.28-0.105
		c-0.023-0.012-0.049-0.016-0.072-0.027l-8.132-4.303l16.714,24.387l6.263-16.422L12.135,45.676z"/>
	<polygon fill="none" points="77.341,34.64 63.9,9.81 69.71,29.628 	"/>
</g>
</svg>
