<?xml version="1.0" encoding="utf-8"?>
<!-- Generator: Adobe Illustrator 16.0.0, SVG Export Plug-In . SVG Version: 6.00 Build 0)  -->
<!DOCTYPE svg PUBLIC "-//W3C//DTD SVG 1.1//EN" "http://www.w3.org/Graphics/SVG/1.1/DTD/svg11.dtd">
<svg version="1.1" id="Layer_1" xmlns="http://www.w3.org/2000/svg" xmlns:xlink="http://www.w3.org/1999/xlink" x="0px" y="0px"
	 width="70.728px" height="76.045px" viewBox="3.336 1.62 70.728 76.045" enable-background="new 3.336 1.62 70.728 76.045"
	 xml:space="preserve">
<g>
	<polygon fill="none" points="5.888,39.733 36.729,50.205 51.025,39.176 27.636,27.481 	"/>
	<polygon fill="none" points="5.888,39.733 36.729,50.205 51.025,39.176 27.636,27.481 	"/>
	<polygon fill="none" points="3.336,42.88 27.528,74.357 34.668,53.518 	"/>
	<path fill="none" d="M17.741,19.991c-0.008-0.007-0.014-0.016-0.023-0.021L4.539,36.132L24.18,25.067L17.741,19.991z"/>
	<polygon fill="none" points="54.957,36.894 74.064,35.329 58.414,1.62 31.003,24.917 	"/>
	<polygon fill="none" points="50.792,3.11 20.82,17.58 27.538,22.876 	"/>
	<polygon fill="none" points="30.876,76.311 49.302,77.665 37.515,56.934 	"/>
	<polygon fill="none" points="5.888,39.733 36.729,50.205 51.025,39.176 27.636,27.481 	"/>
	<polygon fill="none" points="39.55,52.827 52.681,75.919 73.77,39.165 55.298,40.679 	"/>
</g>
</svg>
