<?xml version="1.0" encoding="utf-8"?>
<!-- Generator: Adobe Illustrator 16.0.0, SVG Export Plug-In . SVG Version: 6.00 Build 0)  -->
<!DOCTYPE svg PUBLIC "-//W3C//DTD SVG 1.1//EN" "http://www.w3.org/Graphics/SVG/1.1/DTD/svg11.dtd">
<svg version="1.1" id="Layer_1" xmlns="http://www.w3.org/2000/svg" xmlns:xlink="http://www.w3.org/1999/xlink" x="0px" y="0px"
	 width="50.578px" height="55.129px" viewBox="0 0 50.578 55.129" enable-background="new 0 0 50.578 55.129" xml:space="preserve">
<g id="Layer_1_1_">
</g>
<g id="Layer_2">
	<g>
		<g>
			<path fill="none" d="M48.628,2.057c-2.59-2.672-7.139-2.759-9.823-0.151L25.919,14.38c-0.503,0.484-0.79,1.152-0.799,1.846
				c-0.014,0.694,0.253,1.369,0.737,1.869l1.865,1.92l-1.354,3.692l-0.524,1.438l-0.992-1.026c-0.14-0.144-0.282-0.276-0.424-0.412
				c-3.349-3.2-7.582-4.257-11.431-2.826c-2.965,1.107-5.322,3.593-6.631,6.996l-2.762,7.157l-2.641,6.841
				c-1.323,3.43-1.096,6.033-0.436,7.871c0.504,1.409,1.264,2.367,1.775,2.896c0.984,1.004,3.516,2.972,7.862,2.375
				c0.881-0.123,1.827-0.338,2.858-0.697l14.158-4.953l0.297-0.113c1.823-0.681,3.369-1.678,4.597-2.898
				c1.397-1.393,2.375-3.073,2.8-4.965c0.223-0.979,0.286-1.977,0.207-2.971c-0.204-2.621-1.428-5.216-3.559-7.413l-1.625-1.675
				l1.877-5.129l0.1,0.102c0.747,0.771,1.854,0.985,2.803,0.631c0.238-0.09,0.461-0.228,0.672-0.391
				c0.08-0.061,0.164-0.111,0.236-0.186L48.466,11.88C51.215,9.222,51.292,4.808,48.628,2.057z"/>
		</g>
	</g>
</g>
</svg>
