<?xml version="1.0" encoding="utf-8"?>
<!-- Generator: Adobe Illustrator 16.0.0, SVG Export Plug-In . SVG Version: 6.00 Build 0)  -->
<!DOCTYPE svg PUBLIC "-//W3C//DTD SVG 1.1//EN" "http://www.w3.org/Graphics/SVG/1.1/DTD/svg11.dtd">
<svg version="1.1" id="Layer_1" xmlns="http://www.w3.org/2000/svg" xmlns:xlink="http://www.w3.org/1999/xlink" x="0px" y="0px"
	 width="113.621px" height="79.193px" viewBox="0 0 113.621 79.193" enable-background="new 0 0 113.621 79.193"
	 xml:space="preserve">
<g id="Layer_1_1_">
</g>
<g id="Layer_2">
	<path fill="none" d="M111.658,12.74c-1.389-6.041-6.334-10.498-12.283-11.164C85.289,0.001,71.027-0.007,56.833,0.001
		c-14.2-0.008-28.461,0-42.553,1.574C8.333,2.241,3.395,6.698,2.004,12.74C0.023,21.345,0,30.741,0,39.599
		c0,8.858,0,18.25,1.981,26.859C3.37,72.499,8.31,76.956,14.258,77.617c14.091,1.574,28.352,1.587,42.551,1.574
		c14.198,0.013,28.457,0,42.544-1.574c5.949-0.661,10.893-5.118,12.283-11.159c1.98-8.607,1.984-18.001,1.984-26.859
		C113.621,30.74,113.64,21.346,111.658,12.74z M42.15,57.233c0-12.564,0-25.005,0-37.573c12.041,6.284,24.006,12.523,36.122,18.846
		C66.194,44.769,54.225,50.974,42.15,57.233z"/>
</g>
</svg>
