<?xml version="1.0" encoding="utf-8"?>
<!-- Generator: Adobe Illustrator 16.0.0, SVG Export Plug-In . SVG Version: 6.00 Build 0)  -->
<!DOCTYPE svg PUBLIC "-//W3C//DTD SVG 1.1//EN" "http://www.w3.org/Graphics/SVG/1.1/DTD/svg11.dtd">
<svg version="1.1" id="Layer_1" xmlns="http://www.w3.org/2000/svg" xmlns:xlink="http://www.w3.org/1999/xlink" x="0px" y="0px"
	 width="73.5px" height="83.167px" viewBox="0 0 73.5 83.167" enable-background="new 0 0 73.5 83.167" xml:space="preserve">
<path fill="none" d="M73.49,34.059c0.004-0.025,0-0.051,0.002-0.076c0-0.013,0.008-0.023,0.008-0.036
	c0-0.013-0.007-0.025-0.007-0.038c-0.001-0.097-0.013-0.193-0.035-0.288c-0.004-0.016-0.005-0.032-0.009-0.048
	c-0.01-0.029-0.02-0.057-0.03-0.085c-0.009-0.024-0.021-0.046-0.03-0.069c-0.018-0.041-0.031-0.084-0.054-0.123L54.668,0.63
	c-0.004-0.007-0.01-0.012-0.014-0.019c-0.01-0.018-0.023-0.032-0.035-0.048c-0.077-0.116-0.17-0.219-0.278-0.302
	c-0.009-0.006-0.015-0.014-0.022-0.02c-0.118-0.086-0.254-0.146-0.396-0.187c-0.019-0.005-0.032-0.011-0.05-0.015
	c-0.02-0.005-0.037-0.014-0.057-0.018c-0.127-0.023-0.254-0.02-0.381-0.005c-0.015,0.001-0.027-0.005-0.043-0.002
	c-0.015,0.002-0.023,0.011-0.037,0.014c-0.139,0.025-0.271,0.074-0.394,0.145c-0.024,0.014-0.046,0.028-0.067,0.043
	c-0.031,0.021-0.064,0.036-0.095,0.06L22.133,24.943c-0.076,0.062-0.145,0.132-0.205,0.209L0.261,53.153
	c-0.026,0.034-0.034,0.077-0.056,0.113c-0.045,0.071-0.081,0.144-0.11,0.224c-0.027,0.072-0.046,0.143-0.06,0.221
	c-0.015,0.084-0.019,0.166-0.016,0.252c0.001,0.041-0.014,0.08-0.008,0.123c0.005,0.035,0.027,0.065,0.035,0.103
	c0.018,0.082,0.046,0.158,0.082,0.235C0.162,54.5,0.2,54.569,0.249,54.637c0.023,0.03,0.031,0.069,0.057,0.1
	c0.028,0.032,0.067,0.044,0.097,0.072c0.036,0.034,0.058,0.079,0.098,0.108l37.333,28c0.018,0.014,0.037,0.018,0.055,0.028
	c0.066,0.046,0.139,0.081,0.213,0.113c0.026,0.011,0.051,0.03,0.078,0.039c0.014,0.005,0.028,0.007,0.043,0.011
	c0.114,0.035,0.233,0.057,0.354,0.059c0.002,0,0.005,0,0.007,0c0,0,0,0,0.001,0l0,0c0,0,0,0,0.001,0l0,0c0.002,0,0.003,0,0.005,0
	c0.081,0,0.163-0.008,0.244-0.024l18-3.668c0.047-0.011,0.089-0.031,0.134-0.046c0.036-0.012,0.071-0.021,0.106-0.036
	c0.122-0.054,0.237-0.119,0.336-0.206c0.008-0.007,0.013-0.018,0.021-0.023c0.092-0.084,0.164-0.182,0.229-0.289
	c0.02-0.033,0.033-0.064,0.05-0.1c0.019-0.035,0.041-0.068,0.056-0.107l15.666-44.333c0.03-0.087,0.051-0.176,0.062-0.266
	C73.491,34.065,73.49,34.062,73.49,34.059z M59.658,32.36L55.852,7.739l14.215,24.875L59.658,32.36z M58.675,34.836l11.451,0.279
	L58.363,55.701L20.939,41.374L58.675,34.836z M56.848,57.794l-18.053,21.9L18.97,43.296L56.848,57.794z M15.895,42.878
	l18.843,34.593L3.239,53.847L15.895,42.878z M57.211,61.285l-1.77,15.922l-13.647,2.781L57.211,61.285z M60.131,57.644l6.312-11.046
	l-7.418,20.989L60.131,57.644z M23.815,26.799L52.68,3.582l4.48,28.98l-41.124,7.124c-0.029,0.005-0.051,0.024-0.08,0.031
	c-0.052,0.013-0.102,0.025-0.153,0.045c-0.036,0.014-0.07,0.026-0.104,0.043c-0.016,0.007-0.033,0.006-0.048,0.015
	c-0.014,0.007-0.021,0.021-0.035,0.029c-0.04,0.023-0.073,0.053-0.109,0.08c-0.024,0.018-0.054,0.023-0.077,0.043l-5.495,4.762
	L23.815,26.799z"/>
</svg>
