<?xml version="1.0" encoding="utf-8"?>
<!-- Generator: Adobe Illustrator 16.0.0, SVG Export Plug-In . SVG Version: 6.00 Build 0)  -->
<!DOCTYPE svg PUBLIC "-//W3C//DTD SVG 1.1//EN" "http://www.w3.org/Graphics/SVG/1.1/DTD/svg11.dtd">
<svg version="1.1" id="Layer_1" xmlns="http://www.w3.org/2000/svg" xmlns:xlink="http://www.w3.org/1999/xlink" x="0px" y="0px"
	 width="65.8px" height="65.801px" viewBox="0 0 65.8 65.801" enable-background="new 0 0 65.8 65.801" xml:space="preserve">
<path fill="none" d="M46.822,17.494l3.311-9.23l-1.033-0.37l0.309-1.301l-1.115,1.012l-0.984-0.353l-0.663,1.85L17.812,35.277
	l10.006,3.229l-11.325,14.89l8.594,5.224l7.844-17.353l1.688,1.379l-0.037,0.104l0.291,0.104l4.973,4.067L46.822,17.494z
	 M28.626,38.768l1.288,0.416l-9.321,15.77l-2.925-1.777L28.626,38.768z M24.73,57.466l-1.572-0.955l8.521-14.415L24.73,57.466z
	 M33.272,40.514l0.153-0.341l-0.481-0.218l0.22-0.373l-2.583-1.527l-0.263,0.444l-1.193-0.388l0.335-0.441l-0.637-0.484
	l-0.505,0.664l-8.945-2.908l26.695-24.236L34.904,41.848L33.272,40.514z M37.121,43.66l0.284,0.104l6.989-19.495l-5.032,21.226
	L37.121,43.66z"/>
</svg>
