<?xml version="1.0" encoding="utf-8"?>
<!-- Generator: Adobe Illustrator 16.0.0, SVG Export Plug-In . SVG Version: 6.00 Build 0)  -->
<!DOCTYPE svg PUBLIC "-//W3C//DTD SVG 1.1//EN" "http://www.w3.org/Graphics/SVG/1.1/DTD/svg11.dtd">
<svg version="1.1" id="Layer_1" xmlns="http://www.w3.org/2000/svg" xmlns:xlink="http://www.w3.org/1999/xlink" x="0px" y="0px"
	 width="65.8px" height="65.801px" viewBox="0 0 65.8 65.801" enable-background="new 0 0 65.8 65.801" xml:space="preserve">
<path fill="none" d="M65.246,12.834c-2.312-1.068-5.285-2.209-9.418-3.438c-3.623-1.077-7.795-1.87-9.216-2.128
	c-0.028-0.006-0.059-0.008-0.088-0.008c-0.282,0-0.504,0.24-0.504,0.24l-1.05,4.75c0,0-0.021,0.402,0.32,0.466
	c0.217,0.038,0.492,0.082,0.793,0.128c-0.108,0.348-0.222,0.714-0.338,1.11c-0.035,0.119-0.109,0.226-0.197,0.351
	c-0.121,0.172-0.258,0.369-0.334,0.648c-0.33,1.243-0.705,2.643-1.067,3.991l-4.276-1.387c0.422-1.295,0.86-2.631,1.254-3.822
	c0.09-0.273,0.082-0.512,0.076-0.723c-0.006-0.152-0.01-0.284,0.026-0.402c0.12-0.399,0.224-0.762,0.323-1.115
	c0.277,0.127,0.531,0.238,0.734,0.325c0.051,0.022,0.102,0.032,0.146,0.032c0.234,0,0.375-0.245,0.375-0.245l1.718-4.552
	c0,0-0.065-0.393-0.368-0.521c-1.33-0.56-5.258-2.175-8.881-3.255C31.142,2.05,28.031,1.381,25.51,1.01c-0.004,0-0.009,0-0.013,0
	c-0.144,0-0.449,0.311-0.449,0.311l-1.006,4.311c0,0-0.053,0.412,0.129,0.453c0.393,0.092,0.78,0.174,1.168,0.252
	c-0.136,0.374-0.272,0.745-0.406,1.098c-0.149,0.391-0.272,0.515-0.392,0.632c-0.129,0.129-0.29,0.288-0.37,0.641
	c-0.737,3.233-1.831,7.256-2.356,9.187l-0.039,0.143c-0.411,1.511-1.086,3.896-1.758,6.24c-6.201,2.765-10.015,6.405-13.204,9.949
	c-1.951,2.168-5.061,5.627-5.455,8.871c-0.717,1.387-1.15,2.818-0.99,4.174c0.164,1.383,0.933,2.556,2.284,3.484
	c3.365,2.314,6.368,1.389,9.547,0.408c2.005-0.618,4.08-1.258,6.518-1.258c5.972,0,8.317,2.045,9.652,8.418
	c0.637,3.041,2.441,5.261,4.95,6.09c0.689,0.229,1.508,0.379,2.467,0.379c3.096,0,7.649-1.576,14.021-7.232
	c5.915-5.254,9.329-9.981,10.033-13.832c0.847-1.801,1.226-3.461,1.1-4.951c-0.174-2.065-1.293-3.776-3.309-5.098
	c0.541-1.743,1.062-3.401,1.434-4.549l0.062-0.191c0.613-1.896,1.893-5.847,3.033-8.929c0.125-0.34,0.078-0.56,0.039-0.737
	c-0.033-0.164-0.07-0.334,0.02-0.744c0.08-0.367,0.168-0.752,0.26-1.14c0.368,0.146,0.736,0.289,1.115,0.428
	c0.014,0.006,0.027,0.008,0.041,0.008c0.162,0,0.316-0.317,0.316-0.317l1.514-4.162C65.464,13.344,65.373,12.893,65.246,12.834z
	 M56.475,37.427c1.647,1.158,2.563,2.614,2.71,4.345c0.046,0.552,0.009,1.131-0.094,1.734c-1.479,3.088-4.447,6.649-8.827,10.539
	c-8.065,7.162-12.999,7.596-15.724,6.695c-2.237-0.738-3.853-2.746-4.431-5.508c-1.416-6.758-4.045-9.039-10.417-9.039
	c-2.555,0-4.783,0.688-6.748,1.293c-3.123,0.962-5.821,1.793-8.875-0.307c-1.173-0.808-1.811-1.767-1.949-2.934
	c-0.037-0.307-0.027-0.619,0.002-0.936c1.133-2.123,2.986-4.183,4.294-5.637c3.053-3.393,6.685-6.876,12.494-9.559
	c-0.206,0.713-0.392,1.354-0.545,1.883c-0.152,0.52,0.155,1.056,0.29,1.259l-0.009,0.026l0.033,0.01
	c0.013,0.02,0.025,0.035,0.031,0.043l0.103,0.095c0.065,0.041,1.048,0.657,2.722,1.445c-0.204,0.687-0.85,2.854-1.22,4.101
	c-0.052,0.172,0.273,0.535,0.386,0.64c0.751,0.69,2.454,1.366,3.507,1.711c1.197,0.391,3.188,0.886,4.549,0.886
	c0.2,0,0.388-0.011,0.556-0.033c0.176-0.025,0.539-0.146,0.593-0.312c0.332-1.043,1.05-3.508,1.244-4.178
	c1.077,0.117,1.794,0.137,1.862,0.139l0.081,0.002l0.075-0.03c0.088-0.036,0.866-0.368,1.098-1.051
	c0.255-0.752,0.625-1.876,1.042-3.153l5.04,1.383c-0.362,1.341-0.678,2.529-0.881,3.316c-0.178,0.698,0.291,1.404,0.346,1.482
	l0.115,0.108c0.057,0.034,0.669,0.41,1.635,0.901c-0.204,0.666-0.951,3.124-1.242,4.178c-0.047,0.172,0.19,0.471,0.324,0.585
	c0.999,0.87,3.346,1.703,4.741,2.077c0.882,0.239,2.257,0.528,3.278,0.528c0.215,0,0.416-0.013,0.594-0.042
	c0.15-0.025,0.621-0.152,0.672-0.326c0.371-1.245,1.016-3.412,1.22-4.1c1.833,0.256,2.992,0.278,3.069,0.279l0.07,0.001l0.067-0.024
	c0.084-0.03,0.833-0.315,1.021-0.933C55.617,40.225,56.016,38.918,56.475,37.427z M41.039,10.405
	c-1.685-0.771-4.145-1.884-6.345-2.585c-2.267-0.722-4.02-1.17-5.513-1.502c0.128-0.365,0.25-0.718,0.362-1.042
	c1.484,0.354,3.058,0.773,4.757,1.279c2.539,0.755,5.229,1.78,7.072,2.521C41.283,9.461,41.171,9.904,41.039,10.405z M37.546,22.166
	c-0.362,1.105-0.875,2.691-1.424,4.387c-0.965,2.99-2.043,6.318-2.596,7.944c-0.086,0.253-0.41,0.459-0.585,0.547
	c-0.587-0.022-4.003-0.203-7.219-1.312c-1.704-0.586-3.137-1.215-4.228-1.746l0.757-2.578c0.949-3.227,2.383-8.104,3.003-10.385
	l0.044-0.159c0.426-1.565,1.221-4.494,1.903-7.281c1.337,0.215,2.915,0.52,4.307,0.935c3.296,0.981,7.218,2.817,8.125,3.252
	c-0.467,1.426-0.943,2.887-1.344,4.119L37.546,22.166z M21.615,35.718c0.746,0.37,1.912,0.933,2.57,1.167
	c1.583,0.566,1.755,0.602,5.317,1.274c-0.125,0.421-0.248,0.827-0.348,1.149c-0.115,0.014-0.248,0.021-0.396,0.021
	c-1.168,0-2.988-0.425-4.274-0.845c-1.18-0.385-2.621-1.004-3.184-1.521c-0.012-0.012-0.027-0.026-0.043-0.045L21.615,35.718z
	 M41.593,41.758c3.337,1.379,3.517,1.446,5.148,1.838c0.68,0.165,1.963,0.331,2.791,0.43l-0.359,1.201
	c-0.022,0.006-0.045,0.013-0.062,0.015c-0.12,0.021-0.272,0.03-0.448,0.03c-0.892,0-2.158-0.256-3.049-0.498
	c-1.574-0.422-3.564-1.193-4.359-1.862C41.349,42.586,41.468,42.18,41.593,41.758z M50.195,11.477
	c1.48,0.334,3.127,0.74,4.658,1.194c2.811,0.837,5.232,1.678,7.35,2.55c-0.088,0.349-0.18,0.718-0.273,1.104
	c-0.094-0.038-0.184-0.073-0.28-0.111c-1.931-0.785-4.121-1.674-7.815-2.699c-1.285-0.354-2.717-0.642-4.053-0.873
	C49.935,12.185,50.071,11.811,50.195,11.477z M45.822,12.014l0.305-1.374c0.186,0.034,0.4,0.075,0.651,0.123
	c-0.139,0.386-0.29,0.824-0.456,1.327C46.143,12.064,45.975,12.037,45.822,12.014z M40.478,12.386
	c-0.057,0.188-0.062,0.356-0.061,0.516c-1.461-0.685-4.961-2.264-8.075-3.189c-1.327-0.396-2.778-0.697-4.074-0.92
	c0.028-0.065,0.058-0.124,0.086-0.197c0.187-0.493,0.378-1.017,0.563-1.533c1.497,0.329,3.25,0.774,5.539,1.503
	c2.205,0.701,4.668,1.824,6.373,2.604C40.723,11.549,40.61,11.947,40.478,12.386z M42.222,10.942
	c-0.143-0.063-0.299-0.135-0.465-0.21c0.137-0.507,0.254-0.965,0.348-1.359c0.229,0.094,0.43,0.178,0.613,0.254L42.222,10.942z
	 M24.886,5.444l0.245-1.048c0.274,0.044,0.56,0.095,0.841,0.144c-0.115,0.334-0.239,0.688-0.366,1.05
	C25.368,5.542,25.124,5.496,24.886,5.444z M7.395,34.748c3.025-3.363,6.622-6.815,12.34-9.485c-0.184,0.646-0.367,1.275-0.54,1.876
	C12.904,29.91,9.051,33.581,5.837,37.154c-0.812,0.9-1.825,2.027-2.76,3.27C4.209,38.287,6.078,36.21,7.395,34.748z M49.289,56.975
	c-8.065,7.162-13,7.596-15.724,6.695c-2.237-0.738-3.853-2.747-4.431-5.508c-1.416-6.76-4.044-9.039-10.417-9.039
	c-2.555,0-4.783,0.688-6.748,1.293c-3.124,0.962-5.822,1.793-8.875-0.307c-1.174-0.808-1.812-1.768-1.95-2.935
	c-0.087-0.737,0.039-1.513,0.299-2.299c0.28,1.151,1.013,2.144,2.185,2.947c3.365,2.313,6.369,1.39,9.548,0.409
	c2.006-0.618,4.08-1.258,6.517-1.258c5.972,0,8.317,2.045,9.652,8.416c0.637,3.041,2.441,5.262,4.949,6.092
	c0.69,0.228,1.509,0.377,2.468,0.377c3.095,0,7.649-1.574,14.021-7.232c2.91-2.585,5.209-5.042,6.887-7.332
	C56.08,50.18,53.266,53.441,49.289,56.975z M60.162,38.841c0.065,0.776-0.024,1.608-0.252,2.488
	c-0.27-1.878-1.341-3.449-3.193-4.685c0.219-0.713,0.447-1.451,0.675-2.188C59.076,35.621,60.014,37.092,60.162,38.841z
	 M58.382,28.697l-0.062,0.192c-0.979,3.028-2.996,9.612-3.689,11.896c-0.047,0.154-0.293,0.318-0.478,0.398
	c-0.495-0.016-3.313-0.146-6.976-1.066c-1.811-0.455-3.518-1.18-4.774-1.789c0.802-2.191,2.097-7.188,3.042-10.842
	c0.283-1.096,0.534-2.063,0.727-2.786l0.664-2.457c0.355-1.321,0.776-2.884,1.172-4.365c1.748,0.298,4.004,0.741,5.925,1.312
	c2.739,0.815,5.866,2.382,6.687,2.805C59.723,24.561,58.856,27.234,58.382,28.697z M61.455,18.359
	c-0.072,0.331-0.08,0.56-0.066,0.741c-1.331-0.663-4.073-1.959-6.62-2.717c-1.886-0.562-4.021-0.999-5.769-1.309
	c0.019-0.05,0.043-0.086,0.06-0.141c0.169-0.575,0.327-1.075,0.478-1.545c1.351,0.233,2.793,0.519,4.09,0.878
	c3.899,1.08,6.092,2.005,8.119,2.826C61.643,17.521,61.544,17.951,61.455,18.359z M63.343,16.888
	c-0.227-0.087-0.456-0.183-0.682-0.272c0.092-0.375,0.182-0.743,0.27-1.088c0.268,0.115,0.525,0.229,0.781,0.346L63.343,16.888z"/>
</svg>
