<?xml version="1.0" encoding="utf-8"?>
<!-- Generator: Adobe Illustrator 16.0.0, SVG Export Plug-In . SVG Version: 6.00 Build 0)  -->
<!DOCTYPE svg PUBLIC "-//W3C//DTD SVG 1.1//EN" "http://www.w3.org/Graphics/SVG/1.1/DTD/svg11.dtd">
<svg version="1.1" id="Layer_1" xmlns="http://www.w3.org/2000/svg" xmlns:xlink="http://www.w3.org/1999/xlink" x="0px" y="0px"
	 width="65.8px" height="65.801px" viewBox="0 0 65.8 65.801" enable-background="new 0 0 65.8 65.801" xml:space="preserve">
<path fill="none" d="M50.248,34.568c0,0,3.612-1.391,5.002-4.448c1.392-3.058,2.502-11.119-3.334-13.343
	c-5.838-2.224-6.672-2.78-6.672-2.78l1.945-9.173l-5.561-1.946l-3.336,8.896l-2.779-1.112l1.668-8.339L31.9,0.377l-3.614,8.617
	L17.724,6.771l-1.946,6.95l6.116,1.946c0,0-3.892,22.517-6.394,27.798l-5.003-1.391l-3.058,7.228l11.119,3.337l-2.224,7.504
	l5.56,2.225l2.501-8.061l3.614,0.834l-2.501,7.782l6.671,2.502l2.779-10.008c0,0,8.617,2.502,14.176,0
	c5.561-2.502,7.189-12.626,5.8-15.962C53.542,36.119,50.248,34.568,50.248,34.568z M38.849,48.467
	c-5.837,0-12.508-2.502-12.508-2.502l3.058-11.117c0,0,8.382,2.377,11.675,3.892C44.501,40.312,44.687,48.467,38.849,48.467z
	 M43.576,29.009c-1.111,0.556-3.613,1.946-12.509,0l2.501-11.119c0,0,6.672,0.834,9.451,3.058
	C45.798,23.171,44.687,28.453,43.576,29.009z"/>
</svg>
