<?xml version="1.0" encoding="utf-8"?>
<!-- Generator: Adobe Illustrator 16.0.0, SVG Export Plug-In . SVG Version: 6.00 Build 0)  -->
<!DOCTYPE svg PUBLIC "-//W3C//DTD SVG 1.1//EN" "http://www.w3.org/Graphics/SVG/1.1/DTD/svg11.dtd">
<svg version="1.1" id="Layer_1" xmlns="http://www.w3.org/2000/svg" xmlns:xlink="http://www.w3.org/1999/xlink" x="0px" y="0px"
	 width="65.8px" height="65.801px" viewBox="0 0 65.8 65.801" enable-background="new 0 0 65.8 65.801" xml:space="preserve">
<path fill="none" d="M59.628,57.214l-0.689-0.724c0.32-1.885-0.086-4.479-2.46-7.829c-5.299-7.479-8.795-12.047-10.894-14.668
	l0.931-0.754c-1.616-1.994-4.009-2.461-5.567-2.253c-2.535,0.337-5.996,1.071-9.547,2.07l1.339-8.555
	c0.299-0.191,0.539-0.371,0.691-0.522l-2.102-2.141c-0.01,0.009-0.034,0.022-0.046,0.032L13.433,3.616l0.26-0.274
	c-0.852-0.807-2.298-1.496-3.572-0.772C6.938,4.363,5.815,5.421,5.673,6.761C5.538,8.045,6.48,8.877,6.836,9.189l15.588,14.959
	c0.316,0.277,0.59,0.53,0.835,0.756c0.529,0.487,1.001,0.92,1.512,1.229l-1.985,9.928c-1.636,0.713-3.116,1.469-4.301,2.254
	c-0.357,0.238-0.617,0.584-0.753,0.982l-0.182,0.062l-0.1,0.033l-0.071,0.08c-0.725,0.814-1.749,2.694-0.428,3.967
	C20.512,46.87,27.606,53.48,35.101,59.2c3.354,2.56,7.881,4.026,12.419,4.026l0,0c5.104,0,9.248-1.875,10.81-4.896
	c0.021-0.041,0.041-0.087,0.062-0.129C58.83,57.898,59.248,57.576,59.628,57.214z M55.826,49.124c1.709,2.412,2.5,4.647,2.383,6.599
	L57.56,55.04c-3.785,3.606-14.055,4.006-20.195-0.681c-7.456-5.688-12.415-10.274-15.902-13.635l-0.122,0.125
	c-0.169-0.197-0.313-0.377-0.418-0.521c2.53-1.485,6.195-2.868,9.897-3.978l0.064,0.01l0.005-0.031
	c3.866-1.155,7.769-2.012,10.454-2.369c0.637-0.089,1.949,0.064,2.842,1.167l0.779-0.631C47.055,37.109,50.541,41.662,55.826,49.124
	z M8.868,6.983C8.864,6.98,8.861,6.978,8.858,6.975c0.313-0.286,0.998-0.799,2.493-1.653c0.094,0.053,0.205,0.131,0.278,0.198
	l1.252-1.321L30.58,22.296c-0.429,0.224-0.99,0.477-1.585,0.703l-0.067-0.011l-0.006,0.038c-0.858,0.321-1.778,0.581-2.489,0.583
	l0,0c-0.151,0-0.7-0.505-1.14-0.911c-0.261-0.24-0.553-0.51-0.841-0.76L8.868,6.983z M47.521,62.428
	c-4.367,0-8.717-1.408-11.934-3.863c-7.463-5.695-14.531-12.281-18.081-15.7c-0.774-0.746-0.233-1.845,0.161-2.439
	c0.159,0.771,0.772,1.896,2.67,3.724l0.174-0.181c3.468,3.296,8.224,7.582,15.032,12.777c3.312,2.528,8.424,4.022,13.312,4.022
	c2.877,0,5.666-0.533,7.977-1.662C55.033,61.18,51.621,62.428,47.521,62.428z"/>
</svg>
