<?xml version="1.0" encoding="utf-8"?>
<!-- Generator: Adobe Illustrator 16.0.0, SVG Export Plug-In . SVG Version: 6.00 Build 0)  -->
<!DOCTYPE svg PUBLIC "-//W3C//DTD SVG 1.1//EN" "http://www.w3.org/Graphics/SVG/1.1/DTD/svg11.dtd">
<svg version="1.1" id="Layer_1" xmlns="http://www.w3.org/2000/svg" xmlns:xlink="http://www.w3.org/1999/xlink" x="0px" y="0px"
	 width="65.8px" height="65.801px" viewBox="0 0 65.8 65.801" enable-background="new 0 0 65.8 65.801" xml:space="preserve">
<path fill="none" d="M43.074,47.626c-0.475-6.303-3.416-11.335-7.369-12.661c-0.137-0.589-0.623-1.057-1.258-1.131
	c-3.058-0.354-5.281,0.145-6.793,1.529c-0.955,0.876-1.527,1.996-1.864,3.3c-1.237-2.06-3.358-3.574-7.036-4.177
	c-0.308-0.053-0.608-0.004-0.869,0.121c-4.319-0.01-7.794,6.619-7.794,14.815c0,0.25,0.014,0.492,0.02,0.738
	c-0.013,0.353-0.02,0.704-0.02,1.06h0.066c0.449,6.688,3.384,11.784,7.414,12.815c0.219,0.184,0.492,0.305,0.797,0.336
	c0.468,0.047,0.917,0.069,1.346,0.069c2.079,0,3.707-0.553,4.949-1.678c0.736-0.664,1.278-1.486,1.683-2.434
	c0.401,1.083,0.978,2.009,1.815,2.73c1.133,0.978,2.593,1.461,4.433,1.461c0.611,0,1.266-0.054,1.963-0.16
	c0.305-0.047,0.573-0.186,0.782-0.381c4.578-1.355,7.809-7.269,7.809-14.56c0-0.301-0.016-0.596-0.025-0.894
	c0.01-0.301,0.025-0.6,0.025-0.904h-0.074V47.626z M42.337,48.529c-0.256,6.701-3.326,11.979-7.561,12.979
	c-0.208-0.065-0.434-0.092-0.664-0.057c-1.895,0.288-3.21,0.086-4.028-0.619c-1.719-1.481-1.7-5.581-1.681-9.921l0.004-1.489
	c0-1.118-0.032-2.225-0.064-3.295c-0.109-3.708-0.212-7.212,1.298-8.596c0.844-0.773,2.303-1.027,4.462-0.775
	c0.696,0.086,1.338-0.341,1.56-0.979C39.388,37.166,42.099,42.261,42.337,48.529z M17.128,35.462
	c-0.027,0.077-0.051,0.156-0.065,0.239c-0.043,0.265-0.007,0.521,0.081,0.756c-0.862,0.146-1.698,0.549-2.47,1.204
	c-0.737,0.627-1.403,1.466-1.987,2.463C13.819,37.588,15.387,35.846,17.128,35.462z M10.897,50.184
	c0.2-5.166,1.872-9.871,4.286-11.924c0.813-0.691,1.673-1.039,2.562-1.068c0.158,0.099,0.337,0.17,0.532,0.201
	c5.773,0.945,6.289,3.881,6.289,12.031v0.229c0,4.955,0.001,9.23-1.877,10.93c-0.848,0.768-2.166,1.046-4.026,0.861
	c-0.802-0.086-1.53,0.509-1.612,1.317c-0.009,0.093-0.007,0.185,0,0.273C13.537,61.619,11.08,56.588,10.897,50.184z M35.806,62.977
	c0.004-0.096,0-0.192-0.016-0.291c-0.033-0.215-0.113-0.41-0.227-0.582c2.176-0.723,4.029-2.481,5.361-4.931
	C39.768,59.982,37.976,62.064,35.806,62.977z"/>
<path fill="none" d="M50.914,4.073c-0.002,0-0.004,0-0.008,0c-0.57,0-1.08,0.248-1.439,0.638c-4.609,0.569-9.379,3.502-9.646,13.096
	c-0.15,5.438,1.001,9.46,3.426,11.953c1.834,1.885,4.318,2.84,7.387,2.84c0.39,0,0.783-0.016,1.18-0.046
	c0.368-0.028,0.719-0.076,1.068-0.124c0.267,0.132,0.562,0.208,0.869,0.208c0.153,0,0.31-0.019,0.465-0.056
	c7.455-1.815,11.768-7.07,11.533-14.054C65.446,9.512,57.968,4.098,50.914,4.073z M49.069,6.707c0.274,0.75,0.986,1.288,1.831,1.291
	c5.195,0.019,10.703,4.012,10.926,10.662c0.232,6.929-5.25,9.307-8.539,10.108c-0.967,0.235-1.582,1.151-1.479,2.114
	c-2.948,0.055-5.398-0.771-7.116-2.417c-2.261-2.167-3.333-5.719-3.188-10.558C41.726,10.445,45.267,7.6,49.069,6.707z
	 M51.753,31.77c-0.377,0.029-0.75,0.045-1.119,0.045c-2.85,0-5.145-0.875-6.825-2.603c-2.271-2.335-3.349-6.165-3.204-11.384
	c0.199-7.147,3.09-11.336,8.398-12.254c-0.026,0.111-0.041,0.226-0.049,0.343c-4.125,0.92-7.996,3.937-8.236,11.969
	c-0.15,5.069,1.004,8.82,3.432,11.147c1.816,1.742,4.355,2.646,7.395,2.646c0.168,0,0.345-0.014,0.517-0.02
	c0.013,0.023,0.022,0.049,0.038,0.07C51.981,31.741,51.873,31.76,51.753,31.77z"/>
<path fill="none" d="M17.649,26.612c1.007,3.231,3.8,5.204,7.688,5.204c4.897,0,8.881-3.953,8.881-8.812
	c0-0.688-0.073-1.32-0.203-1.908c0-0.005,0-0.011,0-0.017h-0.004c-0.5-2.23-1.93-3.731-4.236-4.45
	c2.708-0.333,4.833-1.443,4.833-5.17c0-4.859-3.984-8.813-8.881-8.813c-4.147,0-7.223,1.878-8.377,4.876
	c-1.174-3.506-4.504-6.043-8.425-6.043c-4.592,0-8.381,3.476-8.836,7.915H0.042c0,0.156,0.01,0.309,0.022,0.46
	C0.057,10,0.042,10.144,0.042,10.292c0,3.405,2.186,5.563,6.228,6.246c-3.48,0.968-5.729,3.63-5.837,7.23
	c-0.077,2.501,0.588,4.494,1.975,5.925c1.49,1.536,3.771,2.349,6.597,2.349C13.044,32.042,16.387,29.807,17.649,26.612z
	 M13.527,16.282c0.09-0.038,0.171-0.084,0.258-0.124c1.819-0.617,3.006-1.707,3.591-3.271c0.803,1.767,2.516,2.961,5.045,3.52
	c-0.667,0.333-1.291,0.732-1.858,1.193c-1.331,0.848-2.31,2.031-2.85,3.473c-0.364-0.975-0.93-1.831-1.67-2.546
	C15.391,17.596,14.542,16.839,13.527,16.282z M26.91,30.877c0.122-0.164,0.208-0.356,0.208-0.576c0-0.08-0.027-0.151-0.046-0.227
	c2.699-0.581,4.938-2.496,6.094-5.059C32.39,27.975,29.959,30.278,26.91,30.877z M33.227,21.139
	c-0.027,4.201-2.973,7.67-6.784,8.243c-0.098-0.032-0.198-0.062-0.307-0.062c-5.943,0-6.631-3.161-6.631-5.538
	c0-4.15,4.116-6.631,8.096-6.631c0.156,0,0.298-0.044,0.429-0.109C30.956,17.431,32.672,18.783,33.227,21.139z M33.822,11.459
	c0,3.456-1.951,4.287-5.286,4.477c-0.016-0.062-0.024-0.123-0.05-0.178c1.83-0.175,3.389-0.603,4.326-1.646
	c0.771-0.859,1.064-2.035,0.895-3.594C33.498,8.58,32.824,7.3,31.399,5.741C32.893,7.197,33.822,9.222,33.822,11.459z M25.727,3.432
	c0.931,0,1.822,0.163,2.655,0.452c3.33,3.059,4.277,4.257,4.544,6.718c0.144,1.324-0.084,2.301-0.698,2.986
	c-0.942,1.049-2.766,1.369-4.891,1.464c-0.123-0.056-0.256-0.089-0.399-0.089c-4.288,0-8.613-1.781-8.613-5.76
	c0-0.339-0.182-0.622-0.442-0.799C18.815,4.99,22.28,3.432,25.727,3.432z M8.924,2.264c2.326,0,4.421,0.984,5.899,2.547
	C14.758,4.836,14.69,4.85,14.629,4.89c-0.452,0.299-0.576,0.907-0.278,1.36c0.011,0.016,1.072,1.644,1.185,3.213
	c0.122,1.696-0.231,2.963-1.079,3.875c-0.887,0.953-2.365,1.547-4.465,1.807c-3.218-0.043-6.052-0.89-7.649-2.361
	c-0.924-0.852-1.409-1.893-1.484-3.085C1.167,5.549,4.662,2.264,8.924,2.264z M1.598,13.146c0.071,0.071,0.137,0.146,0.212,0.215
	c1.132,1.043,2.816,1.8,4.797,2.215c-0.06,0.058-0.1,0.129-0.143,0.2C4.459,15.451,2.599,14.697,1.598,13.146z M1.217,23.792
	c0.104-3.423,2.261-5.849,5.674-6.614c0.121,0.053,0.252,0.085,0.393,0.085c0.77,0,1.474-0.037,2.146-0.092
	c3.821,0.202,6.175,2.691,6.175,6.61c0,4.029-4.244,6.139-8.436,6.139c-0.542,0-0.981,0.438-0.981,0.98
	c0,0.007,0.004,0.013,0.004,0.02c-1.315-0.34-2.407-0.935-3.221-1.773C1.738,27.875,1.148,26.072,1.217,23.792z"/>
<path fill="none" d="M20.412,40.857c0-1.076-0.955-1.945-2.133-1.945c-1.177,0-2.132,0.869-2.132,1.945
	c0,1.072,0.955,1.942,2.132,1.942C19.457,42.801,20.412,41.93,20.412,40.857z M16.642,41.25c-0.203-0.219,0.177-1.238,0.895-1.716
	c0.516-0.343,1.662-0.099,1.865,0.118c0.202,0.22-1.117,0.172-1.572,0.594C17.378,40.669,16.845,41.467,16.642,41.25z"/>
<path fill="none" d="M33.57,43.594c0,1.073,0.955,1.942,2.131,1.942c1.178,0,2.133-0.869,2.133-1.942
	c0-1.074-0.955-1.943-2.133-1.943C34.525,41.65,33.57,42.52,33.57,43.594z M36.811,42.387c0.203,0.219-1.117,0.172-1.571,0.594
	c-0.451,0.422-0.984,1.222-1.188,1.004c-0.202-0.219,0.177-1.237,0.896-1.717C35.462,41.926,36.609,42.17,36.811,42.387z"/>
<path fill="none" d="M49.044,25.625c1.179,0,2.134-0.869,2.134-1.943c0-1.074-0.955-1.943-2.134-1.943
	c-1.176,0-2.131,0.869-2.131,1.943C46.914,24.756,47.869,25.625,49.044,25.625z M49.533,22.113c0.61,0.1,1.284,1.06,1.284,1.357
	c0,0.297-0.935-0.637-1.554-0.637c-0.618,0-1.555,0.223-1.555-0.074C47.708,22.46,48.683,21.972,49.533,22.113z"/>
<path fill="none" d="M8.597,23.127c0.591-0.187,1.415-0.678,1.504-0.395c0.09,0.283-0.691,1.043-1.544,1.164
	c-0.452,0.062-1.445-0.468-1.976-0.865c0.217,0.918,0.971,1.599,1.875,1.599c1.074,0,1.945-0.954,1.945-2.132
	c0-1.178-0.871-2.133-1.945-2.133c-1.073,0-1.943,0.955-1.943,2.133c0,0.061,0.012,0.118,0.016,0.178
	C7.061,22.816,8.166,23.262,8.597,23.127z"/>
<path fill="none" d="M9.691,11.258c1.072,0,1.942-0.954,1.942-2.133c0-1.177-0.87-2.132-1.942-2.132
	c-0.861,0-1.584,0.618-1.839,1.469C8.25,8.898,8.89,9.709,9.297,9.806c0.602,0.144,1.562,0.146,1.493,0.435
	c-0.068,0.29-1.129,0.539-1.923,0.205c-0.354-0.149-0.82-0.856-1.11-1.443C7.755,9.044,7.746,9.084,7.746,9.125
	C7.746,10.304,8.617,11.258,9.691,11.258z"/>
<path fill="none" d="M22.894,11.014c1.074,0,1.943-0.953,1.943-2.131c0-1.178-0.869-2.133-1.943-2.133
	c-1.073,0-1.944,0.955-1.944,2.133C20.95,10.061,21.82,11.014,22.894,11.014z M22.344,7.642c0.516-0.343,1.662-0.1,1.865,0.119
	c0.202,0.218-1.117,0.171-1.571,0.592c-0.453,0.424-0.986,1.222-1.188,1.005C21.248,9.139,21.626,8.119,22.344,7.642z"/>
<path fill="none" d="M24.136,23.604c-0.453,0.423-0.986,1.221-1.188,1.003c-0.203-0.218,0.176-1.237,0.894-1.716
	c0.273-0.182,0.936-0.202,1.527-0.153c-0.287-0.185-0.618-0.297-0.976-0.297c-1.073,0-1.943,0.954-1.943,2.132
	c0,1.177,0.87,2.131,1.943,2.131c1.073,0,1.944-0.954,1.944-2.131c0-0.537-0.188-1.022-0.485-1.397
	C25.255,23.257,24.407,23.351,24.136,23.604z"/>
</svg>
