<?xml version="1.0" encoding="utf-8"?>
<!-- Generator: Adobe Illustrator 16.0.0, SVG Export Plug-In . SVG Version: 6.00 Build 0)  -->
<!DOCTYPE svg PUBLIC "-//W3C//DTD SVG 1.1//EN" "http://www.w3.org/Graphics/SVG/1.1/DTD/svg11.dtd">
<svg version="1.1" id="Layer_1" xmlns="http://www.w3.org/2000/svg" xmlns:xlink="http://www.w3.org/1999/xlink" x="0px" y="0px"
	 width="65.8px" height="65.801px" viewBox="0 0 65.8 65.801" enable-background="new 0 0 65.8 65.801" xml:space="preserve">
<path fill="none" d="M64.589,11.337c-0.729-1.96-2.15-3.742-3.938-5.113l0.027-0.033c-0.769-0.61-1.595-1.095-2.466-1.463
	c-1.262-0.604-2.612-1.016-3.979-1.17c-4.73-0.544-8.085,1.374-12.677,5.567c-0.556,0.483-1.103,0.996-1.642,1.542
	c-0.975,0.937-2.002,1.95-3.119,3.063c-1.693,1.687-3.489,3.644-4.705,5.666c-3.934-1.615-7.103-2.505-8.82-2.983
	c-1.825-0.507-3.823-0.798-5.482-0.798c-0.916,0-2.165,0.093-2.913,0.534c-3.461,2.047-4.788,4.878-6.466,8.462
	c-0.85,1.814-1.177,3.575-0.993,5.265c-1.611,0.94-3.105,2.075-4.271,3.187c-2.268,3.104-3.019,7.812-2.062,12.916
	c0.46,2.453,1.264,4.815,2.333,6.963c1.946,4.287,4.879,7.964,8.238,10.111l0.663-1.037c0.758,0.207,1.591,0.316,2.524,0.316
	c2.102,0,4.385-0.529,6.398-0.997c0.722-0.167,1.422-0.329,2.086-0.462c2.275-0.455,3.858-1.756,4.704-3.868
	c1.585-3.954,0.198-9.996-1.809-14.392c4.711,0.928,9.318,1.531,9.396,1.542c0.582,0.075,1.123,0.112,1.629,0.112
	c1.584,0,2.812-0.359,3.801-0.979c2.74-0.96,3.521-3.365,4.566-6.616c0.562-1.747,0.9-3.223,1.057-4.498
	c2.108-0.836,5.279-2.31,6.734-3.428c3.785-2.908,6.454-5.699,9.307-8.784C65.048,17.431,65.716,14.368,64.589,11.337z
	 M39.298,22.69c-1.166-0.522-2.369-1.063-3.672-1.731c-0.073-0.035-0.143-0.063-0.215-0.098c0.916-1.493,2.299-3.115,3.66-4.71
	c0.456-0.533,0.913-1.068,1.359-1.604c5.078-6.111,11.66-8.861,16.324-7.147c1.588,1.261,2.847,2.866,3.502,4.628
	c0.719,1.934,1.005,4.857-1.717,7.803c-2.123,2.298-2.51,2.579-3.949,3.627c-0.551,0.402-1.256,0.914-2.26,1.687
	c-1.207,0.93-3.795,2.186-5.938,3.075C45.449,25.471,42.791,24.259,39.298,22.69z M14.763,30.611
	c0.987,1.074,2.571,3.829,4.201,6.958c-3.778-1.729-6.745-4.491-7.981-5.753C12.304,31.217,13.615,30.791,14.763,30.611z
	 M20.099,38.008c-1.647-3.21-3.321-6.189-4.492-7.634l-0.077-1.686c0.462,0.138,0.872,0.344,1.224,0.624
	c1.523,1.216,3.28,4.252,4.829,6.93c0.551,0.953,1.08,1.863,1.561,2.629C21.994,38.592,20.955,38.303,20.099,38.008z M4.314,45.943
	c-0.827-4.404-0.277-8.239,1.546-10.819c0.694-0.646,1.515-1.263,2.393-1.827c0.175,0.194,0.482,0.523,0.914,0.952
	c1.575,2.163,3.985,3.826,6.502,4.993c0.66,0.379,1.352,0.738,2.074,1.068c0.821,0.373,1.914,0.735,3.151,1.078
	c1.764,3.594,3.308,6.991,3.851,8.348c0.694,1.729,0.716,3.574,0.062,5.061c-0.464,1.055-1.229,1.826-2.154,2.176
	c-3.019,1.135-7.729,2.9-11.118,2.24C8.049,56.18,5.301,51.207,4.314,45.943z M42.166,35.805c-1.477,4.594-2.469,5.855-6.162,5.377
	c-2.196-0.285-7.435-1.08-11.729-2.047c-0.579-0.843-1.268-2.029-1.999-3.293c-1.584-2.74-3.381-5.845-5.022-7.154
	c-0.5-0.398-1.095-0.664-1.761-0.823l-0.016-0.353C15,27.533,14.495,27.6,13.974,27.696c-1.008,0.016-2.083,0.239-3.168,0.607
	c0.034-0.111,0.07-0.216,0.105-0.329c0.294-0.96,0.627-2.049,1.352-3.464c1.781-3.474,4.488-5.401,7.241-5.126
	c2.181,0.209,6.337,1.242,11.228,3.418c-0.108,0.644-0.128,1.282-0.02,1.91c0.352,2.035,1.939,3.732,4.718,5.045l0.733,0.352
	c1.84,0.885,4.332,2.077,6.643,2.463c-0.008,0.935-0.162,2.027-0.459,3.291L42.166,35.805z M42.775,31.753
	c-2.07-0.38-4.32-1.43-6.047-2.261l0.702-1.485c1.483,0.668,3.146,1.311,4.733,1.585C42.485,30.209,42.699,30.913,42.775,31.753z
	 M36.511,26.699c-1.088-0.671-1.766-1.384-2.027-2.129c0.457,0.209,0.915,0.418,1.335,0.606c2.507,1.125,4.513,2.029,5.724,3.468
	C39.807,28.223,38.003,27.412,36.511,26.699z M9.133,24.951c1.684-3.595,2.9-6.191,6.149-8.112c0.462-0.273,1.353-0.424,2.506-0.424
	c1.59,0,3.51,0.28,5.268,0.77c1.688,0.47,4.792,1.341,8.64,2.915c-0.333,0.633-0.602,1.271-0.785,1.906
	c-4.923-2.172-9.113-3.206-11.332-3.418c-3.084-0.284-6.093,1.782-8.029,5.558c-0.758,1.478-1.102,2.603-1.406,3.596
	c-0.097,0.317-0.193,0.619-0.296,0.919c-0.558,0.23-1.114,0.494-1.661,0.784C8.099,28.002,8.408,26.5,9.133,24.951z M27.287,56.707
	c-0.74,1.846-2.125,2.982-4.119,3.381c-0.671,0.135-1.379,0.299-2.109,0.469c-2.069,0.479-4.208,0.977-6.218,0.977
	c-0.76,0-1.444-0.079-2.07-0.227l0.5-0.781c-0.188-0.12-0.373-0.254-0.558-0.385c0.14,0.006,0.275,0.021,0.417,0.021
	c3.324,0,7.182-1.453,9.806-2.439c1.127-0.426,2.052-1.35,2.604-2.603c0.74-1.683,0.722-3.752-0.051-5.681
	c-0.445-1.109-1.868-4.28-3.567-7.777c1.055,0.268,2.184,0.521,3.326,0.757C27.327,46.738,28.801,52.93,27.287,56.707z
	 M44.852,36.43c-0.024,0.073-0.046,0.144-0.069,0.217l-1.672-0.537c0.771-3.227,0.618-5.378-0.223-6.958l0.025-0.255
	c-0.057-0.006-0.117-0.02-0.174-0.027c-1.219-2.003-3.603-3.08-6.593-4.423c-0.584-0.263-1.179-0.529-1.79-0.813
	c0.033-0.638,0.268-1.335,0.654-2.075c0.088,0.042,0.171,0.077,0.26,0.119c1.311,0.672,2.58,1.241,3.699,1.744
	c4.463,2.004,7.333,3.315,6.939,8.193c-0.017,0.007-0.037,0.015-0.055,0.021l0.045,0.12C45.781,33.046,45.451,34.568,44.852,36.43z
	 M62.123,19.42c-2.826,3.058-5.471,5.822-9.205,8.692c-1.312,1.01-4.131,2.34-6.174,3.173c0.047-0.858,0-1.617-0.139-2.288
	c2.212-0.912,4.932-2.231,6.213-3.219c0.998-0.767,1.696-1.275,2.244-1.674c1.488-1.085,1.891-1.376,4.066-3.731
	c2.338-2.531,3.006-5.594,1.877-8.624c-0.449-1.21-1.166-2.352-2.065-3.372l1.218-1.531c1.672,1.279,3,2.943,3.68,4.771
	C64.558,13.55,64.845,16.474,62.123,19.42z"/>
</svg>
