<?xml version="1.0" encoding="utf-8"?>
<!-- Generator: Adobe Illustrator 16.0.0, SVG Export Plug-In . SVG Version: 6.00 Build 0)  -->
<!DOCTYPE svg PUBLIC "-//W3C//DTD SVG 1.1//EN" "http://www.w3.org/Graphics/SVG/1.1/DTD/svg11.dtd">
<svg version="1.1" id="Layer_1" xmlns="http://www.w3.org/2000/svg" xmlns:xlink="http://www.w3.org/1999/xlink" x="0px" y="0px"
	 width="65.8px" height="65.801px" viewBox="0 0 65.8 65.801" enable-background="new 0 0 65.8 65.801" xml:space="preserve">
<path fill="none" d="M58.542,44.432c-0.487-1.679-1.133-3.502-2.24-4.312c-1.203-0.88-11.607-1.904-12.301-1.951
	c-4.937-0.329-12.879-1.655-16.276-2.249L12.199,4.412L11.364,1.22l-0.765,0.2c-0.003-0.001-0.005-0.003-0.007-0.004L10.024,1.24
	C9.892,1.197,9.75,1.232,9.652,1.328C9.553,1.423,9.514,1.563,9.548,1.695L8.461,1.979l8.433,32.229l-2.804-0.435l-1.34-0.481
	v-0.007l-0.026-0.002l-1.34-0.482c-0.135-0.048-0.287-0.017-0.39,0.085c-0.066,0.064-0.093,0.149-0.101,0.237l-1.131-0.098
	L9.51,35.927l-0.854-0.104c-0.017-0.062-0.036-0.13-0.052-0.189L8.132,35.76l-0.933-0.111c-0.12-0.017-0.248,0.031-0.329,0.127
	c-0.082,0.095-0.112,0.224-0.08,0.344L5.707,36.41c0.388,1.449,2.416,8.789,4.264,10.812c0.285,0.312,0.755,0.646,1.281,0.965
	L9.01,53.502l-1.062,9.396l2.981,0.336l1.013-8.965l1.985-4.707c0.014,0.006,0.033,0.015,0.045,0.021l0.61-1.37l0.153-0.344l0,0
	l0.457-1.026c-1.32-0.589-2.728-1.358-3.008-1.645c-0.608-0.666-1.476-2.845-2.262-5.194c1.078,1.303,2.19,2.623,2.879,3.377
	c0.747,0.817,3.263,1.016,3.759,1.047l0.048-0.752c-1.11-0.07-2.852-0.365-3.251-0.803c-0.944-1.033-2.699-3.15-4.053-4.805
	c-0.153-0.5-0.297-0.989-0.43-1.459l2.028,0.244l7.002,1.217l0.068,0.263l0.573-0.149l1.71,0.297l0.129-0.741L20.3,37.725
	l0.574-0.15l-1.291-4.933l3.344-4.063l-2.316-1.906l-1.965,2.388l-1.007-3.851l1.988-2.609l-2.386-1.818l-0.566,0.743l-1.012-3.865
	l1.048-1.455l-1.623-1.168l-0.082,0.113l-1.161-4.437L14.1,10.38l-0.429-0.329l-0.525-2.006l13.656,27.714
	c-0.435-0.077-0.691-0.125-0.708-0.128l-0.137,0.74c0.115,0.021,11.567,2.122,17.99,2.551c2.035,0.137,11.067,1.193,11.907,1.807
	c1.048,0.768,1.688,2.972,1.961,3.914c0.265,0.907,0.392,2.61,0.433,3.295l-7.826,2.291l-1.618-0.459l-0.288,1.017l-0.227,0.065
	c-0.162,0.047-0.271,0.195-0.271,0.363s0.111,0.314,0.273,0.36l-0.306,1.081l6.72,1.902c0.135,0.037,0.272,0.057,0.41,0.057
	c0.36,0,0.715-0.131,0.992-0.376c0.383-0.337,0.566-0.847,0.49-1.351l-0.289-1.893l-1.111,0.17
	c-0.021-0.141-0.119-0.256-0.253-0.301l-1.883-0.627l5.683-1.664c0.168-0.049,0.278-0.205,0.271-0.379
	C59.015,48.093,58.902,45.664,58.542,44.432z M17.102,35l0.002,0.009l-3.013-0.466l-0.064-0.023L17.102,35z M12.728,36.406
	l-0.196-0.594l0.087-1.002l1.287,0.459l3.406,0.53l0.384,1.47L12.728,36.406z M52.188,50.495l-0.069,0.211l-0.33-0.095
	L52.188,50.495z"/>
<rect x="8.885" y="58.892" transform="matrix(0.0315 0.9995 -0.9995 0.0315 71.986 44.2458)" fill="none" width="8.553" height="0.753"/>
<path fill="none" d="M54.55,45.09c0.252-0.304,0.164-1.222,0-1.582c-0.207-0.451-1.006-1.334-1.504-1.301
	c-0.375,0.025-0.906,0.761-1,1.126c-0.133,0.532,0.043,1.83,0.502,2.128C52.974,45.74,54.225,45.48,54.55,45.09z"/>
<path fill="none" d="M47.269,55.468c-2.279-0.008-4.641-0.022-7.014,0.196c-0.772,0.173-1.932,0.882-3.053,1.566
	c-0.634,0.389-1.232,0.756-1.621,0.932c-0.486,0.199-5.472,0.549-5.932,0.486c-1.179-0.342-3.457-1.366-3.479-1.377l-0.31,0.687
	c0.095,0.043,2.35,1.058,3.578,1.413c0.063,0.02,0.229,0.027,0.467,0.027c0.53,0,1.42-0.043,2.356-0.108l0.402,5.03l2.99-0.238
	l-0.016-0.201h0.734c0-0.414-0.076-0.889-0.156-1.391c-0.158-0.977-0.336-2.084,0.168-2.398c1.74-1.085,3.744-2.312,4.146-2.503
	c0.202-0.097,1.341-0.303,2.345-0.483c1.533-0.277,3.254-0.592,3.994-0.885c0.131,0,0.264,0,0.396,0
	c1.944,0.014,3.782,0.021,5.534-0.104l-0.053-0.752C51.021,55.486,49.199,55.479,47.269,55.468z M42.742,56.363
	c-1.432,0.26-2.255,0.412-2.535,0.546c-0.524,0.251-3.125,1.862-4.22,2.544c-0.354,0.222-0.541,0.561-0.625,0.959l-0.112-1.42
	c0.311-0.049,0.537-0.098,0.641-0.145c0.434-0.195,1.052-0.574,1.707-0.975c1.02-0.623,2.173-1.329,2.775-1.468
	c0.996-0.091,2.004-0.136,3.01-0.16C43.166,56.287,42.949,56.326,42.742,56.363z"/>
<path fill="none" d="M29.059,40.548c-0.058-0.063-0.13-0.095-0.219-0.095c-0.092,0-0.168,0.031-0.226,0.095
	c-0.059,0.063-0.089,0.171-0.089,0.321v2.096l-1.993-0.648c-0.093-0.029-0.165-0.045-0.219-0.045c-0.073,0-0.138,0.03-0.197,0.093
	c-0.058,0.061-0.087,0.133-0.087,0.215c0,0.071,0.021,0.135,0.062,0.187c0.041,0.051,0.123,0.096,0.245,0.135l2,0.658l-1.233,1.693
	c-0.083,0.111-0.124,0.199-0.124,0.264c0,0.086,0.03,0.161,0.09,0.221c0.061,0.062,0.136,0.093,0.224,0.093
	c0.102,0,0.205-0.07,0.307-0.212l1.233-1.701l1.234,1.701c0.102,0.142,0.208,0.212,0.314,0.212c0.083,0,0.155-0.03,0.216-0.093
	c0.06-0.06,0.09-0.135,0.09-0.221c0-0.063-0.039-0.151-0.117-0.264l-1.234-1.693l1.994-0.65c0.126-0.038,0.211-0.085,0.252-0.139
	c0.041-0.055,0.062-0.117,0.062-0.189c0-0.082-0.029-0.154-0.087-0.215c-0.059-0.062-0.126-0.092-0.204-0.092
	c-0.05,0-0.121,0.015-0.212,0.043l-1.994,0.649V40.87C29.147,40.719,29.118,40.611,29.059,40.548z"/>
</svg>
