<?xml version="1.0" encoding="utf-8"?>
<!-- Generator: Adobe Illustrator 16.0.0, SVG Export Plug-In . SVG Version: 6.00 Build 0)  -->
<!DOCTYPE svg PUBLIC "-//W3C//DTD SVG 1.1//EN" "http://www.w3.org/Graphics/SVG/1.1/DTD/svg11.dtd">
<svg version="1.1" id="Layer_1" xmlns="http://www.w3.org/2000/svg" xmlns:xlink="http://www.w3.org/1999/xlink" x="0px" y="0px"
	 width="65.8px" height="65.801px" viewBox="0 0 65.8 65.801" enable-background="new 0 0 65.8 65.801" xml:space="preserve">
<path fill="none" d="M44.361,4.606c-2.238-2.553-7.281-0.872-10.965,0.357L33.28,5.001l0.126,0.38h-0.4v14.532
	c-0.125-0.02-0.249-0.04-0.379-0.04c-0.065,0-0.126,0.015-0.19,0.021c0.084-1.824,0.218-3.601,0.419-5.279l-0.795-0.096
	c-0.115,0.962-0.208,1.956-0.284,2.972V6.382h-0.4l0.239-0.321c-3.128-2.328-7.749-3.575-10.062-1.632
	c-3.117,2.62-2.648,10.685-1.21,14.751l-0.664,0.305c1.95,4.25,6.008,5.305,8.854,5.488c0.012,1.807-0.084,4.163-0.193,6.812
	c-0.388,9.433-0.919,22.351,2.344,30.883l1.049,2.742l2.314-3.539l-0.608-0.398c-0.052-0.139-0.095-0.289-0.145-0.431
	c5.219-6.944,4.332-28.333,3.505-36.438c3.089-0.519,7.406-1.987,9.303-6.12l-0.654-0.301C46.897,14.304,47.292,7.947,44.361,4.606z
	 M30.978,20.543c-0.401,0.373-0.692,0.872-0.8,1.446c-1.893,0.093-6.107-0.134-7.769-3.757l-0.677,0.311
	c-1.162-3.77-1.761-9.808,0.229-11.636c1.687-1.554,6.187-0.705,9.017,1.665V20.543z M43.759,5.134
	c0.611,0.695,1.057,1.541,1.377,2.468c-0.055-0.094-0.102-0.192-0.161-0.283c-1.933-2.944-6.892-1.874-11.167-0.488V5.67
	C37.262,4.521,41.9,3.016,43.759,5.134z M33.808,7.672c3.77-1.239,8.807-2.492,10.499,0.086c1.688,2.573,0.858,6.829-0.204,9.807
	l-0.725-0.332c-1.592,3.471-5.979,4.354-8.35,4.575c-0.183-0.696-0.627-1.272-1.221-1.608V7.672z M22.07,5.042
	c1.949-1.636,6.092-0.476,8.908,1.548v0.963c-3.153-2.317-7.682-2.961-9.559-1.235c-0.315,0.289-0.57,0.663-0.782,1.09
	C20.963,6.416,21.425,5.584,22.07,5.042z M33.054,59.993c-0.45-3.386-1.849-14.841-1.807-25.773c0.03-0.788,0.062-1.563,0.092-2.312
	c0.058-1.419,0.112-2.752,0.149-3.979l0.072-0.005c0.258,11.842,1.896,23.211,1.92,23.368l0.792-0.115
	c-0.022-0.157-1.659-11.515-1.913-23.311l3.896-0.285C36.925,36.668,37.184,53.499,33.054,59.993z"/>
</svg>
