<?xml version="1.0" encoding="utf-8"?>
<!-- Generator: Adobe Illustrator 16.0.0, SVG Export Plug-In . SVG Version: 6.00 Build 0)  -->
<!DOCTYPE svg PUBLIC "-//W3C//DTD SVG 1.1//EN" "http://www.w3.org/Graphics/SVG/1.1/DTD/svg11.dtd">
<svg version="1.1" id="Layer_1" xmlns="http://www.w3.org/2000/svg" xmlns:xlink="http://www.w3.org/1999/xlink" x="0px" y="0px"
	 width="65.8px" height="65.801px" viewBox="0 0 65.8 65.801" enable-background="new 0 0 65.8 65.801" xml:space="preserve">
<path fill="none" d="M13.187,41.979H7.86v-5.274c-0.437,0.021-0.827,0.051-1.169,0.093v5.184H1.735
	c-0.019,0.312-0.031,0.666-0.04,1.06h4.996v5.466c0.546-0.017,0.934-0.049,1.205-0.085V43.04h5.272
	C13.176,42.775,13.183,42.43,13.187,41.979z"/>
<path fill="none" d="M58.777,10.805V5.529c-0.436,0.02-0.826,0.051-1.168,0.093v5.183h-4.956c-0.019,0.313-0.032,0.666-0.041,1.059
	h4.997v5.467c0.546-0.017,0.934-0.05,1.204-0.085v-5.382h5.272c0.008-0.262,0.015-0.607,0.019-1.059H58.777z"/>
<path fill="none" d="M10.777,31.648c0.113,0.042,0.231,0.062,0.349,0.062c0.17,0,0.34-0.044,0.492-0.13
	c2.519-1.423,6.157-5.049,6.311-5.202c0.253-0.253,0.352-0.621,0.259-0.966c-0.093-0.346-0.362-0.615-0.708-0.707l-2.042-0.546
	C17.756,14.798,22.13,9.416,29.486,7.51c4.169-0.667,9.239-0.465,15.395,0.591l-0.354,0.945l1.873,0.703l1.544-4.117L46.068,4.93
	l-0.477,1.269C33.998,4.16,25.933,5.02,20.297,8.901c-4.17,2.873-6.947,7.522-8.301,13.787l-1.859-0.987
	c-0.319-0.17-0.704-0.154-1.007,0.04c-0.304,0.194-0.48,0.536-0.46,0.896c0.011,0.201,0.28,4.968,1.515,8.411
	C10.284,31.326,10.501,31.546,10.777,31.648z M21.432,10.549c0.707-0.486,1.461-0.918,2.259-1.3
	c-4.386,2.9-7.298,7.751-9.026,14.705l-0.574-0.153l-0.263-0.14C15.038,17.547,17.521,13.243,21.432,10.549z M13.254,25.62
	c0.067,0.036,0.137,0.063,0.21,0.083l1.78,0.476c-0.964,0.895-2.328,2.102-3.556,2.979c-0.452-1.668-0.716-3.509-0.862-4.826
	L13.254,25.62z"/>
<path fill="none" d="M59.012,29.904c-0.474-1.61-0.921-3.131-1.683-5.107c-0.148-0.384-0.518-0.638-0.929-0.64
	c-0.002,0-0.004,0-0.005,0c-0.41,0-0.777,0.25-0.93,0.631c-0.91,2.289-2.82,4.403-4.668,6.448l-0.524,0.582
	c-0.257,0.286-0.327,0.695-0.181,1.051c0.148,0.356,0.488,0.596,0.873,0.615l2.978,0.156c-1.12,6.424-3.938,12.871-7.323,16.656
	c-0.295,0.33-0.591,0.672-0.893,1.021c-2.501,2.893-5.275,6.098-12.032,7.82c-1.58,0.217-3.338,0.334-5.346,0.334
	c-0.929,0-8.716-0.162-11.667-5.318l0.905-0.336l-0.696-1.875l-4.85,1.802l0.696,1.875l2.058-0.765
	c3.295,6.271,11.806,6.617,13.554,6.617c12.26,0,16.469-4.07,21.489-10.277c4.625-5.719,6.203-11.213,7.326-16.773l1.795,0.483
	c0.086,0.021,0.172,0.034,0.26,0.034c0.271,0,0.537-0.111,0.729-0.315c0.252-0.271,0.336-0.656,0.217-1.006
	C59.69,32.209,59.346,31.037,59.012,29.904z M48.287,49.938c-2.213,2.736-4.209,4.97-6.826,6.588
	c2.119-1.504,3.566-3.174,4.873-4.684c0.297-0.345,0.59-0.684,0.883-1.011c3.48-3.892,6.373-10.497,7.518-17.065l0.498,0.135
	C54.156,39.251,52.666,44.523,48.287,49.938z M54.769,31.703c-0.068-0.018-0.139-0.029-0.208-0.033l-1.396-0.072
	c1.117-1.256,2.205-2.549,3.067-3.936c0.323,0.975,0.588,1.875,0.862,2.806c0.191,0.65,0.386,1.312,0.607,2.026L54.769,31.703z"/>
<polygon fill="none" points="2.598,43.669 2.598,44.47 5.156,44.47 5.459,47.2 6.254,47.111 5.872,43.669 "/>
<rect x="57.618" y="7.444" transform="matrix(-0.0814 -0.9967 0.9967 -0.0814 56.7607 68.001)" fill="none" width="4.2" height="0.799"/>
<rect x="59.578" y="12.503" transform="matrix(0.999 0.0439 -0.0439 0.999 0.6936 -2.6199)" fill="none" width="0.801" height="3.949"/>
<rect x="5.285" y="36.703" fill="none" width="0.8" height="4.277"/>
</svg>
