<?xml version="1.0" encoding="utf-8"?>
<!-- Generator: Adobe Illustrator 16.0.0, SVG Export Plug-In . SVG Version: 6.00 Build 0)  -->
<!DOCTYPE svg PUBLIC "-//W3C//DTD SVG 1.1//EN" "http://www.w3.org/Graphics/SVG/1.1/DTD/svg11.dtd">
<svg version="1.1" id="Layer_1" xmlns="http://www.w3.org/2000/svg" xmlns:xlink="http://www.w3.org/1999/xlink" x="0px" y="0px"
	 width="65.8px" height="65.801px" viewBox="0 0 65.8 65.801" enable-background="new 0 0 65.8 65.801" xml:space="preserve">
<path fill="none" d="M48.919,4.84l-0.082-0.295L44.21,4.243c-0.217-1.211-0.453-2.007-0.473-2.067L43.64,1.849l-9.531,0.657
	l-8.63-0.658l-0.108,0.313c-0.02,0.058-0.196,0.576-0.416,1.322c-0.443,0.064-0.875,0.138-1.292,0.225L23.16,3.562
	c-0.025,0.087-0.051,0.19-0.077,0.28c-3.081,0.763-5.388,2.371-6.663,6.325c-0.494,1.777-0.647,2.809-0.114,3.51
	c0.149,0.196,0.362,0.339,0.611,0.456l0.012,0.348c0.311-0.011,0.585-0.053,0.849-0.103c0.25,0.032,0.527,0.05,0.84,0.05H18.7
	l0.077-0.031c0.97-0.387,1.44-0.73,1.784-0.981c0.607-0.443,0.793-0.571,4.129-0.037c0.268,1.186,0.515,2.087,0.537,2.168
	l0.075,0.271l0.278,0.04c0.174,0.025,2.892,0.417,5.379,0.69c-0.042,2.886-0.216,13.859-0.544,22.128
	c-0.107,2.698-0.199,5.319-0.277,7.76l-0.463-0.012c-0.065,2.977,0.062,7.247,0.175,10.323c-0.048,2.055-0.075,3.425-0.082,3.788
	c-0.016,0.811,0.228,1.488,0.703,2.035c0.566,1.125,1.788,2.193,4.403,2.193v-0.904c1.328-0.154,2.602-0.776,3.299-1.646
	c0.486-0.604,0.664-1.275,0.523-1.879c-0.355-5.725-0.475-10.48-0.58-14.679c-0.068-2.72-0.132-5.288-0.25-7.813
	c-0.469-9.888-0.541-18.645-0.553-21.237c2.691-0.271,5.883-0.72,6.074-0.747l0.279-0.039l0.074-0.273
	c0.014-0.046,0.129-0.483,0.271-1.228l4.244,0.145l0.134-0.164c0.06-0.072,1.437-1.779,1.437-3.99
	C49.828,8.192,48.957,4.976,48.919,4.84z M23.182,10.057c-0.07-0.553-0.109-1.037-0.109-1.429c0-1.171,0.347-2.743,0.704-4.067
	c0.299-0.063,0.609-0.119,0.925-0.17c-0.353,1.323-0.713,2.979-0.713,4.237c0,0.463,0.044,0.997,0.116,1.56
	C23.773,10.125,23.474,10.088,23.182,10.057z M22.823,4.799c-0.324,1.274-0.609,2.713-0.609,3.829c0,0.388,0.035,0.854,0.096,1.379
	c-1.653-0.017-2.694,0.478-3.706,1.09c-0.583,0.353-0.986,0.586-1.672,0.629c0.071-0.384,0.17-0.808,0.31-1.312
	C18.334,7.026,20.211,5.547,22.823,4.799z M16.853,12.239l0.02,0.594C16.84,12.669,16.832,12.474,16.853,12.239z M31.214,38.706
	c0.267-6.721,0.432-15.225,0.507-19.733l0.729,0.148c-0.077,4.545-0.241,12.92-0.504,19.554c-0.107,2.708-0.2,5.341-0.278,7.792
	l-0.73-0.016C31.015,44.016,31.107,41.398,31.214,38.706z M37.908,60.443c0.094,0.428-0.025,0.854-0.357,1.268
	c-0.549,0.684-1.592,1.189-2.676,1.339v-0.845c-2.113,0-2.305-0.832-2.319-1.686c-0.002-0.16-0.021-0.623-0.049-1.301
	c-0.058-1.428-0.157-3.889-0.224-6.461c0.104-3.89,0.256-8.833,0.463-14.053c0.26-6.566,0.424-14.84,0.501-19.422l0.953,0.194
	l2.334-0.354c0.041,3.949,0.166,11.004,0.532,18.753c0.119,2.517,0.185,5.081,0.251,7.797
	C37.423,49.879,37.542,54.645,37.908,60.443z M33.839,16.795c0.186,0.008,0.357,0.013,0.508,0.013h0.011l0,0
	c0.138,0,0.291-0.004,0.457-0.01l-0.551,0.083L33.839,16.795z M42.98,15.046c-1.305,0.18-6.678,0.902-8.622,0.902v0.43l-0.01-0.43
	c-0.281,0-0.644-0.019-1.05-0.046c0-0.039,0.001-0.066,0.001-0.071l-0.8-0.01c0,0.001,0,0.013,0,0.017
	c-2.325-0.209-5.556-0.655-6.517-0.791c-0.159-0.603-0.544-2.122-0.822-3.66l0.243-0.9c-0.145-0.039-0.267-0.06-0.405-0.094
	c-0.092-0.644-0.152-1.256-0.152-1.765c0-1.893,0.919-4.901,1.233-5.874l8.026,0.608l8.902-0.609
	c0.207,0.802,0.707,2.971,0.707,5.401C43.714,11.59,43.173,14.22,42.98,15.046z M47.849,13.588l-1.458-0.049
	c0.129-0.882,0.315-2.51,0.315-4.653c0-1.479-0.135-2.811-0.242-3.635l1.703,0.11c0.215,0.843,0.801,3.303,0.801,4.945
	C48.968,11.844,48.162,13.142,47.849,13.588z"/>
</svg>
