<?xml version="1.0" encoding="utf-8"?>
<!-- Generator: Adobe Illustrator 16.0.0, SVG Export Plug-In . SVG Version: 6.00 Build 0)  -->
<!DOCTYPE svg PUBLIC "-//W3C//DTD SVG 1.1//EN" "http://www.w3.org/Graphics/SVG/1.1/DTD/svg11.dtd">
<svg version="1.1" id="Layer_1" xmlns="http://www.w3.org/2000/svg" xmlns:xlink="http://www.w3.org/1999/xlink" x="0px" y="0px"
	 width="65.8px" height="65.801px" viewBox="0 0 65.8 65.801" enable-background="new 0 0 65.8 65.801" xml:space="preserve">
<g>
	
		<rect x="17.675" y="14.837" transform="matrix(-0.504 -0.8637 0.8637 -0.504 36.0233 51.3606)" fill="none" width="30.169" height="1"/>
	<path fill="none" d="M37.738,42.298l14-3.439l-0.239-0.971l0.492-0.121l-1.098-4.235l-19.73,4.847l1.098,4.236l0.479-0.118
		l0.237,0.972l3.688-0.906L35.202,50l-7.029,0.267c-2.119-0.469-4.101-1.24-4.978-2.511c-2.836-4.108,1.235-17.667,1.278-17.81
		l3.643-12.494l8.029,13.906l2.598-1.5L23.304,3.114l-2.599,1.5l4.871,8.436l-5.622,10.895l-0.055,0.119
		c-1.416,3.463-8.328,20.979-5.355,25.85c1.664,2.729,4.648,3.445,6.768,3.584l-3.733,4.98l0.169,0.127H13.86v1h5.222l0.896,0.672
		l0.505-0.672h11.722l0.303,0.521l0.904-0.521h15.012v-1H35.09l-3.162-5.479l3.546-0.134l-0.057-1.499l0.491,0.097L37.738,42.298z
		 M50.174,34.737l0.344,1.33l-17.789,4.371l-0.344-1.332L50.174,34.737z M17.104,48.351c-1.604-2.629,2.27-15.062,5.546-23.091
		l4.708-9.123l0.066,0.115l-3.908,13.407c-0.176,0.576-4.252,14.158-1.145,18.662c0.605,0.879,1.621,1.547,2.824,2.057l-1.743,0.064
		l-0.169,0.018C23.24,50.465,18.763,51.065,17.104,48.351z M31.626,58.604H21.231l3.308-4.414l-0.989-0.74
		c0.029-0.004,0.069-0.008,0.092-0.012l4.896-0.186L31.626,58.604z"/>
	<rect x="13.859" y="60.745" fill="none" width="34.561" height="3"/>
</g>
</svg>
