<?xml version="1.0" encoding="utf-8"?>
<!-- Generator: Adobe Illustrator 16.0.0, SVG Export Plug-In . SVG Version: 6.00 Build 0)  -->
<!DOCTYPE svg PUBLIC "-//W3C//DTD SVG 1.1//EN" "http://www.w3.org/Graphics/SVG/1.1/DTD/svg11.dtd">
<svg version="1.1" id="Layer_1" xmlns="http://www.w3.org/2000/svg" xmlns:xlink="http://www.w3.org/1999/xlink" x="0px" y="0px"
	 width="65.8px" height="65.801px" viewBox="0 0 65.8 65.801" enable-background="new 0 0 65.8 65.801" xml:space="preserve">
<path fill="none" d="M32.358,24.308c1.96-0.357,3.75-0.817,5.251-1.364c4.043-1.468,6.229-3.614,6.078-5.929
	c0.428-0.932,0.6-1.897,0.447-2.827c-0.406-2.505-5.061-4.719-9.551-5.828c-0.252-0.469-0.537-0.905-0.871-1.293
	c0.057-0.277-0.019-0.519-0.221-0.715c-3.192-3.11-8.407-5.199-11.276-5.199c-2.86,0-5.961,1.21-8.092,3.155
	c-0.294,0.268-0.339,0.576-0.365,0.762c-0.017,0.119-0.023,0.137-0.04,0.155c-0.928,0.995-1.716,2.12-2.373,3.3L11.333,7.81
	c-4.92,0.099-8.422,2.019-9.926,3.633c-0.771,0.827-1.156,1.69-1.115,2.499c0.061,1.216,0.741,2.402,1.774,3.496
	c1.296,3.445,6.984,5.408,8.86,5.967c0.334,0.101,0.676,0.188,1.015,0.278c2.73,3.267,6.939,5.372,10.883,5.46
	c3.132,0,6.273-1.442,8.845-4.062C31.91,24.834,32.133,24.569,32.358,24.308z M9.395,15.57l-0.261,0.381H8.979
	c0,0.069,0.012,0.138,0.013,0.207L8.586,16.75c0.068,0.047,0.239,0.163,0.461,0.305c0.104,1.035,0.344,2.031,0.709,2.976
	c-2.865-1.147-5.669-2.964-6.882-4.666c0.102-0.329,0.273-0.638,0.53-0.913c0.713-0.765,2.397-1.688,6.323-1.794
	C9.496,13.65,9.381,14.629,9.395,15.57z M19.407,20.399c0.222-0.942,0.911-1.847,1.506-1.975c0.477-0.103,0.95-0.154,1.405-0.154
	c1.096,0,2.141,0.285,3.19,0.874c0.529,0.722,0.861,1.893,0.858,2.862c-2.164,0.146-4.404,0.164-6.629,0.022
	C19.237,21.552,19.31,20.812,19.407,20.399z M26.779,23.96c1.741-0.126,3.425-0.337,5.02-0.613
	c-0.026,0.032-0.056,0.061-0.082,0.092c-1.567,0.269-3.247,0.464-4.991,0.576C26.742,23.994,26.762,23.98,26.779,23.96z
	 M33.281,23.14c0.021-0.028,0.042-0.056,0.062-0.084c1.542-0.323,2.964-0.711,4.236-1.146c-0.104,0.04-0.209,0.079-0.304,0.113
	C36.102,22.451,34.753,22.828,33.281,23.14z M36.195,15.746c0.403-0.441,0.489-0.895,0.489-1.179h-0.947
	c0.017-0.42,0.019-0.825,0.009-1.221c3.405,0.843,5.407,1.61,6.332,2.464c-0.521,1.602-2.315,3.241-4.668,4.096
	c-0.81,0.295-1.707,0.566-2.672,0.813C35.554,19.071,36.067,17.358,36.195,15.746z M42.205,14.502
	c0.01,0.054,0.01,0.108,0.014,0.162c-1.338-0.924-3.561-1.619-6.529-2.34c-0.057-0.603-0.143-1.176-0.268-1.712
	C39.641,11.854,42.058,13.602,42.205,14.502z M34.069,9.77l-0.108,0.449c0.095,0.022,0.182,0.047,0.273,0.07
	c0.359,1.203,0.51,2.632,0.441,4.278h-0.928c0-0.466,0.244-0.786,0.361-0.868c-0.189,0.131-1.46,0.582-2.934-0.453l-0.481,0.686
	c-0.904-0.857-1.639-2.073-2.185-3.666c-0.416-1.21-0.096-2.363,0.855-3.087c0.79-0.601,2.082-0.852,3.27-0.165
	c-0.029,0.166-0.024,0.413,0.195,0.652C33.352,8.246,33.765,8.95,34.069,9.77z M30.928,5.626c-0.768,0.037-1.521,0.29-2.157,0.774
	c-1.283,0.977-1.738,2.578-1.188,4.184c0.681,1.982,1.594,3.293,2.543,4.157l-0.638,0.908c1.251,0.878,2.522,1.202,3.634,1.202
	c0.726,0,1.375-0.142,1.915-0.355c-0.244,1.498-0.809,3.063-1.649,4.545c-1.849,0.404-3.897,0.709-6.04,0.893
	c-0.014-1.207-0.438-2.594-1.124-3.467l-0.141-0.122c-1.709-0.984-3.498-1.279-5.374-0.877c-0.971,0.208-1.939,1.372-2.253,2.708
	c-0.154,0.656-0.104,1.253,0.095,1.762c-2.441-0.22-4.838-0.635-7.054-1.295c-0.1-0.03-0.201-0.065-0.301-0.098
	c-0.453-0.92-0.78-1.867-0.965-2.816c0.087,0.042,0.173,0.081,0.256,0.115c0.502,0.174,1.12,0.262,1.808,0.262
	c2.072,0,4.778-0.807,6.848-2.533l-0.601-0.721l0,0c2.425-2.023,2.417-3.189,2.403-5.123l-0.002-0.458
	c0-1.04-0.404-4.251-5.107-4.964c1.849-1.305,4.19-2.092,6.382-2.092C24.343,2.215,28.029,3.564,30.928,5.626z M14.495,5.949
	c0.234-0.25,0.282-0.509,0.309-0.691c4.563,0.324,5.077,2.896,5.077,4.013l0.003,0.466c0.012,1.784,0.019,2.599-2.022,4.302
	l-0.601-0.721c-2.062,1.721-4.923,2.063-5.732,1.783c-0.201-0.083-0.644-0.351-1.033-0.606C10.773,11.605,12.263,8.344,14.495,5.949
	z M2.838,12.776c1.265-1.356,4.157-2.743,7.862-2.967c-0.319,0.707-0.601,1.423-0.808,2.143L9.887,11.67
	c-3.536,0.072-5.958,0.783-7.198,2.113c-0.143,0.152-0.262,0.316-0.372,0.483c-0.038-0.144-0.064-0.285-0.071-0.423
	C2.236,13.646,2.386,13.262,2.838,12.776z M13.768,24.122c3.168,0.674,6.482,0.974,9.689,0.974c2.506,0,4.936-0.188,7.188-0.509
	c-2.318,2.249-5.08,3.495-7.811,3.495C19.213,28,16.047,26.396,13.768,24.122z"/>
<path fill="none" d="M64.472,29.927c-1.059,0.153-7.883,2.407-15.16,5.54c-0.178,0.078-0.352,0.118-0.503,0.118
	c-0.075,0-0.255-0.012-0.315-0.12c-0.065-0.117-0.039-0.396,0.23-0.834l0.643-1.039l-1.111,0.51c-1.812,0.83-4.313,2.686-6.521,4.32
	c-1.375,1.02-2.666,1.971-3.67,2.596c0.078-0.463,0.188-1.016,0.344-1.688l-0.716-0.165c-0.204,0.883-0.339,1.594-0.423,2.171
	c-0.003-0.001-0.006,0.001-0.01,0c-0.057-0.07-0.309-0.516,0.145-2.479l0.409-1.777l-1.069,1.479
	c-3.262,4.517-6.613,8.053-7.627,8.053c-0.055,0-0.107,0-0.154-0.174L28.8,45.836l-0.45,0.43c-1.883,1.795-3.052,5.435-3.467,6.914
	c-1.764,6.303,1.26,9.271,3.268,10.502c1.242,0.531,2.558,0.801,3.91,0.801c3.051,0,6.308-1.334,9.683-3.965
	c0.84-0.653,1.652-1.59,2.688-2.885l0.348-0.435l-0.536-0.151c-0.275-0.078-0.498-0.203-0.658-0.346
	c0.633-0.9,1.244-1.838,1.836-2.797c0.66-0.547,1.373-1.072,2.109-1.613c1.485-1.089,3.021-2.216,4.338-3.684l0.696-0.775
	l-1.028,0.164c-0.533,0.088-0.797-0.01-0.807-0.029c-0.02-0.045-0.145-0.494,1.562-2.359l0.082-0.092
	c1.568-1.732,3.115-3.023,4.357-4.062c0.914-0.764,1.637-1.366,2.081-1.906l0.345-0.418l-0.516-0.168
	c-0.284-0.094-0.458-0.246-0.52-0.452c-0.074-0.256,0.025-0.591,0.26-0.875c0.99-1.2,2.287-2.536,3.433-3.715
	c1.419-1.459,2.646-2.72,3.035-3.452l0.343-0.645L64.472,29.927z M25.594,53.379c0.292-1.041,1.328-4.415,2.944-6.244
	c0.152,0.141,0.349,0.215,0.578,0.215c1.691,0,5.504-4.744,7.305-7.117c-0.084,0.97,0.094,1.353,0.261,1.562
	c0.13,0.165,0.305,0.25,0.503,0.283c-0.021,0.281-0.027,0.517-0.018,0.715c-3.469,2.425-6.597,5.182-9.001,8.05
	c-1.343,1.726-2.442,4.982-1.942,7.867c0.274,1.582,1.018,2.799,2.186,3.541l-0.259,0.526C25.354,60.84,24.432,57.532,25.594,53.379
	z M42.89,57.664c0.003,0.004,0.007,0.007,0.01,0.01c-0.033,0.038-0.068,0.074-0.104,0.111C42.828,57.744,42.859,57.705,42.89,57.664
	z M28.224,62.831c0.447,0.217,0.885,0.399,1.313,0.558c-0.358-0.102-0.709-0.218-1.048-0.361
	C28.393,62.968,28.316,62.895,28.224,62.831z M47.093,51.695c-0.209,0.154-0.411,0.306-0.617,0.459
	c0.307-0.518,0.607-1.031,0.906-1.545c0.32-0.068,0.507-0.064,0.513-0.064l0.062-0.252l0.026,0.273l0.362-0.332l-0.256-0.396
	c-0.041-0.014-0.107-0.022-0.188-0.028c0.52-0.074,1.049-0.076,1.588,0.039C48.707,50.505,47.895,51.107,47.093,51.695z
	 M49.494,49.846l0.412-1.908c-0.152-0.032-0.304-0.045-0.455-0.065c0.111-0.004,0.198-0.005,0.238-0.002l0.021-0.245l0.025,0.25
	l0.291-0.247c-0.059,0.245-0.054,0.457,0.026,0.638c0.081,0.187,0.264,0.399,0.665,0.479C50.328,49.135,49.914,49.495,49.494,49.846
	z M61.287,33.405c-1.154,1.188-2.465,2.534-3.474,3.758c-0.394,0.478-0.542,1.058-0.397,1.552c0.082,0.285,0.258,0.526,0.512,0.707
	c-0.41,0.413-0.983,0.893-1.668,1.464c-1.26,1.054-2.829,2.362-4.432,4.134l-0.082,0.09c-0.974,1.064-1.514,1.836-1.689,2.416
	l-0.148-0.338c-0.056-0.03-0.232-0.047-0.48-0.049c1.853-3.062,3.691-5.713,5.725-7.08l-0.337-0.502
	c0.011-0.008,0.021-0.019,0.028-0.026l-0.236-0.283l-0.546-0.812c-2.642,1.774-4.835,5.176-7.062,8.953
	c-0.309,0.055-0.621,0.119-0.934,0.193c0.432-0.713,0.855-1.424,1.27-2.116c1.761-2.958,3.426-5.751,4.666-6.991l-0.523-0.521
	c-1.305,1.305-2.915,4.007-4.777,7.135c-0.453,0.762-0.92,1.543-1.395,2.327l0.423,0.256c-0.981,0.265-1.905,0.632-2.47,1.136
	l0.488,0.549c0.461-0.412,1.195-0.713,1.994-0.935c-0.455,0.195-0.893,0.427-1.309,0.687l-0.121-0.075
	c-0.059,0.093-0.109,0.171-0.167,0.261c-1.755,1.17-3.106,2.748-3.83,3.703l0.853,0.645c-3.43,4.4-7.647,4.606-9.927,4.715
	c-0.271,0.013-0.516,0.023-0.732,0.041l0.056,0.735c0.21-0.016,0.447-0.026,0.71-0.039c2.399-0.114,6.845-0.329,10.481-5.007
	l0.121,0.091c0.207-0.274,0.478-0.61,0.797-0.974c-0.346,0.453-0.693,0.961-1.036,1.539l0.632,0.375
	c0.37-0.625,0.742-1.158,1.109-1.623c-1.502,2.395-3.043,4.539-4.741,6.085l-0.974-1.54c-3.154,1.993-6.131,1.454-7.267,1.129
	l-0.538,1.883c0.601,0.172,1.623,0.393,2.899,0.393c1.512,0,3.382-0.317,5.328-1.391c-2.543,2.072-5.447,2.773-9.083,0.988
	l-0.266,0.541c-0.946-0.617-1.549-1.623-1.787-2.997c-0.402-2.321,0.371-5.455,1.789-7.276c2.306-2.752,5.287-5.398,8.6-7.742
	c0.066,0.125,0.146,0.211,0.236,0.275c0.096,0.07,0.233,0.133,0.411,0.133c0.158,0,0.351-0.049,0.577-0.186l-0.375-0.63
	c-0.12,0.069-0.18,0.079-0.184,0.087c-0.012-0.012-0.031-0.04-0.051-0.102c5.172-3.558,11.084-6.354,16.494-7.609l-0.167-0.721
	c-5.362,1.246-11.212,3.98-16.375,7.471c0.007-0.104,0.017-0.223,0.029-0.35c0.077-0.035,0.147-0.058,0.228-0.104
	c1.066-0.633,2.498-1.692,4.012-2.813c1.851-1.371,3.91-2.897,5.557-3.816c-0.025,0.273,0.036,0.479,0.118,0.625
	c0.177,0.316,0.526,0.499,0.96,0.499l0,0c0.251,0,0.527-0.062,0.796-0.179c6.283-2.705,11.801-4.597,14.026-5.246
	C63.062,31.578,62.192,32.474,61.287,33.405z"/>
<path fill="none" d="M41.903,43.507c0.247-0.557,0.382-1.12,0.333-1.653l-0.73,0.066c0.008,0.094,0.006,0.189-0.002,0.289H39.56
	c0,1.246-1.995,2.671-3.252,3.277l0.266,0.549c0,0,0,0-0.002,0c-4.668,2.259-6.204,5.697-7.325,8.209
	c-0.121,0.271-0.236,0.529-0.351,0.773l0.67,0.312c0.115-0.248,0.232-0.512,0.355-0.786c1.075-2.405,2.546-5.703,6.973-7.845
	l0.264,0.549c0.118-0.057,0.481-0.24,0.948-0.525l0.376,0.627c0.671-0.4,1.904-1.474,2.775-2.725
	c0.029-0.014,0.062-0.029,0.091-0.042c2.631-1.235,4.532-2.131,5.54-2.801l-0.41-0.615C45.628,41.734,44.056,42.493,41.903,43.507z"
	/>
</svg>
