<?xml version="1.0" encoding="utf-8"?>
<!-- Generator: Adobe Illustrator 16.0.0, SVG Export Plug-In . SVG Version: 6.00 Build 0)  -->
<!DOCTYPE svg PUBLIC "-//W3C//DTD SVG 1.1//EN" "http://www.w3.org/Graphics/SVG/1.1/DTD/svg11.dtd">
<svg version="1.1" id="Layer_1" xmlns="http://www.w3.org/2000/svg" xmlns:xlink="http://www.w3.org/1999/xlink" x="0px" y="0px"
	 width="65.8px" height="65.801px" viewBox="0 0 65.8 65.801" enable-background="new 0 0 65.8 65.801" xml:space="preserve">
<path fill="none" d="M48.229,29.331c-0.996-5.591-2.726-15.44-3.114-18.588l-0.041-0.345c-0.469-3.87-0.873-7.211-11.836-9.038
	c-2.169-0.364-3.366,0.234-6.261,1.675l-0.385,0.192c-8.551,4.248-7.901,8.401-7.273,12.419c0.09,0.578,0.305,0.976,0.512,1.359
	c0.203,0.376,0.411,0.763,0.547,1.383c-0.429,0.16-0.438,0.487-0.402,0.676c0.082,0.431,0.306,1.031,0.543,1.667
	c0.207,0.556,0.42,1.127,0.528,1.566c-0.1,0.03-0.217,0.088-0.301,0.213c-0.085,0.125-0.11,0.279-0.075,0.457
	c0.104,0.525,0.392,1.217,0.67,1.886c0.21,0.505,0.426,1.023,0.548,1.438c-0.113,0.022-0.238,0.071-0.329,0.192
	c-0.085,0.112-0.115,0.257-0.083,0.408c0.103,0.484,0.375,1.334,0.637,2.156c0.184,0.575,0.359,1.124,0.46,1.494
	c-0.106,0.029-0.224,0.085-0.309,0.21c-0.055,0.081-0.111,0.218-0.065,0.41c0.179,0.749,0.188,0.997,0.193,1.146
	c0.007,0.204,0.024,0.31,0.175,0.612c0.293,0.586,0.546,1.205,0.792,1.804c0.562,1.37,1.005,2.452,1.729,2.717
	c0.44,0.162,1.819,0.267,2.8,0.318c1.018,2.213,2.874,5.734,4.592,6.312c-0.003,0.492-0.01,1.059-0.065,1.65
	c-0.131,1.418-0.021,2.685-0.011,2.771c0.092,0.518,0.27,1.12,0.6,1.396c-0.069,3.455-0.188,14.499-0.188,14.614l0.753,0.008
	c0.001-0.112,0.115-10.708,0.186-14.385c0.019,0.005,0.041,0.008,0.061,0.013c0.541,0.118,1.102,0.241,2.628,0.241
	c1.333,0,1.841-0.077,2.259-0.158c0,5.052-0.006,8.577-0.133,13.675l0.754,0.02c0.127-5.169,0.131-8.721,0.133-13.877
	c0.412-0.252,0.599-0.999,0.678-1.48c0,0,0.135-1.164,0.266-2.414c0.068-0.651,0.031-1.287,0-1.795
	c-0.018-0.291-0.033-0.547-0.023-0.746c0.008-0.172,0.014-0.312,0.019-0.438c0.259-0.097,0.967-0.431,1.33-3.664
	c0.112-0.994,0.373-2.265,0.459-2.673c0.377-0.268,1.565-1.119,2.054-1.547c0.348-0.303,0.743-0.586,1.162-0.885
	C46.951,33.29,48.71,32.035,48.229,29.331z M29.699,36.904c0.667-0.303,1.549-0.614,2.523-0.959
	c0.838-0.297,1.748-0.617,2.717-0.997c-0.299,2.114-0.777,5.509-0.887,6.429c-0.086,0.714-0.233,0.902-0.229,0.909
	c-0.037,0.01-0.427-0.033-0.729-0.104C32.463,41.98,30.953,39.609,29.699,36.904z M41.476,36.525
	c-0.016,0.066-0.363,1.66-0.501,2.892c-0.235,2.106-0.616,2.869-0.817,3.019c-0.031-0.009-0.066-0.016-0.107-0.019
	c-0.065-0.006-0.188,0.013-0.288,0.114c0.272-0.975,0.524-2.295,0.6-4.5l-2.698-0.094c-0.093,2.707-0.461,3.815-0.789,4.78
	c-0.115,0.005-0.231,0.009-0.342,0.015c-0.257,0.011-0.508,0.021-0.752,0.031c0.119-0.33,0.206-0.713,0.26-1.148
	c0.158-1.313,1.119-8.055,1.127-8.121c0.006-0.042,0-0.083,0.002-0.124c0.812,0.192,1.621,0.401,2.408,0.614
	c0.446,0.123,0.885,0.242,1.314,0.354l0.1,0.025c0.413,0.106,0.84,0.219,0.897,0.295c0.004,0.008,0.022,0.059-0.002,0.283
	c-0.121,1.08-0.345,1.439-0.345,1.439L41.476,36.525z M44.96,33.784c-0.416,0.296-0.846,0.603-1.221,0.931
	c-0.26,0.229-0.753,0.598-1.197,0.924c0.033-0.182,0.065-0.378,0.092-0.611c0.109-0.985-0.381-1.113-1.457-1.393l-0.098-0.025
	c-0.427-0.11-0.863-0.229-1.308-0.351c-1.019-0.278-2.069-0.558-3.136-0.784c-0.268-0.139-0.583-0.16-0.864-0.037
	c-1.522,0.671-2.955,1.177-4.217,1.623c-1.386,0.488-2.5,0.894-3.335,1.361c-1.888-0.324-2.068-0.664-2.198-0.943
	c-0.324-0.697-0.722-2.351-0.967-4.018c-0.009-0.061-0.022-0.14-0.032-0.205c1.269-1.201,3.138-2.936,4.426-3.98
	c0.279-0.226,0.322-0.636,0.096-0.914c-0.226-0.278-0.636-0.322-0.914-0.096c-1.127,0.914-2.648,2.304-3.865,3.444
	c-0.137-0.781-0.3-1.678-0.483-2.663c1.15-1.2,2.899-2.954,4.261-4.001c0.284-0.22,0.337-0.627,0.119-0.912
	c-0.218-0.283-0.626-0.337-0.912-0.119c-1.196,0.921-2.634,2.315-3.762,3.466c-0.125-0.66-0.251-1.336-0.382-2.023
	c-0.025-0.133-0.05-0.266-0.076-0.398c1.335-1.235,3.431-3.116,4.918-4.179c0.292-0.209,0.36-0.615,0.151-0.907
	c-0.208-0.292-0.614-0.357-0.907-0.151c-1.344,0.96-3.115,2.516-4.447,3.729c-0.149-0.791-0.293-1.563-0.431-2.307
	c1.407-1.313,3.737-3.433,4.994-4.275c0.298-0.2,0.378-0.604,0.178-0.902c-0.2-0.298-0.604-0.376-0.902-0.178
	c-1.166,0.782-3.115,2.518-4.548,3.839c-0.183-1.016-0.336-1.902-0.445-2.602c1.466-1.255,3.611-3.018,5.261-4.069
	c0.303-0.192,0.392-0.595,0.199-0.897c-0.193-0.302-0.596-0.393-0.897-0.198c-1.51,0.963-3.37,2.454-4.811,3.669
	c-0.007-0.04-0.015-0.084-0.022-0.123c-0.389-2.111-0.458-2.491,3.855-5.964l-1.08-1.341c0.686-0.431,1.446-0.864,2.327-1.302
	l0.386-0.191c2.819-1.403,3.875-1.931,5.801-1.607c10.406,1.734,10.762,4.67,11.213,8.387l0.041,0.346
	c0.391,3.166,2.122,13.03,3.12,18.629C47.886,31.698,46.464,32.712,44.96,33.784z"/>
<path fill="none" d="M39.984,22.574c0.266,1.553,0.499,2.78,0.52,2.89l1.965-0.375c-0.004-0.021-0.146-0.774-0.336-1.841
	c0.209,0.073,0.421,0.149,0.638,0.228c0.635,0.229,1.308,0.471,2.038,0.71c0.066,0.021,0.135,0.032,0.201,0.032
	c0.273,0,0.529-0.174,0.619-0.448c0.111-0.341-0.074-0.708-0.416-0.82c-0.717-0.234-1.379-0.472-2.002-0.696
	c-0.457-0.165-0.898-0.323-1.33-0.469c-0.129-0.766-0.258-1.583-0.373-2.368c0.455,0.162,0.908,0.336,1.365,0.513
	c0.358,0.14,0.717,0.278,1.08,0.411c0.073,0.027,0.149,0.041,0.225,0.041c0.264,0,0.513-0.163,0.609-0.425
	c0.125-0.337-0.047-0.711-0.385-0.835c-0.355-0.132-0.708-0.268-1.061-0.404c-0.668-0.258-1.338-0.516-2.024-0.74
	c-0.054-0.461-0.096-0.886-0.118-1.239c-0.014-0.226-0.039-0.497-0.068-0.784c0.48,0.217,0.977,0.455,1.504,0.709l0.32,0.154
	c0.092,0.044,0.188,0.064,0.281,0.064c0.242,0,0.475-0.136,0.586-0.369c0.155-0.323,0.02-0.712-0.304-0.867l-0.319-0.154
	c-0.785-0.378-1.523-0.731-2.25-1.034c-0.068-0.495-0.146-1.02-0.232-1.562c0.539,0.228,1.098,0.462,1.699,0.689
	c0.076,0.028,0.153,0.042,0.23,0.042c0.262,0,0.51-0.16,0.607-0.42c0.127-0.336-0.041-0.711-0.377-0.839
	c-0.724-0.273-1.393-0.558-2.027-0.827c-0.131-0.056-0.258-0.109-0.387-0.164c-0.129-0.74-0.268-1.479-0.406-2.171
	c0.548,0.216,1.125,0.438,1.779,0.675c0.074,0.026,0.147,0.039,0.221,0.039c0.266,0,0.516-0.165,0.611-0.43
	c0.121-0.338-0.053-0.71-0.392-0.832c-0.968-0.35-1.803-0.682-2.548-0.979c-0.208-0.902-0.406-1.625-0.568-2.016l-1.847,0.77
	c0.041,0.097,0.086,0.236,0.134,0.394c-2.289-0.735-4.13-0.718-7.487,1.177c-0.313,0.177-0.423,0.573-0.247,0.886
	c0.176,0.312,0.574,0.421,0.885,0.247c3.274-1.848,4.71-1.738,7.228-0.803c0.146,0.652,0.299,1.408,0.448,2.207
	c-2.261-0.717-4.517-0.777-7.744,1.181c-0.307,0.187-0.404,0.586-0.218,0.893c0.187,0.309,0.586,0.405,0.893,0.219
	c3.083-1.872,5.044-1.673,7.333-0.827c0.103,0.594,0.197,1.186,0.285,1.754c-2.162-0.489-4.463-0.226-7.696,1.664
	c-0.31,0.182-0.414,0.579-0.233,0.89c0.181,0.31,0.579,0.411,0.889,0.233c3.104-1.814,5.153-1.988,7.237-1.395
	c0.088,0.671,0.15,1.262,0.178,1.708c0.012,0.182,0.027,0.38,0.047,0.589c-2.187-0.378-4.603-0.14-7.544,1.691
	c-0.305,0.189-0.398,0.591-0.208,0.896c0.19,0.305,0.591,0.396,0.896,0.208c2.745-1.712,4.954-1.867,7.011-1.44
	c0.1,0.764,0.223,1.587,0.352,2.39c-2.174-0.438-4.362-0.219-7.453,1.649c-0.307,0.188-0.406,0.586-0.22,0.894
	c0.186,0.306,0.586,0.404,0.893,0.22C35.923,22.169,37.852,22.044,39.984,22.574z"/>
<path fill="none" d="M45.569,27.117c-0.271,0.056-0.444,0.319-0.389,0.59l0.454,2.202l-1.395,1.436
	c-0.191,0.198-0.188,0.515,0.012,0.707c0.097,0.095,0.223,0.142,0.348,0.142c0.13,0,0.261-0.051,0.359-0.151l1.762-1.816
	l-0.561-2.72C46.104,27.235,45.843,27.057,45.569,27.117z"/>
<path fill="none" d="M44.355,26.45c-0.039-0.274-0.29-0.456-0.564-0.425c-0.273,0.039-0.463,0.292-0.426,0.565l0.389,2.732
	l-1.366,1.52c-0.185,0.205-0.167,0.521,0.038,0.706c0.096,0.086,0.215,0.128,0.334,0.128c0.137,0,0.273-0.056,0.371-0.166
	l1.678-1.865L44.355,26.45z"/>
<path fill="none" d="M42.029,25.736c-0.027-0.274-0.268-0.464-0.547-0.449c-0.275,0.027-0.477,0.272-0.447,0.547l0.278,2.824
	l-1.437,1.482c-0.191,0.198-0.188,0.515,0.012,0.707c0.097,0.094,0.223,0.141,0.348,0.141c0.131,0,0.262-0.051,0.359-0.152
	l1.759-1.814L42.029,25.736z"/>
<path fill="none" d="M39.099,25.402c-0.275,0-0.5,0.224-0.5,0.5v2.422l-1.346,1.872c-0.16,0.225-0.109,0.537,0.115,0.698
	c0.088,0.063,0.19,0.094,0.291,0.094c0.156,0,0.309-0.072,0.407-0.208l1.532-2.134v-2.744
	C39.599,25.626,39.375,25.402,39.099,25.402z"/>
</svg>
