<?xml version="1.0" encoding="utf-8"?>
<!-- Generator: Adobe Illustrator 16.0.0, SVG Export Plug-In . SVG Version: 6.00 Build 0)  -->
<!DOCTYPE svg PUBLIC "-//W3C//DTD SVG 1.1//EN" "http://www.w3.org/Graphics/SVG/1.1/DTD/svg11.dtd">
<svg version="1.1" id="Layer_1" xmlns="http://www.w3.org/2000/svg" xmlns:xlink="http://www.w3.org/1999/xlink" x="0px" y="0px"
	 width="65.8px" height="65.801px" viewBox="0 0 65.8 65.801" enable-background="new 0 0 65.8 65.801" xml:space="preserve">
<path fill="none" d="M62.24,47.312c2.119-2.758,3.522-6.444,3.698-11.162c0.173-4.661-1.429-8.991-4.513-12.192
	c-0.562-0.584-1.184-1.108-1.828-1.604l2.136-2.342l-3.667-2.881l-2.658,2.836c-1.826-0.727-3.796-1.153-5.824-1.274v-2.569
	c1.651,0.128,3.328,0.289,3.355,0.292l0.053-0.55h0.45l0.414-3.774l-0.376-0.061c-0.037-0.006-3.729-0.591-6.6-0.634l-0.291-0.002
	c-2.988,0-6.471,0.611-6.617,0.638l-0.312,0.055l-0.207,3.778h0.506l0.049,0.551c0.025-0.003,1.279-0.113,2.742-0.225v3.273h0.168
	c-1.061,0.319-2.076,0.74-3.053,1.231L39.779,19.6c-0.754,0.061-1.578,0.355-2.423,0.832l-2.71-2.966l-3.778,3.004l2.446,3.521
	c-2.262,2.734-4.074,6.377-4.311,9.874c-0.461,6.824,1.884,13.25,6.275,17.189c2.414,2.165,6.427,4.444,12.62,4.444
	c1.562,0,3.266-0.146,5.114-0.476l-0.32-1.801c3.522-0.75,6.841-2.576,9.283-5.584l0.132,0.051
	C62.155,47.562,62.194,47.439,62.24,47.312z M46.589,12.196l0.279,0.002c2.281,0.034,5.104,0.419,6.108,0.566l-0.069,0.635
	c-1.092-0.103-4.675-0.429-6.068-0.434c-0.012,0-0.024,0-0.036,0c-1.458,0-4.957,0.284-6.412,0.407l0.032-0.604
	C41.352,12.618,44.178,12.196,46.589,12.196z M49.007,19.466c2.857,0.088,5.604,0.827,7.992,2.134l1.744,1.692l0.313-0.345
	c0.633,0.483,1.241,0.995,1.792,1.566c2.975,3.087,4.457,7.101,4.29,11.607c-0.099,2.635-0.685,5.274-1.777,7.655
	c2.095-7.944,0.872-14.568-3.588-18.907c-4.293-4.177-11.106-5.688-17.849-4.207c1.892-0.72,3.92-1.135,5.986-1.196L49.007,19.466
	L49.007,19.466z M52.56,52.479l-0.072-0.406c-3.545,0.629-6.679,0.552-9.406-0.18C37.81,50.1,33.966,45.814,32.406,39.87
	c-0.387-1.845-0.545-3.796-0.41-5.804c0.381-5.629,5.746-11.296,8.02-11.478l-0.046-0.575c7.148-2.284,14.691-0.999,19.244,3.428
	c4.818,4.689,5.645,12.25,2.367,21.332C59.516,49.561,56.535,51.676,52.56,52.479z"/>
<path fill="none" d="M59.328,37.551c-0.01,0.248-0.024,0.495-0.045,0.741l0.588,0.049c0.021-0.254,0.037-0.511,0.047-0.768
	l0.008-0.272l-0.592-0.01L59.328,37.551z"/>
<path fill="none" d="M46.326,25.26l-0.031-0.59c-0.349,0.018-0.694,0.048-1.039,0.091l0.074,0.586
	C45.66,25.306,45.992,25.277,46.326,25.26z"/>
<path fill="none" d="M57.38,29.49c-0.217-0.276-0.444-0.542-0.684-0.797l-0.431,0.404c0.228,0.241,0.442,0.493,0.647,0.756
	L57.38,29.49z"/>
<path fill="none" d="M49.417,24.856c-0.342-0.059-0.688-0.104-1.035-0.139l-0.059,0.588c0.334,0.032,0.666,0.076,0.992,0.133
	L49.417,24.856z"/>
<path fill="none" d="M55.138,27.297c-0.278-0.21-0.566-0.408-0.862-0.596l-0.315,0.5c0.283,0.178,0.557,0.366,0.822,0.566
	L55.138,27.297z"/>
<path fill="none" d="M52.421,25.733c-0.32-0.136-0.646-0.259-0.979-0.37l-0.187,0.561c0.316,0.105,0.627,0.223,0.935,0.353
	L52.421,25.733z"/>
<path fill="none" d="M58.971,32.192c-0.138-0.326-0.286-0.642-0.449-0.948L58,31.521c0.154,0.291,0.297,0.591,0.428,0.899
	L58.971,32.192z"/>
<path fill="none" d="M35.369,42.688c0.137,0.321,0.286,0.638,0.445,0.943l0.523-0.271c-0.151-0.295-0.295-0.596-0.428-0.903
	L35.369,42.688z"/>
<path fill="none" d="M35.035,33.59l-0.568-0.16c-0.094,0.334-0.174,0.68-0.236,1.023l0.581,0.105
	C34.869,34.23,34.944,33.906,35.035,33.59z"/>
<path fill="none" d="M36.244,30.874l-0.5-0.314c-0.188,0.297-0.361,0.605-0.518,0.915l0.527,0.266
	C35.903,31.442,36.066,31.154,36.244,30.874z"/>
<path fill="none" d="M34.425,39.712c0.074,0.341,0.156,0.679,0.25,1.011l0.568-0.16c-0.089-0.32-0.17-0.646-0.24-0.976
	L34.425,39.712z"/>
<path fill="none" d="M34.641,36.538l-0.591,0.004c0.002,0.344,0.02,0.692,0.053,1.045l0.006,0.067l0.294-0.025l0.288-0.095
	C34.66,37.198,34.643,36.866,34.641,36.538z"/>
<path fill="none" d="M59.798,35.216c-0.049-0.352-0.112-0.694-0.188-1.03l-0.575,0.131c0.072,0.32,0.133,0.647,0.18,0.981
	L59.798,35.216z"/>
<path fill="none" d="M53.531,48.289l0.299,0.51c0.297-0.175,0.592-0.367,0.879-0.576l-0.347-0.479
	C54.089,47.941,53.811,48.125,53.531,48.289z"/>
<path fill="none" d="M50.785,49.441l0.153,0.569c0.342-0.092,0.675-0.198,0.999-0.317l-0.204-0.555
	C51.425,49.253,51.109,49.354,50.785,49.441z"/>
<path fill="none" d="M55.857,46.434l0.428,0.408c0.24-0.253,0.471-0.518,0.688-0.792l-0.464-0.366
	C56.303,45.943,56.085,46.193,55.857,46.434z"/>
<path fill="none" d="M47.824,49.874l0.02,0.59c0.355-0.012,0.701-0.036,1.041-0.071l-0.061-0.588
	C48.498,49.84,48.164,49.861,47.824,49.874z"/>
<path fill="none" d="M58.75,41.251l0.566,0.162c0.096-0.331,0.18-0.669,0.252-1.013l-0.576-0.123
	C58.921,40.607,58.839,40.932,58.75,41.251z"/>
<path fill="none" d="M57.613,44.021l0.518,0.285c0.168-0.304,0.324-0.615,0.469-0.935l-0.538-0.244
	C57.921,43.436,57.773,43.732,57.613,44.021z"/>
<path fill="none" d="M37.016,28.896l0.437,0.398c0.223-0.244,0.459-0.479,0.705-0.704l-0.4-0.436
	C37.5,28.391,37.251,28.638,37.016,28.896z"/>
<path fill="none" d="M39.412,26.876l0.322,0.494c0.278-0.181,0.564-0.352,0.857-0.511l-0.281-0.52
	C40.003,26.507,39.703,26.686,39.412,26.876z"/>
<path fill="none" d="M39.064,47.686c0.27,0.221,0.551,0.43,0.84,0.627l0.332-0.488c-0.275-0.188-0.542-0.387-0.798-0.596
	L39.064,47.686z"/>
<path fill="none" d="M36.912,45.407c0.207,0.28,0.424,0.555,0.652,0.817l0.445-0.388c-0.217-0.251-0.424-0.511-0.621-0.78
	L36.912,45.407z"/>
<path fill="none" d="M44.727,50.246c0.337,0.061,0.681,0.107,1.032,0.146l0.062-0.588c-0.337-0.035-0.668-0.082-0.99-0.141
	L44.727,50.246z"/>
<path fill="none" d="M42.214,25.487l0.201,0.555c0.312-0.112,0.629-0.214,0.953-0.304L43.21,25.17
	C42.873,25.264,42.542,25.369,42.214,25.487z"/>
<path fill="none" d="M41.733,49.332c0.315,0.141,0.64,0.271,0.974,0.387L42.9,49.16c-0.316-0.11-0.626-0.232-0.926-0.367
	L41.733,49.332z"/>
<polygon fill="none" points="61.884,38.714 48.449,37.134 49.212,27.014 46.345,26.797 45.555,37.275 46.988,37.384 46.939,37.8 
	61.787,39.546 "/>
<rect x="17.1" y="22.567" transform="matrix(-0.0122 -0.9999 0.9999 -0.0122 -11.9341 47.5104)" fill="none" width="0.801" height="14.167"/>
<polygon fill="none" points="0.105,38.436 0.395,41.164 11.315,40.005 26.401,40.172 26.432,37.428 11.185,37.259 "/>
<polygon fill="none" points="16.777,47.4 4.277,46.566 4.223,47.365 16.758,48.2 24.758,48.032 24.742,47.23 "/>
</svg>
