<?xml version="1.0" encoding="utf-8"?>
<!-- Generator: Adobe Illustrator 16.0.0, SVG Export Plug-In . SVG Version: 6.00 Build 0)  -->
<!DOCTYPE svg PUBLIC "-//W3C//DTD SVG 1.1//EN" "http://www.w3.org/Graphics/SVG/1.1/DTD/svg11.dtd">
<svg version="1.1" id="Layer_1" xmlns="http://www.w3.org/2000/svg" xmlns:xlink="http://www.w3.org/1999/xlink" x="0px" y="0px"
	 width="65.8px" height="65.801px" viewBox="0 0 65.8 65.801" enable-background="new 0 0 65.8 65.801" xml:space="preserve">
<path fill="none" d="M65.022,60.682c0-2.522-3.004-4.412-7.591-4.988c0.447-0.369,0.828-0.824,1.078-1.319
	c0.369-0.694,0.531-1.425,0.589-2.103c0.042-0.679-0.024-1.313-0.144-1.889c-0.104-0.576-0.291-1.093-0.477-1.553
	c-0.189-0.458-0.398-0.857-0.607-1.196c0-0.001,0-0.002-0.002-0.003c-0.211-0.562-0.466-1.136-0.771-1.715
	c-1.098-2.077-2.062-3.732-3.637-4.562c-0.435-0.229-0.875-0.403-1.312-0.526c0-0.001,0.001-0.001,0.001-0.002
	c0.307-0.438,0.456-1.2,0.471-1.761c0.023-0.972-0.279-1.816-0.875-2.445c-0.39-0.409-0.888-0.688-1.439-0.837
	c0.182-0.249,0.287-0.552,0.307-0.892c0.045-0.791-0.373-1.738-1.145-2.599c-0.588-0.657-1.09-1.175-1.764-1.359
	c-0.451-0.123-0.877-0.112-1.252,0.001c0.188-0.434,0.285-0.99,0.297-1.43c0.023-0.972-0.279-1.817-0.875-2.446
	c-0.254-0.267-0.557-0.473-0.885-0.632c0.27-0.258,0.459-0.678,0.467-1.09c0.017-0.627-0.336-1.184-0.99-1.567
	c-0.049-0.028-0.106-0.05-0.157-0.076c0.364-0.118,0.688-0.323,0.94-0.685c0.306-0.439,0.457-1.2,0.469-1.76
	c0.025-0.972-0.278-1.817-0.875-2.446c-0.568-0.6-1.362-0.941-2.236-0.962l-0.111-0.002c0.041-0.091,0.071-0.181,0.086-0.266
	c0.187-1.062-0.638-1.518-1.824-2.044c-0.672-0.299-1.723-0.449-2.738-0.595c-0.377-0.055-0.746-0.107-1.152-0.179
	c-0.058-0.011-0.113-0.02-0.171-0.029c0.544-0.335,0.824-0.851,1.041-1.349c0.187-0.43,0.308-1.314-0.991-2.418
	c-0.779-0.662-1.998-1.576-3.597-1.859c-1.32-0.234-2.48-0.354-3.448-0.354c-1.743,0-2.757,0.384-3.1,1.174
	c-0.231,0.53-0.101,1.207,0.315,1.647c0.125,0.132,0.274,0.234,0.442,0.316c-0.245,0.06-0.492,0.125-0.735,0.19
	c-0.347,0.093-0.686,0.184-1.033,0.259c-2.135,0.461-3.821,0.825-4.604,1.706c-0.408,0.457-0.541,1.212-0.325,1.836
	c0.202,0.585,0.67,1.044,1.358,1.356c-0.667,0.098-1.229,0.234-1.651,0.45c-0.569,0.29-0.934,0.838-0.908,1.361
	c0.018,0.385,0.219,0.688,0.523,0.936c-0.448,0.054-0.836,0.149-1.108,0.379c-0.252,0.211-0.409,0.588-0.391,0.937
	c0.03,0.659,0.613,1.146,1.512,1.329c-1.637,0.815-2.974,1.596-3.562,2.556c-0.375,0.613-0.417,1.497-0.104,2.15
	c0.284,0.591,0.974,1.288,2.602,1.333c-0.673,0.393-1.347,0.843-2.01,1.359c-1.998,1.56-3.572,2.882-4.157,4.504
	c-0.645,1.791-0.41,3.348,0.663,4.382c0.242,0.233,0.476,0.415,0.709,0.569c-0.251,0.07-0.488,0.151-0.714,0.246
	c-1.921,0.807-3.062,2.028-3.212,3.439c-0.098,0.915,0.06,1.566,0.461,2.109c0.01,0.021,0.017,0.041,0.027,0.062
	c0.255,0.404,0.609,0.814,1.051,1.141c0.183,0.145,0.37,0.28,0.553,0.407c-2.083,0.019-3.85,0.162-4.91,1.284
	c-0.557,0.589-0.946,1.741-0.946,2.803c0,0.465,0.077,0.905,0.209,1.325c0.002,0.019-0.002,0.033,0,0.051
	c0.011,0.302,0.078,0.64,0.202,1c0.25,0.72,0.798,1.479,1.549,2.058c0.037,0.029,0.079,0.052,0.116,0.08
	c-2.545,0.09-4.673,0.356-6.042,1.162c-1.002,0.59-1.703,1.771-1.703,2.877c0,0.681,0.259,1.311,0.721,1.886
	c0.12,0.228,0.272,0.459,0.469,0.677c0.365,0.467,0.869,0.878,1.451,1.27c0.583,0.381,1.248,0.742,1.978,1.019
	c0.726,0.291,1.506,0.557,2.327,0.739c0.819,0.197,1.674,0.339,2.545,0.435c0.439,0.043,0.891,0.081,1.341,0.106l1.3,0.033
	c0.856-0.01,1.719-0.018,2.581-0.078c0.863-0.056,1.719-0.138,2.56-0.303c0.835-0.137,1.644-0.393,2.461-0.711
	c0.386-0.174,0.607-0.283,1.023-0.513c0.312-0.218,0.621-0.39,0.893-0.62c0.561-0.414,1.019-0.886,1.358-1.355
	c0.154-0.199,0.274-0.401,0.375-0.602c0.268-0.354,0.462-0.723,0.581-1.102c0.083,0.301,0.207,0.591,0.373,0.867
	c0.063,0.184,0.136,0.373,0.244,0.567c0.26,0.431,0.61,0.914,1.081,1.312c0.926,0.836,2.209,1.496,3.625,1.91
	c0.709,0.221,1.453,0.368,2.214,0.473c0.38,0.054,0.783,0.088,1.18,0.117l1.125,0.035c0.736-0.012,1.479-0.018,2.231-0.084
	c0.746-0.051,1.505-0.164,2.241-0.339c0.367-0.086,0.732-0.205,1.088-0.327c0.357-0.162,0.814-0.318,1.04-0.49
	c0.133-0.086,0.265-0.168,0.394-0.25c0.246-0.148,0.299-0.219,0.451-0.334c0.26-0.199,0.491-0.43,0.706-0.646
	c0.216-0.218,0.396-0.466,0.565-0.684c0.148-0.248,0.295-0.471,0.402-0.698c0.055-0.109,0.08-0.211,0.121-0.315
	c0.066,0.379,0.188,0.706,0.358,0.997c0.073,0.195,0.168,0.397,0.306,0.601c0.336,0.438,0.784,0.869,1.317,1.207
	c0.269,0.18,0.554,0.354,0.812,0.494c0.135,0.073,0.272,0.148,0.411,0.227c0.177,0.095,0.362,0.15,0.552,0.229
	c0.769,0.289,1.512,0.381,2.279,0.461c0.75,0.058,1.518,0.08,2.264,0.065c0.731-0.013,1.474-0.024,2.217-0.036
	c0.709-0.012,1.5-0.012,2.246-0.056c0.752-0.029,1.506-0.095,2.238-0.19c0.731-0.088,1.452-0.238,2.129-0.41
	c0.34-0.113,0.672-0.222,0.991-0.328c0.349-0.155,0.679-0.312,0.979-0.471c0.24-0.172,0.453-0.334,0.66-0.499
	c0.326-0.297,0.44-0.502,0.633-0.729c0.09-0.17,0.15-0.323,0.214-0.479C64.796,62.023,65.022,61.338,65.022,60.682z M64.175,60.682
	c0,0.453-0.155,0.928-0.396,1.34c-0.119,0.115-0.248,0.23-0.376,0.352c-0.153,0.074-0.39,0.216-0.464,0.238
	c-0.247,0.082-0.507,0.166-0.779,0.256c-0.238,0.021-0.466,0.055-0.697,0.089c-0.277,0.021-0.563,0.04-0.859,0.062
	c-0.605,0.015-1.246,0.021-1.93,0.006c-0.688-0.017-1.4-0.033-2.125-0.051c-0.745-0.012-1.502-0.021-2.258-0.033
	c-0.729,0.016-1.574,0.058-2.289,0.123c-0.715,0.057-1.418,0.112-2.1,0.166c-0.645,0.026-1.281,0.062-1.763-0.01
	c-0.121-0.018-0.255-0.015-0.368-0.044c-0.154-0.04-0.307-0.077-0.455-0.116c-0.316-0.068-0.564-0.146-0.807-0.213
	c-0.5-0.132-0.908-0.303-1.25-0.486c-0.143-0.103-0.274-0.213-0.391-0.328c-0.211-0.376-0.272-0.807-0.272-1.348
	c0-1.248,0.981-2.444,2.763-3.367c1.411-0.732,3.275-0.907,5.52-0.947l0.057,0.031l0.048,0.029l0.121,0.053l0.019,0.007l0.039,0.011
	l0.155,0.046c0.209,0.06,0.423,0.112,0.64,0.159c0.203,0.021,0.398,0.016,0.602,0.018c0.391,0.029,0.843-0.087,1.264-0.185
	c0.146-0.037,0.239-0.077,0.336-0.116C60.893,56.758,64.175,58.443,64.175,60.682z M18.177,55.042
	c0.552-0.451,0.993-0.969,1.328-1.528c0.078,0.428,0.199,0.858,0.386,1.248c0.137,0.285,0.307,0.541,0.492,0.784
	c-0.66-0.155-1.497-0.233-2.576-0.243C17.932,55.221,18.058,55.141,18.177,55.042z M32.045,13.307
	c-0.093-0.268-0.208-0.484-0.343-0.67c0.003,0.001,0.005,0.001,0.008,0.002c0.432,0.13,0.982,0.675,1.468,1.154
	c0.175,0.174,0.348,0.344,0.521,0.501c-0.625-0.054-1.162-0.055-1.59,0.015C32.176,13.969,32.157,13.631,32.045,13.307z
	 M30.778,16.16c0.121,0.271,0.339,0.525,0.633,0.762c-0.226,0.106-0.41,0.26-0.536,0.451c-0.39-0.232-0.932-0.362-1.565-0.489
	C29.882,16.695,30.368,16.459,30.778,16.16z M34.539,18.303c0.385,0.154,0.791,0.322,1.223,0.504
	c0.267,0.113,0.566,0.228,0.873,0.345c0.709,0.271,1.515,0.579,1.916,0.887c0.482,0.37,0.712,0.593,0.812,0.752
	c-0.01,0.101-0.03,0.199-0.032,0.302c-0.002,0.047,0,0.088,0,0.134c-0.119,0.14-0.438,0.278-1.066,0.278L38.056,21.5
	c-0.863-0.037-2.014-0.52-3.028-0.945c-1.144-0.479-2.127-1.047-2.772-1.597c-0.632-0.539-0.775-0.923-0.706-1.089
	c0.041-0.098,0.228-0.248,0.571-0.262c0.183,0,0.4,0.035,0.636,0.089C33.297,17.93,33.908,18.131,34.539,18.303z M44.343,58.785
	c-0.077-0.585-0.268-1.059-0.606-1.475c0.353,0,0.704-0.01,1.054-0.03c0.402-0.02,0.803-0.064,1.199-0.123
	C45.272,57.648,44.718,58.197,44.343,58.785z M28.537,42.962c0-0.335,0.102-0.685,0.265-1.004c0.126-0.028,0.255-0.048,0.38-0.082
	c0.315-0.096,0.699-0.215,0.964-0.323l0.419-0.172l0.448-0.204c0.557-0.262,1.114-0.542,1.646-0.901
	c0.007-0.006,0.014-0.012,0.021-0.016c1.381-0.13,3.016-0.132,4.778-0.132h0.121c0.56,0,1.176-0.028,1.807-0.056
	c0.131,0.022,0.26,0.046,0.391,0.068c1.014,0.202,2.066,0.379,3.126,0.398c0.44,0.012,0.882-0.031,1.315-0.105
	c0.775,0.293,1.312,0.561,1.673,0.842c0.017,0.018,0.034,0.029,0.051,0.048c0.31,0.343,0.44,0.721,0.433,1.239l-0.014,0.205
	l-0.006,0.104l-0.003,0.052v0.012c0-0.012,0.001-0.021,0.002-0.043l-0.003,0.017c-0.037,0.155-0.064,0.351-0.111,0.479
	c-0.07,0.092-0.082,0.16-0.15,0.27c-0.084,0.107-0.129,0.226-0.233,0.328c-0.358,0.433-0.907,0.805-1.519,1.14l-0.482,0.231
	l-0.514,0.188c-0.211,0.09-0.336,0.082-0.504,0.13c-0.146,0.042-0.319,0.084-0.514,0.113c-0.73,0.147-1.535,0.202-2.355,0.228
	c-0.807,0.051-1.682,0.064-2.475,0.077c-0.869-0.012-1.599,0.023-2.373-0.038c-0.761-0.059-1.498-0.111-2.183-0.228
	c-0.688-0.108-1.322-0.257-1.898-0.425c-0.572-0.182-1.066-0.397-1.489-0.631c-0.028-0.019-0.055-0.037-0.082-0.057
	c-0.312-0.271-0.553-0.562-0.709-0.875c-0.042-0.195-0.104-0.387-0.188-0.576C28.553,43.165,28.537,43.064,28.537,42.962z
	 M34.628,23.573c0.012-0.443,0.406-0.75,0.642-0.893c0.341-0.209,0.825-0.238,1.297-0.238c0.144,0,0.29,0.003,0.438,0.007
	c0.906,0.022,1.705,0.284,2.084,0.685c0.162,0.17,0.24,0.352,0.234,0.555c-0.006,0.219-0.117,0.438-0.217,0.519
	c-0.277,0.221-0.869,0.25-1.41,0.25c-0.222,0-0.455-0.006-0.74-0.012l-0.131-0.002c-0.132,0-0.272,0.005-0.416,0.01
	c-0.408-0.078-0.836-0.129-1.281-0.154C34.666,24.051,34.621,23.906,34.628,23.573z M39.072,25.148c0,0.011-0.005,0.021-0.005,0.031
	c-0.003,0.133,0.021,0.234,0.037,0.345c-0.146-0.101-0.297-0.196-0.456-0.286C38.796,25.217,38.94,25.188,39.072,25.148z
	 M39.468,22.361c-0.063-0.05-0.119-0.104-0.189-0.15c0.047-0.014,0.092-0.027,0.133-0.044
	C39.427,22.234,39.447,22.299,39.468,22.361z M34.83,21.958c-0.086,0.052-0.151,0.113-0.227,0.17
	c-0.025-0.321-0.075-0.632-0.175-0.917c0.092,0.041,0.178,0.084,0.271,0.124c0.305,0.127,0.586,0.243,0.86,0.352
	C35.306,21.741,35.058,21.817,34.83,21.958z M29.086,22.41c0.019-0.766,0.289-1.475,0.76-1.997c0.324-0.361,0.756-0.434,1.349-0.434
	l0.3,0.004c0.647,0.016,1.23,0.265,1.643,0.699c0.439,0.463,0.662,1.1,0.643,1.842c-0.012,0.497-0.148,1.055-0.316,1.297
	c-0.246,0.35-0.644,0.474-1.521,0.474c-0.169,0-0.343-0.004-0.523-0.008l-0.103-0.001c-0.162,0-0.337,0.014-0.517,0.028
	c-0.424,0.032-0.861,0.037-1.01-0.093C29.223,23.723,29.061,23.425,29.086,22.41z M33.559,25.167
	c0.325-0.028,0.646-0.042,0.96-0.042c0.146,0,0.279,0.017,0.421,0.022c0.312,0.138,0.697,0.163,1.005,0.163
	c0.122,0,0.246-0.004,0.369-0.008c2.094,0.406,3.516,1.521,3.689,3.041c0.082,0.695-0.123,1.517-0.473,1.91
	c-0.855,0.961-2.84,1.135-5.214,1.342c-0.397,0.034-0.834,0.1-1.282,0.168c-0.553,0.084-1.124,0.158-1.632,0.182
	c-0.253-0.037-0.521-0.068-0.822-0.09c-0.092-0.008-0.186-0.005-0.28-0.002c-0.047-0.014-0.111-0.016-0.153-0.032
	c-0.961-0.381-1.487-0.702-1.793-1.188c0-0.002,0.001-0.003,0.001-0.005c-0.022-0.286-0.035-0.556-0.091-0.781
	c-0.01-0.025-0.02-0.045-0.03-0.07c-0.045-0.289-0.14-0.574-0.272-0.854c0.034-0.929,0.515-1.837,1.387-2.595
	C30.293,25.509,31.751,25.323,33.559,25.167z M41.816,32.331c2.102,0.43,3.803,1.411,4.549,2.625c0.42,0.683,0.53,1.407,0.327,2.153
	c-0.009,0.035-0.028,0.067-0.039,0.104c-0.081,0.164-0.151,0.332-0.21,0.508c-0.1,0.194-0.218,0.372-0.347,0.535
	c-0.015,0.01-0.022,0.021-0.038,0.03c-0.217,0.178-0.518,0.305-0.729,0.354c-0.177,0.027-0.43,0.14-0.558,0.096
	c-0.16-0.02-0.259,0.016-0.472-0.014c-0.368-0.016-0.777-0.094-1.213-0.172c-0.873-0.167-1.848-0.412-2.86-0.621
	c-0.312-0.055-0.509-0.092-0.806-0.13c-0.283-0.042-0.547-0.063-0.791-0.088c-0.5-0.053-0.965-0.09-1.375-0.151
	c-0.42-0.057-0.743-0.156-0.959-0.229c-0.182-0.122-0.359-0.241-0.532-0.356c-0.132-0.099-0.298-0.183-0.405-0.287
	c-0.249-0.203-0.422-0.396-0.545-0.621c-0.006-0.047-0.004-0.102-0.011-0.146c0-0.003-0.001-0.004-0.001-0.007
	c0.001-0.145-0.006-0.285-0.02-0.428c0.021-0.221,0.065-0.457,0.141-0.734c0.289-1.066,1.162-1.957,2.459-2.508
	c0.473-0.2,1.008-0.297,1.638-0.297C39.878,31.948,40.833,32.129,41.816,32.331z M49.707,52.902
	c-0.039,0.421-0.191,0.854-0.41,1.228c-0.111,0.095-0.229,0.19-0.355,0.3c-0.12,0.135-0.314,0.159-0.459,0.245l-0.057,0.027
	l-0.028,0.015l-0.011,0.006c0.095-0.054,0.02-0.012,0.045-0.025l-0.178,0.05c-0.119,0.034-0.241,0.067-0.366,0.104
	c-0.271,0.099-0.429,0.03-0.638,0.062c-0.176,0.021-0.48-0.001-0.721,0.002c-0.521-0.016-1.087-0.062-1.688-0.13
	c-0.61-0.072-1.241-0.147-1.883-0.224c-0.668-0.073-1.347-0.148-2.025-0.224c-0.648-0.047-1.436-0.075-2.073-0.069
	c-0.664-0.006-1.286,0-1.864-0.017c-0.557-0.03-1.111-0.062-1.47-0.17l-0.077-0.015c-0.003,0.002-0.049-0.016-0.017,0.005
	l-0.052-0.021l-0.199-0.081c-0.135-0.054-0.266-0.104-0.395-0.156c-0.265-0.1-0.436-0.19-0.658-0.276
	c-0.396-0.192-0.747-0.377-0.978-0.606c-0.118-0.111-0.22-0.231-0.295-0.363c-0.109-0.362-0.121-0.766-0.074-1.268
	c0.119-1.254,1.083-2.367,2.713-3.139c0.033-0.016,0.072-0.025,0.105-0.041c0.623,0.08,1.26,0.145,1.848,0.15
	c0.891,0.015,1.723,0.029,2.622-0.004c0.869-0.054,1.757-0.138,2.652-0.341c1.937,0.296,3.651,0.875,4.903,1.669
	C48.658,50.251,49.854,51.354,49.707,52.902z M46.35,42.955c0,0,0-0.003,0-0.004V42.955C46.35,42.947,46.35,42.95,46.35,42.955z
	 M34.107,38.927c0.236-0.321,0.398-0.671,0.512-1.014c0.045,0.06,0.088,0.116,0.131,0.181c0.145,0.188,0.285,0.329,0.436,0.504
	c0.327,0.303,0.678,0.521,1.029,0.686c-0.854,0.004-1.67,0.017-2.438,0.053C33.89,39.21,34,39.075,34.107,38.927z M46.494,40.663
	c-0.006-0.004-0.012-0.007-0.019-0.011c-0.269-0.219-0.587-0.418-0.972-0.603c0.131-0.075,0.219-0.155,0.347-0.229
	c0.157-0.104,0.282-0.215,0.396-0.327c0.041,0.545,0.174,0.948,0.45,1.321C46.628,40.764,46.562,40.701,46.494,40.663z
	 M34.307,33.979c-0.345-0.621-0.697-1.061-1.129-1.379c0.423-0.063,0.836-0.128,1.29-0.166c0.389-0.034,0.766-0.069,1.135-0.105
	C35.022,32.796,34.583,33.354,34.307,33.979z M28.906,32.18c-0.485,0.188-0.975,0.433-1.456,0.673
	c-0.01,0.005-0.021,0.01-0.031,0.015c0.143-0.209,0.285-0.42,0.408-0.624c0.103-0.198,0.192-0.406,0.275-0.608
	C28.32,31.83,28.588,32.009,28.906,32.18z M22.294,37.675c0.325-0.267,0.648-0.534,0.975-0.803c0.456-0.384,0.991-0.786,1.465-1.204
	c0.488-0.409,0.958-0.846,1.4-1.283c0.002-0.002,0.005-0.005,0.007-0.008c0.182-0.076,0.363-0.152,0.551-0.23
	c0.36-0.148,0.744-0.34,1.136-0.535c0.839-0.419,1.699-0.835,2.417-0.893c0.258,0.057,0.537,0.095,0.867,0.095
	c0.085,0,0.177-0.015,0.264-0.018c1.133,0.181,1.63,0.577,2.2,1.606c0.219,0.396,0.317,0.826,0.348,1.266
	c0,0.09,0.01,0.173,0.017,0.259c-0.075,0.32-0.196,0.662-0.392,1c-0.188,0.354-0.441,0.683-0.76,0.962
	c-0.234,0.195-0.687,0.453-1.125,0.655c-0.449,0.216-0.972,0.409-1.51,0.621l-0.38,0.146l-0.426,0.152
	c-0.297,0.112-0.5,0.158-0.765,0.237c-1.041,0.286-2.108,0.426-3.061,0.347c-0.958-0.062-1.771-0.372-2.353-0.855
	c-0.16-0.109-0.259-0.265-0.396-0.387c-0.08-0.08-0.223-0.312-0.321-0.445c-0.008-0.018-0.017-0.031-0.025-0.049
	C22.356,38.096,22.316,37.883,22.294,37.675z M28.722,45.159c0.068,0.065,0.14,0.13,0.215,0.194
	c0.402,0.445,0.932,0.879,1.575,1.232c0.6,0.336,1.279,0.655,2.022,0.877c0.538,0.18,1.112,0.319,1.701,0.438
	c-0.712,0.457-1.274,0.988-1.663,1.578c-0.07-0.229-0.152-0.455-0.257-0.676c-0.833-1.734-1.672-2.285-3.741-2.451
	c-0.144-0.011-0.29-0.004-0.437,0.012C28.411,46.001,28.61,45.591,28.722,45.159z M25.835,48.241c0.897-0.517,1.825-1.05,2.56-1.05
	l0.111,0.004c1.774,0.144,2.343,0.513,3.045,1.975c0.555,1.159,0.523,2.521-0.09,3.833c-0.156,0.333-0.371,0.624-0.628,0.892
	c-0.01,0.006-0.017,0.011-0.026,0.016c-0.214,0.121-0.466,0.232-0.74,0.348c-0.553,0.229-1.216,0.454-1.955,0.725
	c-0.36,0.127-0.731,0.259-1.109,0.393c-0.329,0.098-0.691,0.21-1.057,0.288c-1.454,0.349-2.877,0.358-3.924-0.021
	c-0.257-0.1-0.51-0.197-0.717-0.322c-0.016-0.008-0.028-0.019-0.044-0.025c-0.239-0.262-0.443-0.561-0.604-0.896
	c-0.367-0.765-0.5-1.736-0.317-2.312c0.428-1.336,2.229-2.2,4.363-3.225C25.06,48.688,25.443,48.467,25.835,48.241z M30.837,55.307
	c0.246-0.265,0.438-0.539,0.585-0.798c0.003-0.005,0.004-0.011,0.008-0.015c0.309-0.318,0.571-0.672,0.77-1.082
	c0.009,0.023,0.014,0.046,0.023,0.07c0.071,0.264,0.236,0.463,0.38,0.726c0.164,0.22,0.356,0.438,0.563,0.653
	c0.2,0.184,0.442,0.402,0.652,0.572c-1.119,0-2.189,0.008-3.173,0.062C30.709,55.434,30.778,55.37,30.837,55.307z M49.279,55.771
	c0.186-0.237,0.406-0.428,0.492-0.662c0.088-0.188,0.166-0.354,0.23-0.519c0.197-0.327,0.334-0.688,0.43-1.059
	c0.15,0.319,0.316,0.647,0.542,0.981c0.215,0.336,0.468,0.686,0.823,1.037c-0.92,0.042-1.775,0.12-2.562,0.27L49.279,55.771z
	 M48.082,48.882c-1.012-0.642-2.293-1.151-3.733-1.499l0.422-0.203l0.58-0.351c0.471-0.304,0.903-0.671,1.28-1.09
	c0.178,1.007,0.841,2.104,1.494,3.173C48.108,48.902,48.096,48.893,48.082,48.882z M47.512,41.921
	c-0.067-0.187-0.152-0.364-0.263-0.528c0.174,0.146,0.369,0.225,0.562,0.267C47.705,41.742,47.603,41.83,47.512,41.921z
	 M47.606,36.031c-0.015-0.146-0.046-0.285-0.08-0.426c0.106,0.104,0.216,0.209,0.322,0.299
	C47.767,35.941,47.685,35.979,47.606,36.031z M45.343,32.817c-0.418-0.27-0.881-0.509-1.387-0.717
	c0.496,0.006,0.969-0.018,1.389-0.155C45.257,32.211,45.27,32.493,45.343,32.817z M39.777,31.166c0.139-0.107,0.271-0.22,0.387-0.35
	c0.104-0.116,0.19-0.264,0.273-0.415c0.075,0.339,0.206,0.624,0.415,0.896C40.486,31.239,40.126,31.194,39.777,31.166z
	 M40.744,27.73c-0.088-0.327-0.225-0.635-0.402-0.924c0.291,0.099,0.617,0.131,0.888,0.131c0.002,0,0.004,0,0.007,0
	C41.039,27.178,40.876,27.444,40.744,27.73z M40.16,23.564c-0.004-0.057-0.002-0.113-0.013-0.169
	c0.041,0.039,0.081,0.079,0.125,0.118C40.236,23.532,40.196,23.543,40.16,23.564z M39.578,19.785
	c-0.156-0.138-0.326-0.275-0.513-0.419c-0.163-0.126-0.37-0.242-0.592-0.354c0.344,0.033,0.678,0.059,0.993,0.059
	c0.176,0,0.32-0.023,0.478-0.035C39.794,19.269,39.673,19.52,39.578,19.785z M28.517,20.992c-0.067-0.1-0.137-0.202-0.213-0.284
	c0.13-0.021,0.262-0.041,0.385-0.066C28.629,20.758,28.564,20.869,28.517,20.992z M28.487,23.933
	c0.157,0.329,0.395,0.617,0.748,0.927c0.142,0.124,0.302,0.194,0.461,0.243c-0.326,0.158-0.628,0.349-0.902,0.587
	c-0.761,0.661-1.276,1.428-1.52,2.24c-0.624-0.594-1.474-0.916-2.468-0.985c1.368-0.685,2.483-1.345,3.183-2.249
	C28.188,24.438,28.349,24.185,28.487,23.933z M20.23,39.202c0.471-0.281,0.897-0.599,1.316-0.927
	c0.033,0.133,0.063,0.264,0.11,0.395c0.002,0.014,0.002,0.023,0.004,0.038c0.054,0.203,0.061,0.335,0.159,0.629
	c0.037,0.081,0.075,0.167,0.114,0.253c-0.621-0.109-1.261-0.203-1.934-0.26c-0.004,0-0.008,0-0.013-0.001
	C20.066,39.284,20.156,39.251,20.23,39.202z M27.772,42.134c0.019-0.002,0.038-0.004,0.056-0.006
	c-0.005,0.015-0.014,0.029-0.018,0.044C27.798,42.159,27.785,42.146,27.772,42.134z M21.039,48.443
	c0.659,0.029,1.321,0.031,1.967,0.002c0.239-0.006,0.476-0.029,0.712-0.053c-1.446,0.7-2.719,1.373-3.504,2.266
	c-0.034-0.999-0.239-1.704-0.745-2.307C19.982,48.389,20.518,48.428,21.039,48.443z M24.951,58.043
	c-0.072,0.162-0.132,0.331-0.182,0.502c-0.044-0.18-0.098-0.354-0.171-0.512C24.716,58.037,24.833,58.045,24.951,58.043z
	 M42.833,61.201c-0.306,0.261-0.68,0.508-1.11,0.736c-0.224,0.106-0.437,0.232-0.69,0.323c-0.101,0.035-0.293,0.136-0.316,0.126
	c-0.146,0.049-0.293,0.098-0.442,0.146c-0.325,0.127-0.51,0.1-0.765,0.169c-0.284,0.024-0.567,0.083-0.875,0.101
	c-1.217,0.096-2.61,0.062-4.053,0.062l-1.054-0.013c-0.327-0.015-0.653-0.028-0.977-0.043c-0.663-0.053-1.318-0.095-1.937-0.19
	c-0.625-0.08-1.212-0.202-1.768-0.33c-0.54-0.149-1.062-0.294-1.497-0.496c-0.455-0.185-0.824-0.411-1.154-0.64
	c-0.134-0.112-0.257-0.227-0.371-0.34c-0.236-0.402-0.365-0.834-0.365-1.289c0-0.545,0.203-1.115,0.507-1.574
	c0.165-0.027,0.329-0.055,0.491-0.088c0.469-0.117,0.925-0.264,1.383-0.469c0.24-0.093,0.39-0.189,0.583-0.289l0.303-0.166
	l0.266-0.164c0.172-0.106,0.34-0.217,0.505-0.332c1.396-0.155,3.061-0.16,4.863-0.16h0.142c0.197,0,0.41-0.008,0.619-0.016
	c0.519,0.229,1.035,0.352,1.561,0.471c0.688,0.133,1.383,0.221,2.059,0.27c0.654,0.049,1.319,0.098,1.983,0.146
	c0.521,0.041,1.103,0.089,1.672,0.115c0.937,0.609,1.149,1.233,1.149,2.256c0,0.445-0.119,0.885-0.342,1.308
	C43.089,60.952,42.968,61.077,42.833,61.201z M56.347,46.312c0.287,0.543,0.518,1.08,0.714,1.608c0.062,0.37,0.12,0.783,0.167,1.229
	c0.035,0.443,0.057,0.916,0.055,1.398c0,0.485-0.076,0.979-0.164,1.455c-0.226,0.948-0.662,1.755-1.412,2.148l-0.064,0.045l0,0
	l-0.212,0.089c-0.132,0.049-0.31,0.144-0.403,0.153c-0.186,0.004-0.324,0.104-0.551,0.091c-0.102,0.003-0.212,0.021-0.309,0.021
	c-0.08-0.018-0.158-0.027-0.242-0.031l-0.063-0.002h-0.016h-0.009c0.021,0.01,0,0-0.008-0.004l-0.15-0.066
	c-0.123-0.062-0.295-0.118-0.381-0.174c-0.25-0.17-0.67-0.453-1.006-0.809c-0.34-0.344-0.658-0.712-0.961-1.048
	c-0.279-0.36-0.568-0.673-0.81-0.97c-0.009-0.012-0.019-0.021-0.026-0.032c-0.275-0.499-0.555-1.021-0.843-1.567
	c-0.223-0.422-0.498-0.871-0.778-1.332c-0.662-1.084-1.412-2.312-1.443-3.217c-0.01-0.275-0.012-0.523-0.006-0.753
	c0.135-0.295,0.25-0.606,0.303-0.972c0.02-0.207,0.004-0.354,0.008-0.529v-0.016c0-0.01,0-0.012,0.001-0.02
	c0.25-0.479,0.671-0.816,1.349-1.177c0.152-0.08,0.319-0.126,0.481-0.181c0.604,0.015,1.192,0.015,1.692-0.162
	c0.588,0.083,1.201,0.287,1.804,0.605C54.423,42.818,55.318,44.365,56.347,46.312z M51.773,39.043
	c-0.012,0.497-0.148,1.055-0.316,1.297c-0.092,0.131-0.221,0.223-0.375,0.295c-0.584-0.046-1.147,0.012-1.674,0.172
	c-0.035-0.002-0.059-0.002-0.095-0.002c-0.162,0-0.338,0.014-0.519,0.027c-0.426,0.035-0.862,0.039-1.012-0.092
	c-0.568-0.499-0.73-0.797-0.705-1.812c0.006-0.305,0.064-0.595,0.148-0.873c0.082-0.164,0.143-0.332,0.199-0.502
	c0.115-0.225,0.246-0.438,0.412-0.623c0.324-0.359,0.756-0.433,1.349-0.433l0.301,0.004c0.647,0.017,1.229,0.265,1.644,0.699
	C51.569,37.664,51.792,38.301,51.773,39.043z M47.479,31.749c0.451,0.124,0.864,0.556,1.358,1.107
	c0.604,0.675,0.959,1.436,0.929,1.986c-0.013,0.235-0.093,0.416-0.245,0.553c-0.129,0.114-0.333,0.199-0.484,0.199l-0.041-0.003
	c-0.445-0.065-1.017-0.702-1.646-1.403c-0.116-0.131-0.253-0.268-0.393-0.405c-0.285-0.283-0.64-0.636-0.715-0.878
	c-0.203-0.657-0.125-0.767,0.147-1.011c0.157-0.141,0.368-0.212,0.628-0.212C47.162,31.682,47.316,31.704,47.479,31.749z
	 M45.901,29.482c-0.013,0.546-0.172,1.088-0.317,1.297c-0.244,0.351-0.641,0.475-1.514,0.475c-0.172,0-0.35-0.004-0.632-0.01
	c-0.162,0-0.337,0.014-0.517,0.028c-0.424,0.033-0.86,0.037-1.01-0.093c-0.57-0.499-0.731-0.797-0.707-1.811
	c0.02-0.766,0.289-1.475,0.76-1.998c0.324-0.361,0.758-0.434,1.351-0.434l0.302,0.004c0.646,0.016,1.229,0.265,1.643,0.699
	C45.697,28.104,45.919,28.74,45.901,29.482z M44.608,25.315c-0.005,0.219-0.116,0.439-0.215,0.519
	c-0.278,0.221-0.869,0.25-1.41,0.25c-0.222,0-0.457-0.006-0.741-0.012l-0.123-0.002c-0.142,0-0.291,0.005-0.443,0.011
	c-0.148,0.005-0.301,0.01-0.447,0.01c-0.123,0-0.495,0-0.68-0.09c-0.619-0.303-0.646-0.434-0.637-0.8
	c0.012-0.444,0.406-0.751,0.642-0.894c0.342-0.209,0.829-0.237,1.306-0.237c0.141,0,0.284,0.003,0.432,0.006
	c0.688,0.018,1.309,0.167,1.744,0.422C44.302,24.655,44.619,24.924,44.608,25.315z M44.228,19.385
	c0.439,0.463,0.662,1.1,0.643,1.842c-0.012,0.496-0.147,1.054-0.316,1.297c-0.241,0.346-0.65,0.474-1.508,0.474
	c-0.174,0-0.355-0.004-0.635-0.01c-0.162,0-0.338,0.014-0.519,0.028c-0.425,0.035-0.862,0.038-1.011-0.092
	c-0.5-0.438-0.686-0.723-0.707-1.475c0.117-0.297,0.125-0.557,0.05-0.796c0.095-0.586,0.336-1.122,0.71-1.538
	c0.324-0.361,0.757-0.434,1.35-0.434l0.301,0.004C43.231,18.701,43.815,18.95,44.228,19.385z M37.897,15.771
	c0.914,0.131,1.949,0.279,2.517,0.53c1.418,0.631,1.381,0.838,1.332,1.125c-0.041,0.232-0.461,0.566-1.513,0.74
	c-0.914,0.152-2.217-0.035-3.834-0.317c-0.601-0.105-1.125-0.229-1.614-0.361c-0.627-0.25-1.199-0.452-1.709-0.58
	c-1.079-0.472-1.614-0.963-1.559-1.281c0.027-0.157,0.25-0.377,0.561-0.456c0.211-0.055,0.484-0.082,0.812-0.082
	c0.973,0,2.297,0.231,3.903,0.513C37.132,15.662,37.509,15.716,37.897,15.771z M27.376,10.257c0.183-0.422,1.03-0.664,2.323-0.664
	c0.905,0,2.046,0.118,3.3,0.341c1.396,0.247,2.493,1.071,3.196,1.67c0.635,0.54,0.92,1.076,0.764,1.436
	c-0.306,0.705-0.61,1.204-1.748,1.204v0.237c-0.008-0.002-0.015-0.002-0.022-0.004l-0.028-0.234
	c-0.326-0.004-0.914-0.585-1.386-1.052c-0.583-0.576-1.185-1.172-1.819-1.362c-0.911-0.274-1.799-0.352-2.583-0.421
	c-0.809-0.07-1.573-0.138-1.841-0.422C27.32,10.764,27.294,10.445,27.376,10.257z M21.461,15.599
	c-0.117-0.337-0.049-0.765,0.157-0.996c0.6-0.676,2.324-1.048,4.185-1.449c0.324-0.07,0.677-0.165,1.038-0.261
	c0.771-0.206,1.568-0.42,2.176-0.42c0.087,0,0.17,0.005,0.249,0.015c1.522,0.194,1.762,0.469,1.979,1.096
	c0.252,0.731-0.378,1.424-0.776,1.772c-0.691,0.605-1.887,0.901-3.377,1.226c-0.85,0.185-1.671,0.278-2.44,0.278
	C22.926,16.859,21.733,16.389,21.461,15.599z M20.752,18.436c0.839-0.429,2.596-0.513,4.694-0.613
	c0.349-0.016,0.734-0.046,1.128-0.077c0.593-0.047,1.207-0.096,1.735-0.096c0.345,0,0.615,0.021,0.824,0.062
	c1.522,0.305,1.532,0.515,1.545,0.806c0.011,0.236-0.326,0.654-1.312,1.054c-0.973,0.394-2.481,0.467-3.812,0.531
	c-0.318,0.015-0.63,0.022-0.934,0.022c-0.729,0-1.36-0.041-1.898-0.108c-0.076-0.034-0.146-0.071-0.233-0.103
	c-0.183-0.066-0.438-0.08-0.713-0.07c-0.976-0.233-1.46-0.568-1.473-0.841C20.297,18.844,20.466,18.582,20.752,18.436z
	 M19.329,21.252c-0.005-0.092,0.043-0.207,0.089-0.246c0.225-0.189,0.877-0.221,1.542-0.253c0.135-0.006,0.283-0.021,0.436-0.036
	c0.104-0.011,0.207-0.015,0.311-0.021c0.255,0.056,0.517,0.102,0.775,0.137c0.132,0.075,0.146,0.139,0.152,0.269
	c0.004,0.077-0.031,0.159-0.084,0.241c-0.02,0.011-0.04,0.021-0.059,0.031c-0.276,0.148-0.554,0.289-0.834,0.432
	c-0.208,0.027-0.431,0.04-0.642,0.051l-0.193,0.005C20,21.86,19.345,21.595,19.329,21.252z M17.093,26.962
	c-0.19-0.396-0.163-0.972,0.063-1.342c0.611-0.998,2.433-1.872,4.598-2.911c0.053-0.025,0.114-0.061,0.167-0.087
	c0.287-0.051,0.563-0.136,0.802-0.292c0.147-0.098,0.269-0.207,0.374-0.32c0.881-0.472,1.837-0.965,2.505-1.036
	c0.356-0.037,0.663-0.059,0.929-0.059c0.917,0,1.181,0.242,1.458,0.82c0.296,0.618,0.052,1.509-0.671,2.442
	c-0.724,0.935-2.048,1.617-3.704,2.411c-1.66,0.797-3.267,1.235-4.525,1.235C18.367,27.824,17.434,27.675,17.093,26.962z
	 M13.562,34.812c0.508-1.41,1.993-2.648,3.881-4.124c2.365-1.846,4.954-2.947,6.925-2.947c0.993,0,1.779,0.272,2.335,0.81
	c0.168,0.163,0.303,0.357,0.418,0.561c0.003,0.113,0.003,0.227,0.016,0.341c0.039,0.334,0.099,0.62,0.176,0.885
	c-0.006,0.024-0.015,0.049-0.02,0.072c-0.068,0.062-0.196,0.374-0.304,0.545c-0.125,0.134-0.254,0.274-0.389,0.419
	c-0.178,0.156-0.332,0.331-0.514,0.498c-0.383,0.334-0.815,0.662-1.271,1.014c-0.468,0.348-0.953,0.707-1.444,1.072
	c-0.502,0.375-0.994,0.734-1.525,1.162c-0.491,0.404-1.013,0.873-1.453,1.283c-0.455,0.404-0.886,0.82-1.305,1.152
	c-0.42,0.358-0.816,0.611-1.177,0.803c-0.256,0.102-0.505,0.199-0.746,0.296c-0.219,0.081-0.431,0.159-0.634,0.235
	c-0.411,0.112-0.787,0.223-1.116,0.217c-0.034,0.002-0.062-0.008-0.095-0.008c-0.445-0.108-0.84-0.352-1.306-0.802
	C13.197,37.509,13.036,36.271,13.562,34.812z M11.053,43.253c0.116-1.091,1.074-2.065,2.698-2.748
	c0.542-0.228,1.182-0.366,1.94-0.438c0.327,0.07,0.672,0.11,1.039,0.105c0.267-0.009,0.541-0.036,0.832-0.059
	c0.141-0.019,0.286-0.045,0.428-0.068c0.646,0.031,1.301,0.075,1.941,0.129c0.944,0.079,1.839,0.223,2.674,0.412
	c0.626,0.678,1.567,1.205,2.583,1.436c0.437,0.104,0.886,0.146,1.338,0.162c0.345,0.246,0.652,0.502,0.88,0.778
	c0.142,0.172,0.249,0.349,0.339,0.526c0.042,0.209,0.116,0.41,0.207,0.606c0.032,0.187,0.049,0.373,0.028,0.562
	c-0.055,0.518-0.333,1.057-0.709,1.442c-0.009,0.006-0.018,0.014-0.026,0.021c-0.149,0.069-0.308,0.146-0.474,0.225
	c-0.118,0.011-0.423,0.111-0.643,0.167c-0.204,0.014-0.416,0.028-0.635,0.045c-0.243,0.004-0.495,0.006-0.753,0.01
	c-0.531-0.017-1.094-0.062-1.69-0.117c-1.222-0.121-2.523-0.25-3.826-0.381c-0.64-0.039-1.37-0.065-2.005-0.062
	c-0.63-0.006-1.251-0.011-1.852-0.016c-0.569-0.03-1.132-0.043-1.557-0.148c-0.104-0.027-0.224-0.043-0.318-0.076
	c-0.13-0.05-0.259-0.098-0.385-0.145c-0.269-0.088-0.482-0.174-0.686-0.26c-0.422-0.168-0.76-0.362-1.04-0.562
	c-0.018-0.018-0.031-0.036-0.048-0.054C11.029,44.328,10.986,43.875,11.053,43.253z M8.008,48.749
	c0.965-1.021,2.942-1.021,5.328-1.021c0.203,0,0.417-0.01,0.638-0.021c0.392,0.12,0.787,0.206,1.189,0.277
	c0.65,0.101,1.316,0.173,1.968,0.211c0.317,0.021,0.642,0.043,0.963,0.063c1.021,0.706,1.285,1.331,1.285,2.711
	c0,1.286-0.618,2.499-1.739,3.417c-0.284,0.232-0.604,0.402-0.953,0.532c-0.01,0-0.018,0.001-0.029,0.002
	c-0.245,0.017-0.521,0.009-0.818-0.007c-0.597-0.032-1.292-0.117-2.076-0.193c-0.379-0.041-0.771-0.082-1.169-0.126
	c-0.339-0.055-0.715-0.108-1.079-0.196c-1.461-0.314-2.75-0.92-3.53-1.715c-0.189-0.201-0.375-0.397-0.507-0.601
	c-0.007-0.009-0.011-0.019-0.018-0.026c-0.106-0.344-0.168-0.705-0.168-1.086C7.293,50.134,7.601,49.18,8.008,48.749z M2.91,57.376
	c1.463-0.86,4.038-1.043,7.122-1.083c0.327,0.123,0.66,0.229,0.997,0.309c0.473,0.1,0.947,0.164,1.449,0.178
	c0.257,0.02,0.434-0.004,0.651-0.01l0.345-0.02l0.311-0.032c0.823-0.09,1.631-0.256,2.299-0.524
	c0.014-0.006,0.024-0.012,0.038-0.018c0.499-0.018,0.996-0.031,1.478-0.031c1.347,0,2.287,0.102,2.956,0.318
	c0.259,0.084,0.493,0.164,0.716,0.244c0.006,0.006,0.011,0.013,0.017,0.02c0.521,0.523,1.313,0.959,2.207,1.162
	c0.434,0.444,0.551,0.949,0.551,1.635c0,0.494-0.197,0.987-0.555,1.463c-0.14,0.121-0.289,0.24-0.463,0.357
	c-0.199,0.131-0.405,0.266-0.655,0.375c-0.232,0.125-0.488,0.242-0.762,0.352c-0.26,0.125-0.573,0.199-0.867,0.307
	c-0.214,0.041-0.657,0.189-0.962,0.25c-0.586,0.089-1.286,0.169-2.037,0.201c-1.488,0.077-3.144,0.038-4.835,0.036l-1.247-0.011
	c-0.396-0.013-0.79-0.024-1.182-0.039c-0.795-0.047-1.58-0.086-2.33-0.17C7.4,62.566,6.676,62.48,6.003,62.354
	c-0.673-0.133-1.298-0.28-1.864-0.453c-0.543-0.197-1.063-0.379-1.454-0.625c-0.197-0.111-0.368-0.231-0.52-0.354
	c-0.347-0.435-0.538-0.901-0.538-1.397C1.625,58.716,2.166,57.812,2.91,57.376z"/>
</svg>
