<?xml version="1.0" encoding="utf-8"?>
<!-- Generator: Adobe Illustrator 16.0.0, SVG Export Plug-In . SVG Version: 6.00 Build 0)  -->
<!DOCTYPE svg PUBLIC "-//W3C//DTD SVG 1.1//EN" "http://www.w3.org/Graphics/SVG/1.1/DTD/svg11.dtd">
<svg version="1.1" id="Layer_1" xmlns="http://www.w3.org/2000/svg" xmlns:xlink="http://www.w3.org/1999/xlink" x="0px" y="0px"
	 width="65.8px" height="65.801px" viewBox="0 0 65.8 65.801" enable-background="new 0 0 65.8 65.801" xml:space="preserve">
<path fill="none" d="M33.344,21.39c7.408,0,10.861-5.776,10.861-9.68h-3c0,4.358-4.564,6.68-7.861,6.68
	c-3.264,0-7.86-2.072-7.86-6.68h-3C22.484,18.387,28.834,21.39,33.344,21.39z"/>
<path fill="none" d="M42.854,31.257c1.901-2.103,2.356-4.382,2.386-4.543l-1.476-0.269l0.539,0.061l1.075-9.614
	c0.756-1.35,1.193-2.744,1.193-4.048c0-3.761-2.355-6.747-4.633-7.462L41.845,5.68c-1.912-3.262-5.565-4.782-8.409-4.782
	c-2.216,0-4.89,1.017-6.874,2.966l-0.078-0.409c-2.802,0.536-7.793,3.87-7.211,9.492c0.106,1.026,0.432,2.024,0.907,2.979
	l-0.137,0.004l0.258,9.254l1-0.028l-1.397,0.547c0.411,1.049,0.921,2.018,1.517,2.904l-0.335,0.048l1.577,10.991l0.1,0.17
	c0.867,1.476,2.293,2.697,4.038,3.572l-6.972,19.815l1.887,0.664l6.938-19.72c0.261,0.084,0.53,0.151,0.801,0.222l-3.179,19.793
	l2.962,0.478l3.186-19.839c0.182,0.009,0.367,0.025,0.546,0.025c1.501,0,2.914-0.261,4.199-0.734l6.897,19.609l0.942-0.332
	l-6.92-19.67c1.185-0.57,2.231-1.341,3.074-2.314l-0.756-0.653l0.53,0.105L42.854,31.257z M24.767,6.295
	c-0.646,1.258-1.041,2.724-1.041,4.4h1.007c0-2.085,0.673-3.811,1.698-5.17c0.149-0.045,0.293-0.08,0.429-0.106L26.796,5.08
	c1.805-2.086,4.468-3.177,6.64-3.177c2.788,0,6.444,1.632,7.976,5.159L41.339,7.29c0.065,0.021,0.137,0.063,0.205,0.093
	c0.373,0.969,0.596,2.066,0.596,3.312h1.007c0-0.819-0.086-1.582-0.241-2.293c0.903,0.996,1.666,2.555,1.666,4.441
	c0,4.674-6.376,9.245-11.135,9.245c-4.893,0-11.675-4.533-12.174-9.348C20.946,9.677,22.874,7.459,24.767,6.295z M22.122,18.708
	c2.908,3.187,7.495,5.381,11.315,5.381c4.248,0,8.201-2.352,10.639-5.309l-0.846,7.567l-0.941-0.171
	c-0.009,0.047-0.906,4.639-6.498,5.499c-6.007,0.927-11.024-1.783-13.092-7.068l-0.408,0.16L22.122,18.708z M29.319,42.256
	l0.873-2.48l-0.42,2.615C29.619,42.35,29.469,42.303,29.319,42.256z M39.651,40.077c-0.612,0.71-1.371,1.282-2.228,1.726
	l-1.719-4.887l-0.943,0.332l1.744,4.958c-1.133,0.423-2.404,0.628-3.762,0.604l1.098-6.832l-2.962-0.478l-0.283,1.763l-1.459-0.515
	l-1.667,4.739c-1.235-0.658-2.246-1.524-2.883-2.526l-1.145-7.974c2.631,2.479,6.162,3.862,10.103,3.862
	c0.883,0,1.787-0.068,2.703-0.211c2.272-0.35,3.971-1.166,5.254-2.144l-1.563,7.827L39.651,40.077z"/>
</svg>
