<?xml version="1.0" encoding="utf-8"?>
<!-- Generator: Adobe Illustrator 16.0.0, SVG Export Plug-In . SVG Version: 6.00 Build 0)  -->
<!DOCTYPE svg PUBLIC "-//W3C//DTD SVG 1.1//EN" "http://www.w3.org/Graphics/SVG/1.1/DTD/svg11.dtd">
<svg version="1.1" id="Layer_1" xmlns="http://www.w3.org/2000/svg" xmlns:xlink="http://www.w3.org/1999/xlink" x="0px" y="0px"
	 width="65.8px" height="65.801px" viewBox="0 0 65.8 65.801" enable-background="new 0 0 65.8 65.801" xml:space="preserve">
<g id="New_Symbol_11">
	<g>
		<g>
			<path fill="none" stroke="#FFFFFF" stroke-width="0.8004" stroke-miterlimit="10" d="M45.996,32.01
				c2.073-0.781,5.631-2.4,7.166-3.58c3.67-2.82,6.299-5.541,9.256-8.738c6.09-6.592-0.984-14.918-8.229-15.735
				c-5.976-0.677-9.661,2.635-17.11,10.059c-4.984,4.966-9.921,11.393-1.477,15.382c1.938,0.916,4.889,2.459,7.525,2.828"/>
			<path fill="none" stroke="#FFFFFF" stroke-width="0.8004" stroke-miterlimit="10" d="M46.237,28.717
				c2.091-0.85,4.993-2.221,6.337-3.256c3.672-2.82,3.305-2.16,6.26-5.359c6.09-6.59-0.983-14.918-8.229-15.735"/>
			<path fill="none" stroke="#FFFFFF" stroke-width="0.8004" stroke-miterlimit="10" d="M35.016,26.428
				c2.019,0.953,5.139,2.588,7.856,2.867"/>
			<path fill="none" stroke="#FFFFFF" stroke-width="3" stroke-miterlimit="10" d="M37.093,28.717
				c-8.442-3.99-2.471-9.529,2.184-15.129C45.998,5.5,54.638,3.311,59.746,7.365"/>
			<path fill="none" stroke="#FFFFFF" stroke-width="0.8004" stroke-miterlimit="10" d="M35.455,21.321
				c-5.39-2.571-9.844-3.84-12.291-4.521c-3.197-0.889-6.798-1.064-8.085-0.305c-3.329,1.969-4.598,4.637-6.308,8.287
				c-3.966,8.469,4.6,13.932,11.321,15.6c4.978,1.236,13,2.973,17.783,2.969c5.112-0.004,5.957-2.439,7.357-6.799
				C48.851,25.293,43.341,25.365,35.455,21.321z"/>
			<path fill="none" stroke="#FFFFFF" stroke-width="0.8004" stroke-miterlimit="10" d="M42.085,38.307
				c3.617-11.255-1.892-11.185-9.781-15.228c-5.389-2.572-10.234-3.851-12.764-4.093c-3.329-0.317-6.036,2.224-7.635,5.343
				c-1.026,2.002-1.277,3.342-1.73,4.623"/>
			<path fill="none" stroke="#FFFFFF" stroke-width="3" stroke-miterlimit="10" d="M43.593,36.264
				c-1.4,4.359-2.715,7.062-7.783,6.404c-2.691-0.35-13.56-1.951-17.444-3.723c-5.388-2.457-9.146-6.818-9.146-6.818"/>
			<path fill="none" stroke="#FFFFFF" stroke-width="0.8004" stroke-miterlimit="10" d="M3.468,33.299
				c3.838-3.65,10.363-6.828,13.535-4.299c2.37,1.891,5.202,7.884,7.019,10.478c3.783,5.402,7.736,19.301-0.775,21.002
				c-3.929,0.785-9.112,2.605-12.563,0.396C2.28,55.502-1.892,40.637,3.468,33.299z"/>
			<path fill="none" stroke="#FFFFFF" stroke-width="3" stroke-miterlimit="10" d="M12.462,61.789
				c-8.403-5.375-13.096-20.32-7.735-27.658c2.786-2.65,7.51-4.97,10.817-5.121"/>
			<path fill="none" stroke="#FFFFFF" stroke-width="0.8004" stroke-miterlimit="10" d="M14.696,29.99
				c2.371,1.892,9.243,16.659,10.421,19.598c1.384,3.451,0.086,6.852-2.322,7.758c-3.75,1.412-9.869,3.713-13.321,1.506"/>
		</g>
	</g>
</g>
</svg>
