<?xml version="1.0" encoding="utf-8"?>
<!-- Generator: Adobe Illustrator 16.0.0, SVG Export Plug-In . SVG Version: 6.00 Build 0)  -->
<!DOCTYPE svg PUBLIC "-//W3C//DTD SVG 1.1//EN" "http://www.w3.org/Graphics/SVG/1.1/DTD/svg11.dtd">
<svg version="1.1" id="Layer_1" xmlns="http://www.w3.org/2000/svg" xmlns:xlink="http://www.w3.org/1999/xlink" x="0px" y="0px"
	 width="65.8px" height="65.801px" viewBox="0 0 65.8 65.801" enable-background="new 0 0 65.8 65.801" xml:space="preserve">
<g id="New_Symbol_29">
	<g>
		<polyline fill="none" stroke="#FFFFFF" stroke-width="3" stroke-linejoin="round" stroke-miterlimit="10" points="48.399,51.213 
			55.119,53.115 54.83,51.224 		"/>
		<path fill="none" stroke="#FFFFFF" stroke-width="0.753" stroke-linejoin="round" stroke-miterlimit="10" d="M26.03,36.001
			c0,0,11.472,2.112,17.946,2.545c1.465,0.098,11.095,1.141,12.104,1.879c1.085,0.793,1.726,2.82,2.101,4.11
			c0.352,1.205,0.463,3.679,0.463,3.679l-10.245,2.999l6.72,1.901l-0.289-1.892l-2.596-0.865"/>
		<path fill="none" stroke="#FFFFFF" stroke-width="0.753" stroke-linejoin="round" stroke-miterlimit="10" d="M14.583,48.214
			c0,0-2.825-1.259-3.505-2.003c-1.695-1.854-3.922-10.188-3.922-10.188l3.812,0.46l9.354,1.627"/>
		<path fill="none" stroke="#FFFFFF" stroke-width="3" stroke-miterlimit="10" d="M14.583,48.214c0,0-2.825-1.259-3.505-2.003
			c-1.695-1.854-3.922-10.188-3.922-10.188"/>
		<path fill="none" stroke="#FFFFFF" stroke-width="0.753" stroke-miterlimit="10" d="M7.156,36.023c0,0,4.23,5.25,5.924,7.104
			c0.682,0.745,3.505,0.925,3.505,0.925"/>
		<polyline fill="none" stroke="#FFFFFF" stroke-width="3" stroke-miterlimit="10" points="13.201,47.425 10.476,53.887 
			9.439,63.068 		"/>
		
			<line fill="none" stroke="#FFFFFF" stroke-width="0.753" stroke-miterlimit="10" x1="13.029" y1="54.998" x2="13.298" y2="63.546"/>
		<path fill="#FFFFFF" d="M53.048,42.209c-0.377,0.024-0.908,0.761-1.002,1.126c-0.133,0.531,0.045,1.829,0.502,2.128
			c0.426,0.278,1.678,0.021,2.002-0.371c0.252-0.305,0.164-1.223,0-1.582C54.343,43.057,53.544,42.175,53.048,42.209z"/>
		<g>
			<polyline fill="none" stroke="#FFFFFF" stroke-width="0.753" stroke-linejoin="round" stroke-miterlimit="10" points="
				27.402,36.115 10.48,1.776 9.913,1.601 19.256,37.044 			"/>
			
				<line fill="none" stroke="#FFFFFF" stroke-width="3" stroke-linejoin="round" stroke-miterlimit="10" x1="9.913" y1="1.601" x2="19.425" y2="37.954"/>
			
				<line fill="none" stroke="#FFFFFF" stroke-width="3" stroke-linejoin="round" stroke-miterlimit="10" x1="21.771" y1="27.624" x2="17.986" y2="32.225"/>
			
				<line fill="none" stroke="#FFFFFF" stroke-width="3" stroke-linejoin="round" stroke-miterlimit="10" x1="18.436" y1="21.69" x2="16.038" y2="24.838"/>
			
				<line fill="none" stroke="#FFFFFF" stroke-width="2" stroke-linejoin="round" stroke-miterlimit="10" x1="15.902" y1="15.62" x2="14.222" y2="17.953"/>
			
				<line fill="none" stroke="#FFFFFF" stroke-width="0.753" stroke-linejoin="round" stroke-miterlimit="10" x1="13.804" y1="10.15" x2="12.585" y2="11.739"/>
		</g>
		<path fill="none" stroke="#FFFFFF" stroke-width="0.753" stroke-linejoin="round" stroke-miterlimit="10" d="M52.773,55.742
			c-3.809,0.27-8.189-0.097-12.436,0.29c-1.152,0.26-3.525,1.987-4.603,2.476c-0.549,0.247-5.838,0.606-6.188,0.504
			c-1.219-0.354-3.53-1.396-3.53-1.396"/>
		<path fill="none" stroke="#FFFFFF" stroke-width="0.753" stroke-linejoin="round" stroke-miterlimit="10" d="M46.802,55.845
			c-1.145,0.501-5.859,1.132-6.433,1.404c-0.553,0.265-3.676,2.208-4.183,2.523C35.164,60.411,36,62.6,36,63.881"/>
		
			<line fill="none" stroke="#FFFFFF" stroke-width="3" stroke-linejoin="round" stroke-miterlimit="10" x1="33.729" y1="58.793" x2="34.161" y2="64.202"/>
		<g>
			<path fill="#FFFFFF" d="M28.526,42.966V40.87c0-0.149,0.03-0.258,0.089-0.32c0.058-0.063,0.134-0.096,0.226-0.096
				c0.088,0,0.161,0.031,0.219,0.096c0.058,0.062,0.087,0.17,0.087,0.32v2.097l1.994-0.649c0.092-0.03,0.162-0.045,0.212-0.045
				c0.078,0,0.145,0.03,0.204,0.092c0.058,0.062,0.087,0.133,0.087,0.215c0,0.072-0.021,0.137-0.062,0.189
				c-0.041,0.053-0.125,0.101-0.252,0.139l-1.994,0.65l1.234,1.694c0.078,0.11,0.117,0.198,0.117,0.263
				c0,0.087-0.03,0.162-0.09,0.222c-0.062,0.062-0.133,0.092-0.216,0.092c-0.106,0-0.212-0.069-0.314-0.212l-1.234-1.701
				L27.6,45.616c-0.102,0.143-0.205,0.212-0.307,0.212c-0.087,0-0.163-0.029-0.224-0.092c-0.06-0.06-0.09-0.135-0.09-0.222
				c0-0.063,0.041-0.151,0.124-0.263l1.233-1.694l-2-0.657c-0.122-0.039-0.204-0.084-0.245-0.135
				c-0.041-0.052-0.062-0.114-0.062-0.188c0-0.082,0.029-0.153,0.087-0.215c0.059-0.062,0.124-0.092,0.197-0.092
				c0.054,0,0.126,0.015,0.219,0.044L28.526,42.966z"/>
		</g>
	</g>
	<polyline fill="none" stroke="#FFFFFF" stroke-width="0.753" stroke-linejoin="round" stroke-miterlimit="10" points="
		12.441,36.739 11.257,33.156 13.964,34.13 18.888,34.898 	"/>
	<polyline fill="none" stroke="#FFFFFF" stroke-width="0.753" stroke-linejoin="round" stroke-miterlimit="10" points="
		11.257,33.925 13.964,34.898 18.888,35.667 	"/>
	<line fill="none" stroke="#FFFFFF" stroke-width="3" stroke-miterlimit="10" x1="10.968" y1="36.483" x2="11.257" y2="33.156"/>
</g>
</svg>
