<?xml version="1.0" encoding="utf-8"?>
<!-- Generator: Adobe Illustrator 16.0.0, SVG Export Plug-In . SVG Version: 6.00 Build 0)  -->
<!DOCTYPE svg PUBLIC "-//W3C//DTD SVG 1.1//EN" "http://www.w3.org/Graphics/SVG/1.1/DTD/svg11.dtd">
<svg version="1.1" id="Layer_1" xmlns="http://www.w3.org/2000/svg" xmlns:xlink="http://www.w3.org/1999/xlink" x="0px" y="0px"
	 width="65.8px" height="65.801px" viewBox="0 0 65.8 65.801" enable-background="new 0 0 65.8 65.801" xml:space="preserve">
<g>
	<g>
		<g>
			<path fill="none" stroke="#FFFFFF" stroke-width="1.084" stroke-miterlimit="10" d="M35.817,14.55
				c0.187-2.774-0.108-5.896-2.007-7.995c-0.211-0.23,0.128-0.371-0.102-0.592c-3.104-3.025-8.306-5.158-11.143-5.158
				c-2.807,0-5.85,1.206-7.906,3.083c-0.303,0.276-0.1,0.604-0.381,0.905c-2.838,3.045-4.516,7.29-4.273,10.727"/>
			<path fill="none" stroke="#FFFFFF" stroke-miterlimit="10" d="M33.708,5.963c-2.672-1.832-6.314,0.49-5.186,3.774
				c1.128,3.288,2.557,4.828,4.568,5.34c1.516,0.385,3.261-0.387,3.261-0.871"/>
			<path fill="none" stroke="#FFFFFF" stroke-width="1.084" stroke-miterlimit="10" d="M9.578,15.385
				c0,7.395,7.464,12.8,13.606,12.939c7.394,0,13.282-8.106,13.17-14.118"/>
			<path fill="none" stroke="#FFFFFF" stroke-width="1.084" stroke-miterlimit="10" d="M14.661,3.888
				c4.508,0.195,6.058,2.46,6.058,4.669c0,2.21,0.206,3.232-2.259,5.288c-2.465,2.056-5.906,2.57-7.394,2.056
				c-0.553-0.23-1.489-0.516-1.489-0.516"/>
		</g>
		<path fill="none" stroke="#FFFFFF" stroke-width="2" stroke-miterlimit="10" d="M11.461,8.064
			C5.374,8.187,1.056,11.281,1.156,13.281c0.154,3.081,5.726,6.532,10.166,7.856c8.78,2.618,20.333,1.694,27.11-0.771
			c3.389-1.232,5.967-4.036,5.545-6.623c-0.284-1.75-4.052-3.952-9.177-5.188"/>
		<path fill="none" stroke="#FFFFFF" stroke-miterlimit="10" d="M9.974,11.51c-6.087,0.123-7.883,2.116-7.783,4.116
			c0.154,3.081,4.537,5.574,8.978,6.896c8.78,2.619,20.178,2.003,26.956-0.462c3.391-1.231,6.275-3.266,5.854-5.854
			c-0.284-1.749-2.812-2.851-7.937-4.084"/>
		<path fill="none" stroke="#FFFFFF" stroke-miterlimit="10" d="M19.795,22.062c-1.569-1.251-0.106-4.33,1.332-4.638
			c1.438-0.31,3.187-0.284,5.137,0.84c1.13,1.438,1.643,4.723,0,5.441C24.622,24.425,22.869,24.514,19.795,22.062z"/>
	</g>
</g>
<g>
	<path fill="none" stroke="#FFFFFF" stroke-width="0.755" stroke-miterlimit="10" d="M55.664,39.191
		c-7.21,6.055-13.026,29.834-26.605,23.168c-3.356-2.137-2.284-8.305-0.118-11.088c6.628-7.908,17.668-14.197,26.475-16.244"/>
	<path fill="none" stroke="#FFFFFF" stroke-width="2" stroke-miterlimit="10" d="M55.664,39.191
		c-8.347,5.609-13.026,29.834-26.605,23.168"/>
	<path fill="none" stroke="#FFFFFF" stroke-width="0.755" stroke-miterlimit="10" d="M65.8,30.041
		c-0.688,1.292-4.334,4.551-6.567,7.262c-0.546,0.662-0.577,1.623,0.438,1.955c-1.033,1.254-3.781,3.006-6.567,6.086
		c-0.454,0.504-3.442,3.629-0.518,3.162c-2.71,3.023-6.434,4.662-8.537,7.354c-0.649,0.83-0.076,1.604,0.922,1.885
		c-0.979,1.225-1.83,2.221-2.685,2.887c-2.902,2.26-8.156,5.473-13.51,3.182c-2.864-1.762-4.572-5.107-3.124-10.283
		c0.547-1.953,1.728-5.262,3.44-6.896c0.575,2.137,5.53-3.645,8.624-7.928c-0.517,2.242-0.389,3.592,0.95,2.797
		c2.658-1.576,7.621-5.834,10.665-7.229c-0.825,1.334,0.075,1.83,1.073,1.4C57.879,32.457,64.766,30.191,65.8,30.041"/>
</g>
<path fill="none" stroke="#FFFFFF" stroke-width="0.755" stroke-miterlimit="10" d="M46.482,47.732
	c2.44-4.027,4.628-7.973,6.252-9.598"/>
<path fill="none" stroke="#FFFFFF" stroke-width="0.755" stroke-miterlimit="10" d="M31.067,59.135
	c2.167-0.166,7.255,0.168,11.294-5.166c1.055-1.393,2.096-2.969,3.103-4.58"/>
<path fill="none" stroke="#FFFFFF" stroke-width="2" stroke-miterlimit="10" d="M42.361,53.969c1.055-1.393,4.121-5.818,8.289-4.918
	"/>
<path fill="none" stroke="#FFFFFF" stroke-width="2" stroke-miterlimit="10" d="M30.65,60.51c1.906,0.545,5.089,0.717,8.235-1.271"
	/>
<path fill="none" stroke="#FFFFFF" stroke-width="0.755" stroke-miterlimit="10" d="M29.734,55.469c1.166-2.5,2.499-6.5,7.666-9
	s8.667-4,10.167-5"/>
<path fill="none" stroke="#FFFFFF" stroke-width="0.75" stroke-miterlimit="10" d="M45.19,52.16
	c1.642-1.264,4.239-1.982,3.834-1.941"/>
<path fill="none" stroke="#FFFFFF" stroke-width="0.75" stroke-miterlimit="10" d="M45.464,48.801
	c1.642-1.264,5.591-1.207,5.186-1.166"/>
<path fill="none" stroke="#FFFFFF" stroke-width="2" stroke-miterlimit="10" d="M37.4,46.469c1.143-0.551,3.889-2.25,3.889-4.25"/>
</svg>
