<?xml version="1.0" encoding="utf-8"?>
<!-- Generator: Adobe Illustrator 16.0.0, SVG Export Plug-In . SVG Version: 6.00 Build 0)  -->
<!DOCTYPE svg PUBLIC "-//W3C//DTD SVG 1.1//EN" "http://www.w3.org/Graphics/SVG/1.1/DTD/svg11.dtd">
<svg version="1.1" id="Layer_1" xmlns="http://www.w3.org/2000/svg" xmlns:xlink="http://www.w3.org/1999/xlink" x="0px" y="0px"
	 width="65.8px" height="65.801px" viewBox="0 0 65.8 65.801" enable-background="new 0 0 65.8 65.801" xml:space="preserve">
<g id="New_Symbol_27">
	<g>
		<path fill="none" stroke="#FFFFFF" stroke-width="0.7532" stroke-miterlimit="10" d="M24.66,27.718c0-0.98,0.751-1.222,1.456-1.43
			c2.134-0.631,3.577-0.838,7.1-0.838c3.647,0,4.4,0.031,6.877,0.838c0.561,0.184,0.982,0.802,1.008,1.515
			c0.023,0.712,0.49,3.995,0.49,3.995s-4.467,1.359-9,1.359c-4.532,0-8.732-1.358-8.732-1.358S24.66,28.697,24.66,27.718z"/>
		<path fill="none" stroke="#FFFFFF" stroke-width="3" stroke-miterlimit="10" d="M22.726,32.932c0,0,5.333,1.358,9.866,1.358
			s9-1.358,9-1.358"/>
		<path fill="none" stroke="#FFFFFF" stroke-width="0.7532" stroke-miterlimit="10" d="M35.617,18.845
			c-0.092,0.991-0.175,2-0.193,2.554c-0.033,1.012,0.082,4.053,0.082,4.053"/>
		<path fill="#FFFFFF" stroke="#FFFFFF" stroke-width="0.7532" stroke-miterlimit="10" d="M29.645,18.402
			c0.13-1.248,0.266-2.41,0.266-2.41s0.194-1.177,0.575-1.233c0.695-0.105,0.874-0.254,2.74-0.254c1.965,0,1.273,0.206,2.078,0.338
			c0.379,0.061,0.589,1.238,0.589,1.238s-0.146,1.364-0.275,2.765"/>
		<path fill="none" stroke="#FFFFFF" stroke-width="0.7532" stroke-miterlimit="10" d="M29.41,25.715c0,0-0.058-3.522,0-4.695
			c0.027-0.561,0.129-1.617,0.234-2.617"/>
		<path fill="none" stroke="#FFFFFF" stroke-width="0.7532" stroke-miterlimit="10" d="M23.893,31.293c0,0-0.611,0.003-1.167,0.505
			c-1.53,1.382-2.578,2.604-2.578,5.804s0,13.73,0,17.287c0,3.555,1.098,10.276,13.688,10.311
			c10.354,0.028,11.727-5.381,11.815-9.645c0.022-1.104-0.556-1.547-0.565-3.043c-0.004-0.354,0.522-0.031,0.519-0.426
			c-0.009-0.834-0.479-2.584-0.496-3.536c-0.006-0.418,0.504,0.003,0.496-0.426c-0.019-0.985-0.608-2.768-0.638-3.754
			c-0.008-0.311,0.543,0.058,0.531-0.248c-0.029-0.89-0.418-3.204-0.457-4.004c-0.017-0.343,0.512,0,0.493-0.315
			c-0.09-1.538-0.421-2.502-0.565-3.09c-0.719-2.915-1.435-4.707-2.207-5.158c-0.516-0.3-0.654-0.359-1.189-0.262"/>
		<path fill="none" stroke="#FFFFFF" stroke-width="3" stroke-miterlimit="10" d="M23.659,32.711
			c-0.433,0.903-1.604,2.557-1.604,4.155c0,3.199-0.096,13.822-0.096,17.377c0,3.556,1.554,9.788,14.145,9.822"/>
		<path fill="none" stroke="#FFFFFF" stroke-width="0.7532" stroke-miterlimit="10" d="M31.082,14.977
			c0.574-1.926,0.699-8.896,0.133-14.375"/>
		<path fill="none" stroke="#FFFFFF" stroke-width="0.7532" stroke-miterlimit="10" d="M33.859,0.602
			c1.134,8.121,0.579,11.391,0.51,14.375"/>
	</g>
	<path fill="none" stroke="#FFFFFF" stroke-width="0.7532" stroke-miterlimit="10" d="M29.902,18.487
		c0.695-0.104,0.873-0.253,2.74-0.253c1.965,0,1.887,0.205,2.691,0.337"/>
	<path fill="none" stroke="#FFFFFF" stroke-width="1.3" stroke-linecap="round" stroke-miterlimit="10" d="M22.301,39.908
		c6.092,1.984,10.509,2.863,15.729,1.73"/>
	<path fill="none" stroke="#FFFFFF" stroke-width="1.3" stroke-linecap="round" stroke-miterlimit="10" d="M22.301,43.662
		c6.091,1.914,10.508,2.863,15.729,1.73"/>
	<path fill="none" stroke="#FFFFFF" stroke-width="1.3" stroke-linecap="round" stroke-miterlimit="10" d="M22.301,47.416
		c5.998,1.845,10.508,2.863,15.729,1.73"/>
	<path fill="none" stroke="#FFFFFF" stroke-width="1.3" stroke-linecap="round" stroke-miterlimit="10" d="M22.301,51.171
		c6.281,2.116,10.508,2.861,15.729,1.729"/>
	<path fill="none" stroke="#FFFFFF" stroke-width="1.3" stroke-linecap="round" stroke-miterlimit="10" d="M22.301,54.925
		c5.808,2.116,10.508,2.862,15.729,1.729"/>
</g>
</svg>
