<?xml version="1.0" encoding="utf-8"?>
<!-- Generator: Adobe Illustrator 16.0.0, SVG Export Plug-In . SVG Version: 6.00 Build 0)  -->
<!DOCTYPE svg PUBLIC "-//W3C//DTD SVG 1.1//EN" "http://www.w3.org/Graphics/SVG/1.1/DTD/svg11.dtd">
<svg version="1.1" id="Layer_1" xmlns="http://www.w3.org/2000/svg" xmlns:xlink="http://www.w3.org/1999/xlink" x="0px" y="0px"
	 width="65.8px" height="65.801px" viewBox="0 0 65.8 65.801" enable-background="new 0 0 65.8 65.801" xml:space="preserve">
<g id="New_Symbol_5">
	<g>
		<g>
			<path fill="none" stroke="#FFFFFF" stroke-width="0.755" stroke-miterlimit="10" d="M26.047,63.085
				c5.373,2.632,12.041-0.781,13.646-4.055"/>
			<path fill="none" stroke="#FFFFFF" stroke-width="0.755" stroke-miterlimit="10" d="M40.231,58.024
				c2.405-4.909-1.684-11.48-5.263-13.236"/>
			<path fill="none" stroke="#FFFFFF" stroke-width="0.755" stroke-miterlimit="10" d="M34.557,44.59
				c-5.372-2.632-12.041,0.777-13.646,4.056"/>
			<path fill="none" stroke="#FFFFFF" stroke-width="0.755" stroke-miterlimit="10" d="M20.375,49.647
				c-2.407,4.909,1.681,11.483,5.261,13.236"/>
		</g>
		<path fill="none" stroke="#FFFFFF" stroke-width="0.755" stroke-miterlimit="10" d="M62.233,52.582
			c-6.723,6.542-25.372,12.229-30.779,11.367"/>
		<path fill="none" stroke="#FFFFFF" stroke-width="0.755" stroke-miterlimit="10" d="M60.93,51.158
			c-6.723,6.551-26.686,13.513-35.366,11.066"/>
		<path fill="none" stroke="#FFFFFF" stroke-width="3" stroke-miterlimit="10" d="M60.109,33.239
			c-4.081,2.59-12.94,7.037-13.328,11.417c4.941-0.038,10.997-1.643,16.64-2.391c-0.954,4.1-9.788,9.031-11.138,10.596
			c2.564-0.242,6.003,0.365,9.95-0.278"/>
		<path fill="none" stroke="#FFFFFF" stroke-width="1.5707" stroke-miterlimit="10" d="M26.627,43.855
			c2.115-0.945,9.168-3.391,8.509-1.74c-0.407,1.027-1.396,2.614-1.477,3.492c1.292-0.011,4.62,0.369,6.437,1.696
			c0,0-1.976,2.959-1.54,4.575c0,0,4.261,3.141,4.69,3.818c-0.506,2.151-8.31,4.697-8.278,6.484"/>
		<path fill="none" stroke="#FFFFFF" stroke-width="0.755" stroke-miterlimit="10" d="M23.596,45.794
			c8.977-6.521,34.244-15.098,36.513-12.556"/>
	</g>
	<g>
		<g>
			<g>
				<path fill="none" stroke="#FFFFFF" stroke-width="1.084" stroke-miterlimit="10" d="M35.737,15.305
					c0.181-2.699-0.106-5.736-1.952-7.778C33.58,7.302,33.91,7.165,33.687,6.95c-3.02-2.942-8.08-5.018-10.84-5.018
					c-2.731,0-5.691,1.173-7.692,2.999C14.86,5.2,15.057,5.52,14.784,5.812c-2.761,2.962-4.393,7.093-4.157,10.436"/>
				<path fill="none" stroke="#FFFFFF" stroke-miterlimit="10" d="M33.687,6.95c-2.6-1.781-6.144,0.479-5.044,3.674
					c1.098,3.198,2.488,4.697,4.445,5.193c1.474,0.375,3.171-0.375,3.171-0.848"/>
				<path fill="none" stroke="#FFFFFF" stroke-width="1.084" stroke-miterlimit="10" d="M10.21,16.117
					c0,7.194,7.261,12.452,13.236,12.589c7.194,0,12.923-7.887,12.813-13.735"/>
				<path fill="none" stroke="#FFFFFF" stroke-width="1.084" stroke-miterlimit="10" d="M15.155,4.932
					c4.386,0.189,5.894,2.394,5.894,4.542c0,2.149,0.2,3.146-2.197,5.146c-2.398,1.999-5.746,2.5-7.193,1.999
					c-0.537-0.225-1.448-0.501-1.448-0.501"/>
			</g>
			<path fill="none" stroke="#FFFFFF" stroke-width="2" stroke-miterlimit="10" d="M12.042,8.994
				C6.121,9.114,1.92,12.125,2.017,14.07c0.15,2.998,5.57,6.355,9.89,7.645c8.542,2.547,19.782,1.647,26.375-0.75
				c3.295-1.198,5.805-3.927,5.396-6.443c-0.276-1.702-3.941-3.845-8.929-5.047"/>
			<path fill="none" stroke="#FFFFFF" stroke-miterlimit="10" d="M10.596,12.347c-5.922,0.12-7.669,2.06-7.572,4.005
				c0.15,2.997,4.414,5.423,8.734,6.711c8.542,2.548,19.631,1.948,26.225-0.45c3.297-1.198,6.104-3.177,5.694-5.694
				c-0.275-1.701-2.734-2.771-7.721-3.974"/>
			<path fill="none" stroke="#FFFFFF" stroke-miterlimit="10" d="M20.15,22.612c-1.527-1.217-0.103-4.212,1.296-4.512
				c1.399-0.3,3.101-0.276,4.998,0.816c1.1,1.397,1.599,4.596,0,5.294C24.846,24.912,23.14,24.999,20.15,22.612z"/>
		</g>
	</g>
</g>
</svg>
