<?xml version="1.0" encoding="utf-8"?>
<!-- Generator: Adobe Illustrator 16.0.0, SVG Export Plug-In . SVG Version: 6.00 Build 0)  -->
<!DOCTYPE svg PUBLIC "-//W3C//DTD SVG 1.1//EN" "http://www.w3.org/Graphics/SVG/1.1/DTD/svg11.dtd">
<svg version="1.1" id="Layer_1" xmlns="http://www.w3.org/2000/svg" xmlns:xlink="http://www.w3.org/1999/xlink" x="0px" y="0px"
	 width="65.8px" height="65.801px" viewBox="0 0 65.8 65.801" enable-background="new 0 0 65.8 65.801" xml:space="preserve">
<g id="New_Symbol_25">
	<path fill="none" stroke="#FFFFFF" stroke-width="0.8004" stroke-miterlimit="10" d="M31.343,36.138
		c-0.927-10.005,7.655-17.099,17.098-17.099c9.443,0,17.476,6.928,17.098,17.099c-0.352,9.436-6.455,17.329-17.098,17.096
		C38.252,53.01,32.215,45.539,31.343,36.138z"/>
	<path fill="none" stroke="#FFFFFF" stroke-width="0.8004" stroke-miterlimit="10" d="M38,22.299c14-5.75,32.417,2.334,23.733,25.25
		"/>
	<path fill="none" stroke="#FFFFFF" stroke-width="3" stroke-miterlimit="10" d="M52.75,53.549
		c-16.772,2.98-22.945-9.307-22.25-19.582c0.417-6.166,6.204-12.617,9.397-12.871"/>
	<polyline fill="#FFFFFF" points="42.75,19.467 42.75,15.467 49.583,15.467 49.583,19.467 	"/>
	<path fill="none" stroke="#FFFFFF" stroke-width="0.8004" stroke-miterlimit="10" d="M39.875,15.467h13.208l0.333-3.039
		c0,0-3.667-0.586-6.542-0.629c-3.041-0.043-6.833,0.629-6.833,0.629L39.875,15.467z"/>
	<path fill="none" stroke="#FFFFFF" stroke-width="3" stroke-miterlimit="10" d="M39.875,14.924c0,0,5.215-0.463,6.958-0.457
		c1.566,0.007,6.25,0.457,6.25,0.457"/>
	<polyline fill="#FFFFFF" points="37.824,20.945 34.646,17.467 30.867,20.471 33.679,24.518 	"/>
	<polyline fill="#FFFFFF" points="55.365,20.014 58.066,17.133 61.734,20.014 58.742,23.293 	"/>
	<g>
		<g>
			<path fill="none" stroke="#FFFFFF" stroke-width="0.5905" stroke-miterlimit="10" stroke-dasharray="1.023,2.0459" d="
				M34.398,37.562c-0.686-7.379,5.646-12.613,12.61-12.613c6.966,0,12.892,5.111,12.612,12.613
				c-0.258,6.959-4.762,12.783-12.612,12.61C39.494,50.01,35.04,44.498,34.398,37.562z"/>
		</g>
		
			<line fill="none" stroke="#FFFFFF" stroke-width="2.8757" stroke-miterlimit="10" x1="46.988" y1="37.385" x2="47.779" y2="26.906"/>
		
			<line fill="none" stroke="#FFFFFF" stroke-width="0.8385" stroke-miterlimit="10" x1="46.988" y1="37.385" x2="61.835" y2="39.131"/>
	</g>
	
		<line fill="none" stroke="#FFFFFF" stroke-width="0.8004" stroke-miterlimit="10" x1="24.583" y1="29.568" x2="10.417" y2="29.734"/>
	<polyline fill="none" stroke="#FFFFFF" stroke-width="2.7448" stroke-miterlimit="10" points="26.417,38.801 11.25,38.633 
		0.25,39.801 	"/>
	<polyline fill="none" stroke="#FFFFFF" stroke-width="0.8004" stroke-miterlimit="10" points="4.25,46.967 16.75,47.801 
		24.75,47.633 	"/>
</g>
</svg>
