<?xml version="1.0" encoding="utf-8"?>
<!-- Generator: Adobe Illustrator 16.0.0, SVG Export Plug-In . SVG Version: 6.00 Build 0)  -->
<!DOCTYPE svg PUBLIC "-//W3C//DTD SVG 1.1//EN" "http://www.w3.org/Graphics/SVG/1.1/DTD/svg11.dtd">
<svg version="1.1" id="Layer_1" xmlns="http://www.w3.org/2000/svg" xmlns:xlink="http://www.w3.org/1999/xlink" x="0px" y="0px"
	 width="65.8px" height="65.801px" viewBox="0 0 65.8 65.801" enable-background="new 0 0 65.8 65.801" xml:space="preserve">
<g id="New_Symbol_7">
	<path fill="none" stroke="#FFFFFF" stroke-width="0.8004" stroke-miterlimit="10" d="M32.827,35.566c0,0-3.716-0.086-7.247-1.303
		c-3.918-1.35-6.412-2.927-6.412-2.927s-0.402-0.533-0.274-0.971c0.662-2.279,2.518-8.702,3.328-11.683
		c0.487-1.79,1.601-5.875,2.341-9.119c0.116-0.511,0.403-0.338,0.728-1.19c0.81-2.134,1.724-4.923,1.724-4.923l14.734,4.387
		c0,0-0.151,1.587-1.28,5.343c-0.109,0.364,0.032,0.697-0.097,1.088c-0.969,2.934-2.231,6.83-2.767,8.465
		c-0.979,2.983-3.078,9.552-3.924,12.038C33.505,35.291,32.827,35.566,32.827,35.566z"/>
	<path fill="none" stroke="#FFFFFF" stroke-width="3" stroke-miterlimit="10" d="M20.174,31.913
		c0.662-2.279,2.885-9.759,3.695-12.739c0.487-1.79,1.602-5.874,2.341-9.118c0.116-0.512,0.402-0.336,0.728-1.192
		c0.81-2.131,1.724-4.92,1.724-4.92"/>
	<g>
		<path fill="#FFFFFF" d="M25.74,2.816c2.644,0.41,5.612,1.11,9.059,2.136c3.264,0.974,6.775,2.392,8.35,3.049l-1.362,3.61
			c-0.278-0.124-0.604-0.272-0.969-0.438c-1.646-0.752-4.134-1.89-6.345-2.593c-3.567-1.137-5.832-1.577-7.83-1.968
			C26.058,6.5,25.498,6.39,24.935,6.269L25.74,2.816 M25.484,1.97c-0.142,0-0.438,0.303-0.438,0.303l-0.982,4.207
			c0,0-0.051,0.402,0.126,0.443c2.733,0.627,5.129,0.854,10.038,2.419c2.895,0.921,6.248,2.588,7.639,3.178
			c0.051,0.021,0.1,0.03,0.143,0.03c0.229,0,0.367-0.238,0.367-0.238l1.676-4.44c0,0-0.063-0.385-0.358-0.51
			c-1.298-0.547-5.132-2.123-8.666-3.176c-4.034-1.2-7.069-1.854-9.529-2.215C25.493,1.97,25.489,1.97,25.484,1.97L25.484,1.97z"/>
	</g>
	<path fill="none" stroke="#FFFFFF" stroke-width="3" stroke-miterlimit="10" d="M24.953,3.796c2.46,0.36,5.497,1.017,9.53,2.217
		c3.534,1.051,7.368,2.629,8.666,3.176"/>
	<path fill="none" stroke="#FFFFFF" stroke-width="3" stroke-miterlimit="10" d="M40.099,15.183c0,0-4.537-2.22-8.341-3.352
		c-3.272-0.976-7.467-1.354-7.467-1.354"/>
	<g>
		<g>
			<path fill="#FFFFFF" d="M22.242,34.156c0.773,0.389,1.799,0.889,2.328,1.081c1.137,0.415,3.836,0.895,5.324,1.14
				c-0.256,0.874-0.627,2.133-0.873,2.928c-0.103,0.011-0.221,0.017-0.352,0.017c-1.131,0-2.949-0.426-4.16-0.819
				c-1.146-0.374-2.546-0.976-3.092-1.478c-0.006-0.007-0.014-0.015-0.022-0.022L22.242,34.156 M21.683,32.854
				c0,0-0.821,2.758-1.254,4.215c-0.05,0.168,0.267,0.523,0.376,0.623c0.734,0.676,2.395,1.335,3.423,1.67
				c1.168,0.381,3.113,0.865,4.44,0.865c0.195,0,0.377-0.011,0.541-0.033c0.171-0.023,0.525-0.142,0.578-0.306
				c0.377-1.182,1.263-4.246,1.263-4.246s-4.662-0.706-6.17-1.257C24.047,34.081,21.683,32.854,21.683,32.854L21.683,32.854z"/>
		</g>
	</g>
	<path fill="none" stroke="#FFFFFF" stroke-width="3" stroke-miterlimit="10" d="M21.69,34.237c0,0,2.12,1.083,2.995,1.396
		c1.5,0.536,1.515,0.532,5.411,1.268"/>
	<path fill="none" stroke="#FFFFFF" stroke-width="0.8004" stroke-miterlimit="10" d="M39.769,37.632c0,0,3.158,1.959,6.779,2.871
		c4.02,1.012,6.971,1.055,6.971,1.055s0.628-0.227,0.76-0.662c0.691-2.271,2.648-8.664,3.6-11.603
		c0.571-1.765,1.871-5.794,3.026-8.915c0.183-0.491-0.153-0.5,0.042-1.396c0.486-2.228,1.247-5.062,1.247-5.062L47.458,9.533
		c0,0-0.74,1.414-1.849,5.176c-0.108,0.364-0.409,0.564-0.515,0.964c-0.793,2.984-1.865,6.938-2.312,8.601
		c-0.812,3.034-2.646,9.683-3.295,12.225C39.351,37.03,39.769,37.632,39.769,37.632z"/>
	<path fill="none" stroke="#FFFFFF" stroke-width="3" stroke-miterlimit="10" d="M48.954,9.981c0,0-0.739,1.412-1.849,5.174
		c-0.107,0.366-0.409,0.565-0.516,0.966c-0.791,2.982-1.865,6.938-2.311,8.6c-0.811,3.032-2.657,10.505-3.645,13.194"/>
	<g>
		<path fill="#FFFFFF" d="M46.198,8.909c1.679,0.31,5.394,1.04,8.657,2.012c3.445,1.023,6.314,2.062,8.752,3.163l-1.215,3.331
			c-0.539-0.208-1.068-0.424-1.621-0.646c-1.885-0.766-4.021-1.634-7.625-2.632c-2.233-0.619-4.936-1.026-6.723-1.297
			c-0.397-0.061-0.757-0.113-1.06-0.162L46.198,8.909 M46.005,8.068c-0.277,0-0.492,0.235-0.492,0.235l-1.025,4.635
			c0,0-0.021,0.394,0.312,0.454c1.486,0.267,5.207,0.703,8.133,1.515c4.965,1.375,7.097,2.494,9.729,3.464
			c0.014,0.005,0.025,0.007,0.04,0.007c0.156,0,0.308-0.311,0.308-0.311l1.479-4.061c0,0-0.09-0.441-0.213-0.499
			c-2.258-1.042-5.157-2.155-9.189-3.354c-3.535-1.052-7.607-1.826-8.994-2.077C46.06,8.071,46.032,8.068,46.005,8.068L46.005,8.068
			z"/>
	</g>
	<path fill="none" stroke="#FFFFFF" stroke-width="3" stroke-miterlimit="10" d="M63.73,15.335
		c-2.258-1.044-5.158-2.154-9.191-3.354c-3.535-1.052-7.605-1.827-8.992-2.079"/>
	<path fill="none" stroke="#FFFFFF" stroke-width="3" stroke-miterlimit="10" d="M44.823,16.588c0,0,5.013,0.621,8.817,1.755
		c3.271,0.973,6.992,2.949,6.992,2.949"/>
	<g>
		<g>
			<path fill="#FFFFFF" d="M41.782,39.913c1.38,0.608,3.901,1.685,5.08,1.958c0.548,0.128,1.68,0.271,2.54,0.367l-0.848,2.846
				c-0.012,0.003-0.022,0.006-0.032,0.007c-0.116,0.02-0.261,0.028-0.429,0.028c-0.865,0-2.099-0.25-2.965-0.483
				c-1.481-0.397-3.441-1.156-4.218-1.794C41.14,42.042,41.517,40.785,41.782,39.913 M41.214,38.666c0,0-0.934,3.052-1.264,4.247
				c-0.046,0.167,0.188,0.456,0.316,0.569c0.975,0.85,3.265,1.662,4.627,2.027c0.861,0.231,2.203,0.516,3.199,0.516
				c0.211,0,0.406-0.013,0.578-0.041c0.147-0.023,0.606-0.148,0.656-0.317c0.434-1.455,1.254-4.214,1.254-4.214
				s-2.648-0.265-3.514-0.466C45.503,40.626,41.214,38.666,41.214,38.666L41.214,38.666z"/>
		</g>
	</g>
	<path fill="none" stroke="#FFFFFF" stroke-width="3" stroke-miterlimit="10" d="M49.821,42.607c0,0-2.368-0.251-3.271-0.469
		c-1.55-0.372-1.562-0.382-5.226-1.896"/>
	<polygon fill="#FFFFFF" points="39.203,18.019 43.985,19.568 40.345,33.269 34.692,31.716 	"/>
	<path fill="none" stroke="#FFFFFF" stroke-width="0.8004" stroke-miterlimit="10" d="M20.174,27.517
		c-6.85,2.857-10.732,6.803-13.59,9.979c-2.858,3.175-8.258,9.209-3.176,12.701c5.082,3.494,9.11-0.896,15.461-0.896
		s8.528,2.483,9.792,8.517c1.264,6.035,7.774,10.164,20.293-0.952c9.442-8.386,12.968-15.959,6.548-19.967"/>
	<path fill="none" stroke="#FFFFFF" stroke-width="0.8004" stroke-miterlimit="10" d="M21.125,24.658
		c-6.85,2.858-10.732,6.804-13.59,9.979c-2.858,3.174-8.257,9.209-3.176,12.701c5.082,3.495,9.11-0.896,15.461-0.896
		c6.352,0,8.528,2.484,9.792,8.519c1.265,6.034,7.775,10.163,20.293-0.953c9.443-8.385,12.969-15.959,6.548-19.967"/>
</g>
</svg>
