<?xml version="1.0" encoding="utf-8"?>
<!-- Generator: Adobe Illustrator 16.0.0, SVG Export Plug-In . SVG Version: 6.00 Build 0)  -->
<!DOCTYPE svg PUBLIC "-//W3C//DTD SVG 1.1//EN" "http://www.w3.org/Graphics/SVG/1.1/DTD/svg11.dtd">
<svg version="1.1" id="Layer_1" xmlns="http://www.w3.org/2000/svg" xmlns:xlink="http://www.w3.org/1999/xlink" x="0px" y="0px"
	 width="65.8px" height="65.801px" viewBox="0 0 65.8 65.801" enable-background="new 0 0 65.8 65.801" xml:space="preserve">
<g id="New_Symbol_13">
	<path fill="none" stroke="#FFFFFF" stroke-width="1.9999" stroke-miterlimit="10" d="M34.544,54.113
		c-1.667-0.222-5.97-0.039-7.319-0.091c-4.917-0.188-22.209-0.25-25.959-0.029"/>
	<path fill="none" stroke="#FFFFFF" stroke-width="0.8004" stroke-miterlimit="10" d="M2.358,55.111
		c3.75-0.22,19.95-0.338,24.867-0.148c1.35,0.052,4.673-0.146,6.34,0.074c0.602,0.08,0.988-0.698,0.988-0.698
		s-0.271-6.235-0.25-8.317c0.013-1.24,0.25-4.946,0.25-4.946s-0.362-0.809-0.989-0.77c-3.215,0.202-13.867,0.351-17.667,0.308
		C13.434,40.586,4.406,40.52,2.04,40.322c-0.558-0.05-0.889,0.753-0.889,0.753c-0.275,0.899-0.08,4.776-0.119,5.677
		c-0.039,0.901,0,5.192-0.078,6.551c0,0-0.1,1.849,0.534,1.812c3.75-0.22,20.821-0.339,25.738-0.149
		c1.35,0.052,4.673-0.146,6.34,0.074"/>
	<path fill="none" stroke="#FFFFFF" stroke-width="0.8004" stroke-miterlimit="10" d="M27.733,41.39
		c-3.216,0.202-8.036,0.159-11.835,0.115c-2.464-0.027-9.014,0.002-11.381-0.197c0,0-0.705,0.558-0.705,0.783
		c0.006,2.426,0.223,5.41,0.191,7.635"/>
	<path fill="none" stroke="#FFFFFF" stroke-width="0.8004" stroke-miterlimit="10" d="M4.486,20.353
		c0.025-1.763-0.115-5.97-0.188-7.784c-0.02-0.474,0.719-0.759,0.719-0.759c2.367,0.2,8.416,0.05,10.879,0.077
		c3.8,0.042,12.615-0.025,15.831-0.226"/>
	<path fill="none" stroke="#FFFFFF" stroke-width="1.9999" stroke-miterlimit="10" d="M34.341,24.932
		c-1.667-0.221-5.242-0.023-6.591-0.075c-4.917-0.189-20.747-0.25-24.496-0.031c-0.634,0.037-1.658-0.38-1.658-0.899"/>
	<path fill="none" stroke="#FFFFFF" stroke-width="0.8004" stroke-miterlimit="10" d="M0.991,11.747c0,0,0.372-1.093,0.929-1.045
		c2.368,0.2,11.513,0.267,13.977,0.295c3.8,0.04,14.451-0.108,17.667-0.309c0.627-0.041,0.989,0.769,0.989,0.769
		s-0.236,3.706-0.25,4.944c-0.021,2.082,0.25,8.32,0.25,8.32s-0.387,0.779-0.988,0.699"/>
	<path fill="none" stroke="#FFFFFF" stroke-width="0.8004" stroke-miterlimit="10" d="M65.021,54.338c0,0-0.385,0.778-0.99,0.698
		c-1.666-0.221-4.988-0.022-6.339-0.074c-4.917-0.188-17.305-0.07-21.055,0.148c-0.633,0.037-0.994-0.772-0.994-0.772
		s0.233-3.272,0.249-4.367c0.032-2.225-0.249-8.896-0.249-8.896s0.331-0.803,0.89-0.753c2.367,0.197,7.367,0.264,9.832,0.291
		c3.8,0.043,14.452-0.104,17.666-0.308c0.627-0.039,0.99,0.77,0.99,0.77s-0.237,3.706-0.25,4.946
		C64.751,48.103,65.021,54.338,65.021,54.338z"/>
	<path fill="none" stroke="#FFFFFF" stroke-width="1.9999" stroke-miterlimit="10" d="M64.805,53.915
		c-1.667-0.222-5.763,0.159-7.113,0.107c-4.424-0.169-16.972-0.229-21.763-0.108"/>
	<path fill="none" stroke="#FFFFFF" stroke-width="1.9999" stroke-miterlimit="10" d="M36.533,40.321c0,0,0.285,7.426,0.253,9.649
		c-0.017,1.095-0.253,2.173-0.253,2.173c0.119,1.466,1.658,1.468,1.658,1.468"/>
	<path fill="none" stroke="#FFFFFF" stroke-width="0.8004" stroke-miterlimit="10" d="M4.085,35.161
		c0.01-2.224-0.064-7.727-0.064-7.727c-0.033-0.393-0.059-0.679,0.257-0.652c0.738,0.061,4.077-0.116,4.819-0.089"/>
	<path fill="none" stroke="#FFFFFF" stroke-width="1.9999" stroke-miterlimit="10" d="M13.777,39.367
		c-0.589-0.017-1.499-0.044-1.908-0.074c-1.598-0.117-8.407-0.068-9.536,0.149c-0.191,0.037-0.3-0.771-0.3-0.771"/>
	<path fill="none" stroke="#FFFFFF" stroke-width="0.8004" stroke-miterlimit="10" d="M0.777,26.388c0,0,0.099-0.926,0.267-0.876
		c0.712,0.197,5.734,0.265,6.477,0.293c1.143,0.044,4.349-0.107,5.316-0.31c0.189-0.038,0.298,0.771,0.298,0.771
		s-0.072,3.707-0.074,4.945c-0.007,2.082,0.074,6.785,0.074,6.785s0.078,0.802-0.554,0.771"/>
	<path fill="none" stroke="#FFFFFF" stroke-width="2.9999" stroke-miterlimit="10" d="M2.753,39.271
		c-1.447,1.177-1.216,4.206-1.132,10.665c0.013,1.008,0.507,3.353,0.507,3.353"/>
	<path fill="none" stroke="#FFFFFF" stroke-width="2.9999" stroke-miterlimit="10" d="M2.186,10.721
		c-0.432,3.061,0.134,7.478,0.103,9.631c-0.016,1.094-0.452,3.149-0.103,4.14"/>
	<path fill="none" stroke="#FFFFFF" stroke-width="2.9999" stroke-miterlimit="10" d="M1.813,25.922
		c-0.156,2.349,0.085,7.016,0.075,9.239c-0.004,1.097,0.239,4.474,0.239,4.474"/>
	<path fill="none" stroke="#FFFFFF" stroke-width="0.8004" stroke-miterlimit="10" d="M43.882,39.53c0,0-0.389,0.777-0.99,0.697
		c-1.668-0.221-4.989-0.022-6.34-0.074c-4.916-0.188-17.304-0.07-21.055,0.149c-0.634,0.036-0.994-0.772-0.994-0.772
		s0.234-3.272,0.25-4.369c0.032-2.224-0.25-8.895-0.25-8.895s0.332-0.803,0.89-0.754c2.367,0.197,7.368,0.265,9.832,0.293
		c3.8,0.044,14.451-0.107,17.667-0.31c0.626-0.038,0.99,0.771,0.99,0.771s-0.237,3.707-0.251,4.945
		C43.61,33.293,43.882,39.53,43.882,39.53z"/>
	<path fill="none" stroke="#FFFFFF" stroke-width="1.9999" stroke-miterlimit="10" d="M43.882,39.53
		c-1.669-0.221-5.979-0.265-7.33-0.317c-4.916-0.188-17.304-0.069-21.055,0.148"/>
	<path fill="none" stroke="#FFFFFF" stroke-width="1.9999" stroke-miterlimit="10" d="M14.558,40.303c0,0,0.132-4.046,0.148-5.143
		c0.045-3.133,0.153-3.979,0.018-9.906"/>
	<path fill="none" stroke="#FFFFFF" stroke-width="0.8004" stroke-miterlimit="10" d="M16.984,36.102
		c0.032-2.226-0.173-8.596-0.173-8.596s0.333-0.804,0.89-0.755c2.367,0.199,17.436-0.043,19.9-0.067"/>
	<path fill="none" stroke="#FFFFFF" stroke-width="0.8004" stroke-miterlimit="10" d="M38.712,50.91
		c0.038-2.597,0.017-2.588-0.25-8.896c0,0,0.332-0.805,0.889-0.754c2.368,0.198,15.673,0.463,18.133,0.321"/>
</g>
</svg>
