<?xml version="1.0" encoding="utf-8"?>
<!-- Generator: Adobe Illustrator 16.0.0, SVG Export Plug-In . SVG Version: 6.00 Build 0)  -->
<!DOCTYPE svg PUBLIC "-//W3C//DTD SVG 1.1//EN" "http://www.w3.org/Graphics/SVG/1.1/DTD/svg11.dtd">
<svg version="1.1" id="Layer_1" xmlns="http://www.w3.org/2000/svg" xmlns:xlink="http://www.w3.org/1999/xlink" x="0px" y="0px"
	 width="65.8px" height="65.801px" viewBox="0 0 65.8 65.801" enable-background="new 0 0 65.8 65.801" xml:space="preserve">
<g id="New_Symbol_9">
	<g>
		<path fill="none" stroke="#FFFFFF" stroke-width="0.8004" stroke-miterlimit="10" d="M27.683,49.545
			c0-8.002-1.614-15.551,7.454-14.49c4.654,0.543,8.484,6.488,8.484,14.49c0,8.004-3.852,13.785-8.482,14.492
			C27.114,65.262,27.683,57.549,27.683,49.545z"/>
		<path fill="none" stroke="#FFFFFF" stroke-width="0.8004" stroke-miterlimit="10" d="M43.622,47.734
			c0,8.004-3.853,13.783-8.483,14.49"/>
		<path fill="none" stroke="#FFFFFF" stroke-width="0.8004" stroke-miterlimit="10" d="M11.105,49.545
			c0-8.002,3.468-15.248,8.093-14.49c7.132,1.168,8.484,6.488,8.484,14.49c0,8.004-0.83,15.26-8.484,14.492
			C14.537,63.568,11.105,57.549,11.105,49.545z"/>
		<path fill="none" stroke="#FFFFFF" stroke-width="0.8004" stroke-miterlimit="10" d="M11.105,51.355
			c0-8.002,3.468-15.248,8.093-14.49"/>
		<path fill="none" stroke="#FFFFFF" stroke-width="3" stroke-linecap="round" stroke-miterlimit="10" d="M35.138,63.131
			c-8.023,1.227-7.455-5.582-7.455-13.586c0-8.002-1.674-15.293,7.395-14.232"/>
		<path fill="none" stroke="#FFFFFF" stroke-width="3" stroke-linecap="round" stroke-miterlimit="10" d="M19.199,35.959
			c7.132,1.168,7.579,5.584,7.579,13.586c0,8.004,0.075,14.354-7.579,13.586"/>
	</g>
	<path fill="none" stroke="#FFFFFF" stroke-width="0.8004" stroke-miterlimit="10" d="M41.058,17.702
		C41.37,6.473,47.919,4.776,52.286,4.776c6.418,0,11.619,5.312,11.619,13.315c0,8.004-3.041,13.431-11.188,14.062
		C46.318,32.649,40.739,29.2,41.058,17.702z"/>
	<path fill="none" stroke="#FFFFFF" stroke-width="0.8004" stroke-miterlimit="10" d="M53.622,31.231
		c-6.399,0.462-11.978-2.749-11.657-13.449c0.312-10.447,6.86-12.027,11.228-12.027"/>
	<path fill="none" stroke="#FFFFFF" stroke-width="4" stroke-linecap="round" stroke-miterlimit="10" d="M51.833,5.832
		c6.117,0.02,12.71,4.654,12.978,12.653c0.227,6.764-4.226,10.737-10.11,12.172"/>
	<g>
		<path fill="none" stroke="#FFFFFF" stroke-width="0.8004" stroke-miterlimit="10" d="M26.854,16.401
			c4.724,0,7.771,1.84,7.771,6.524c0,4.686-3.83,8.483-8.553,8.483c-4.724,0-7.771-3.016-7.771-7.7
			C18.301,19.023,22.132,16.401,26.854,16.401z"/>
		<path fill="none" stroke="#FFFFFF" stroke-width="0.8004" stroke-miterlimit="10" d="M34.419,20.989
			c0,4.685-3.625,8.852-8.348,8.852"/>
		<path fill="none" stroke="#FFFFFF" stroke-width="2" stroke-linecap="round" stroke-miterlimit="10" d="M26.876,30.279
			c-4.724,0-7.67-1.885-7.67-6.569c0-4.686,4.423-7.669,9.146-7.669"/>
		<path fill="none" stroke="#FFFFFF" stroke-width="0.8004" stroke-miterlimit="10" d="M26.464,2.811c4.724,0,8.551,3.8,8.551,8.483
			c0,4.687-3.438,4.96-8.161,4.96c-4.723,0-8.944-1.448-8.944-6.135C17.91,5.435,21.739,2.811,26.464,2.811z"/>
		<path fill="none" stroke="#FFFFFF" stroke-width="0.8004" stroke-miterlimit="10" d="M29.328,3.299
			c3.345,3.068,4.488,4.377,4.782,7.09c0.506,4.659-3.438,4.96-8.161,4.96"/>
		<path fill="none" stroke="#FFFFFF" stroke-width="2" stroke-linecap="round" stroke-miterlimit="10" d="M27.683,15.814
			c-4.723,0-9.667-2.104-9.667-6.792"/>
		<path fill="none" stroke="#FFFFFF" stroke-width="0.8004" stroke-miterlimit="10" d="M9.928,16.401
			c4.723,0,8.552,2.622,8.552,7.309c0,4.686-4.141,7.928-8.864,7.928c-4.724,0-8.413-2.326-8.242-7.928
			C1.516,19.026,5.204,16.401,9.928,16.401z"/>
		<path fill="none" stroke="#FFFFFF" stroke-width="2" stroke-linecap="round" stroke-miterlimit="10" d="M9.535,16.041
			c4.724,0,7.721,2.982,7.721,7.669c0,4.686-4.765,7.174-9.488,7.174"/>
		<path fill="none" stroke="#FFFFFF" stroke-width="0.8004" stroke-miterlimit="10" d="M9.535,1.635c4.724,0,8.553,3.8,8.553,8.484
			c0,4.687-3.438,6.135-8.161,6.135c-4.724,0-8.946-1.448-8.946-6.135C0.982,5.435,4.812,1.635,9.535,1.635z"/>
		<path fill="none" stroke="#FFFFFF" stroke-width="0.8004" stroke-miterlimit="10" d="M12.512,15.349
			c-5.663,0.465-11.53-1.447-11.53-6.135"/>
		<path fill="none" stroke="#FFFFFF" stroke-width="2" stroke-linecap="round" stroke-miterlimit="10" d="M7.883,16.154
			c4.966,0,9.718-1.124,9.3-6.939c-0.134-1.873-1.355-3.713-1.355-3.713"/>
	</g>
	<path fill="#FFFFFF" d="M18.959,38.955c-1.186,0-2.147,0.877-2.147,1.959s0.962,1.959,2.147,1.959c1.187,0,2.149-0.877,2.149-1.959
		S20.146,38.955,18.959,38.955z M18.508,40.299c-0.457,0.426-0.993,1.23-1.197,1.012c-0.205-0.221,0.178-1.248,0.901-1.729
		c0.52-0.346,1.675-0.102,1.879,0.119S18.965,39.873,18.508,40.299z"/>
	<path fill="#FFFFFF" d="M36.513,41.713c-1.187,0-2.147,0.875-2.147,1.957s0.962,1.959,2.147,1.959c1.187,0,2.148-0.877,2.148-1.959
		S37.7,41.713,36.513,41.713z M36.048,43.053c-0.455,0.426-0.992,1.23-1.197,1.012s0.179-1.248,0.902-1.729
		c0.52-0.344,1.674-0.1,1.879,0.119C37.835,42.676,36.505,42.629,36.048,43.053z"/>
	<path fill="#FFFFFF" d="M49.958,21.652c-1.187,0-2.147,0.876-2.147,1.958c0,1.08,0.961,1.958,2.147,1.958s2.149-0.878,2.149-1.958
		C52.107,22.528,51.144,21.652,49.958,21.652z M50.177,22.756c-0.623,0-1.564,0.224-1.564-0.076s0.98-0.793,1.837-0.649
		c0.615,0.102,1.294,1.066,1.294,1.366C51.744,23.698,50.802,22.756,50.177,22.756z"/>
	<path fill="#FFFFFF" d="M9.062,20.269c-1.082,0-1.958,0.962-1.958,2.148c0,0.061,0.012,0.118,0.016,0.179
		c0.536,0.144,1.649,0.592,2.083,0.454c0.595-0.188,1.426-0.684,1.516-0.396c0.09,0.284-0.696,1.05-1.556,1.172
		c-0.455,0.062-1.456-0.471-1.99-0.872c0.218,0.926,0.977,1.61,1.889,1.61c1.083,0,1.959-0.961,1.959-2.146
		C11.021,21.232,10.145,20.269,9.062,20.269z"/>
	<path fill="#FFFFFF" d="M10.307,6.795c-0.868,0-1.595,0.623-1.853,1.48C8.855,8.713,9.5,9.532,9.91,9.629
		c0.606,0.146,1.574,0.146,1.504,0.438c-0.069,0.292-1.137,0.543-1.938,0.206c-0.355-0.149-0.827-0.862-1.117-1.453
		C8.357,8.863,8.347,8.903,8.347,8.945c0,1.188,0.877,2.148,1.959,2.148c1.081,0,1.958-0.962,1.958-2.148S11.388,6.795,10.307,6.795
		z"/>
	<path fill="#FFFFFF" d="M25.568,8.7c0-1.188-0.876-2.148-1.958-2.148c-1.081,0-1.958,0.961-1.958,2.148
		c0,1.187,0.877,2.146,1.958,2.146C24.691,10.847,25.568,9.886,25.568,8.7z M22.155,9.177c-0.204-0.22,0.178-1.248,0.901-1.728
		c0.52-0.347,1.674-0.102,1.879,0.119c0.204,0.22-1.126,0.172-1.583,0.598C22.896,8.591,22.359,9.396,22.155,9.177z"/>
	<path fill="#FFFFFF" d="M23.664,24.542c-0.204-0.22,0.178-1.248,0.901-1.729c0.275-0.183,0.942-0.205,1.539-0.153
		c-0.29-0.188-0.623-0.302-0.983-0.302c-1.081,0-1.957,0.963-1.957,2.148s0.876,2.149,1.957,2.149c1.082,0,1.959-0.962,1.959-2.148
		c0-0.541-0.188-1.029-0.489-1.407c-0.601,0.082-1.456,0.177-1.73,0.432C24.405,23.956,23.868,24.76,23.664,24.542z"/>
</g>
</svg>
