<?xml version="1.0" encoding="utf-8"?>
<!-- Generator: Adobe Illustrator 16.0.0, SVG Export Plug-In . SVG Version: 6.00 Build 0)  -->
<!DOCTYPE svg PUBLIC "-//W3C//DTD SVG 1.1//EN" "http://www.w3.org/Graphics/SVG/1.1/DTD/svg11.dtd">
<svg version="1.1" id="Layer_1" xmlns="http://www.w3.org/2000/svg" xmlns:xlink="http://www.w3.org/1999/xlink" x="0px" y="0px"
	 width="65.8px" height="65.801px" viewBox="0 0 65.8 65.801" enable-background="new 0 0 65.8 65.801" xml:space="preserve">
<path d="M50.247,34.568c0,0,3.613-1.39,5.003-4.448c1.391-3.058,2.502-11.119-3.335-13.343c-5.838-2.224-6.672-2.78-6.672-2.78
	l1.946-9.173l-5.56-1.946l-3.336,8.896l-2.78-1.112l1.668-8.339L31.9,0.377l-3.614,8.617L17.724,6.771l-1.946,6.95l6.116,1.946
	c0,0-3.892,22.516-6.394,27.798l-5.003-1.391l-3.058,7.228l11.119,3.336l-2.224,7.505l5.56,2.224l2.501-8.061l3.614,0.834
	l-2.501,7.783l6.671,2.502l2.779-10.008c0,0,8.617,2.502,14.177,0s7.188-12.626,5.799-15.962
	C53.542,36.119,50.247,34.568,50.247,34.568z M38.849,48.467c-5.837,0-12.508-2.502-12.508-2.502l3.058-11.118
	c0,0,8.382,2.378,11.674,3.892C44.502,40.313,44.687,48.467,38.849,48.467z M43.575,29.009c-1.111,0.556-3.613,1.946-12.508,0
	l2.501-11.119c0,0,6.671,0.834,9.451,3.058C45.798,23.171,44.687,28.453,43.575,29.009z"/>
</svg>
