<?xml version="1.0" encoding="utf-8"?>
<!-- Generator: Adobe Illustrator 16.0.0, SVG Export Plug-In . SVG Version: 6.00 Build 0)  -->
<!DOCTYPE svg PUBLIC "-//W3C//DTD SVG 1.1//EN" "http://www.w3.org/Graphics/SVG/1.1/DTD/svg11.dtd">
<svg version="1.1" id="Layer_1" xmlns="http://www.w3.org/2000/svg" xmlns:xlink="http://www.w3.org/1999/xlink" x="0px" y="0px"
	 width="30.307px" height="30.308px" viewBox="15.922 9.242 30.307 30.308" enable-background="new 15.922 9.242 30.307 30.308"
	 xml:space="preserve">
<rect x="20.361" y="13.68" transform="matrix(0.7071 0.7071 -0.7071 0.7071 26.3522 -14.8289)" fill="#FFFFFF" width="21.431" height="21.431"/>
<text transform="matrix(1 0 0 1 23.8945 30.0405)" font-family="'OpenSans-Bold'" font-size="15.2721">M</text>
<rect x="20.361" y="13.68" transform="matrix(0.7071 0.7071 -0.7071 0.7071 26.3522 -14.8289)" fill="#FFFFFF" width="21.431" height="21.431"/>
<g>
	<path d="M29.882,30.041l-2.625-8.553H27.19c0.095,1.74,0.142,2.901,0.142,3.482v5.071h-2.065V19.138h3.147l2.58,8.337h0.045
		l2.737-8.337h3.146v10.902h-2.154v-5.16c0-0.244,0.003-0.524,0.011-0.843c0.007-0.318,0.041-1.163,0.101-2.536h-0.067L32,30.041
		H29.882z"/>
</g>
</svg>
