<?xml version="1.0" encoding="utf-8"?>
<!-- Generator: Adobe Illustrator 16.0.0, SVG Export Plug-In . SVG Version: 6.00 Build 0)  -->
<!DOCTYPE svg PUBLIC "-//W3C//DTD SVG 1.1//EN" "http://www.w3.org/Graphics/SVG/1.1/DTD/svg11.dtd">
<svg version="1.1" id="Layer_1" xmlns="http://www.w3.org/2000/svg" xmlns:xlink="http://www.w3.org/1999/xlink" x="0px" y="0px"
	 width="30.307px" height="30.308px" viewBox="15.922 9.242 30.307 30.308" enable-background="new 15.922 9.242 30.307 30.308"
	 xml:space="preserve">
<rect x="20.361" y="13.68" transform="matrix(0.7071 0.7071 -0.7071 0.7071 26.3522 -14.8289)" fill="#FFFFFF" width="21.431" height="21.431"/>
<rect x="20.361" y="13.68" transform="matrix(0.7071 0.7071 -0.7071 0.7071 26.3522 -14.8289)" fill="#FFFFFF" width="21.431" height="21.431"/>
<g>
	<path d="M35.834,24.441c0,1.804-0.447,3.191-1.342,4.161s-2.177,1.455-3.848,1.455s-2.953-0.486-3.848-1.455
		c-0.895-0.969-1.342-2.361-1.342-4.176s0.449-3.2,1.346-4.157s2.184-1.436,3.859-1.436s2.957,0.482,3.845,1.447
		C35.391,21.245,35.834,22.632,35.834,24.441z M27.878,24.441c0,1.218,0.231,2.135,0.693,2.751c0.462,0.617,1.153,0.925,2.073,0.925
		c1.844,0,2.767-1.226,2.767-3.676c0-2.456-0.917-3.684-2.752-3.684c-0.919,0-1.613,0.31-2.081,0.929
		C28.111,22.305,27.878,23.223,27.878,24.441z"/>
</g>
</svg>
