<?xml version="1.0" encoding="utf-8"?>
<!-- Generator: Adobe Illustrator 16.0.0, SVG Export Plug-In . SVG Version: 6.00 Build 0)  -->
<!DOCTYPE svg PUBLIC "-//W3C//DTD SVG 1.1//EN" "http://www.w3.org/Graphics/SVG/1.1/DTD/svg11.dtd">
<svg version="1.1" xmlns="http://www.w3.org/2000/svg" xmlns:xlink="http://www.w3.org/1999/xlink" x="0px" y="0px"
	 width="93.807px" height="76.236px" viewBox="0 0 93.807 76.236" enable-background="new 0 0 93.807 76.236" xml:space="preserve">
<g id="Layer_1">
</g>
<g id="Layer_2">
	<path fill="#FEFEFE" d="M84.221,18.982c0.032,0.828,0.053,1.664,0.053,2.492c0,25.441-19.356,54.762-54.766,54.762
		C18.639,76.236,8.52,73.059,0,67.596c1.507,0.178,3.033,0.27,4.592,0.27c9.021,0,17.316-3.08,23.909-8.24
		C20.08,59.471,12.968,53.91,10.52,46.256c1.172,0.223,2.383,0.346,3.619,0.346c1.75,0,3.454-0.225,5.072-0.664
		C10.402,44.17,3.77,36.393,3.77,27.059c0-0.076,0-0.166,0.007-0.238c2.593,1.438,5.553,2.307,8.711,2.404
		c-5.158-3.447-8.56-9.342-8.56-16.016c0-3.537,0.947-6.84,2.599-9.682c9.494,11.648,23.679,19.303,39.673,20.115
		c-0.329-1.41-0.486-2.877-0.486-4.389C45.713,8.627,54.324,0,64.957,0c5.532,0,10.533,2.34,14.046,6.084
		c4.388-0.863,8.493-2.461,12.231-4.678c-1.448,4.502-4.494,8.266-8.481,10.65c3.896-0.463,7.618-1.49,11.054-3.023
		C91.247,12.883,87.983,16.273,84.221,18.982z"/>
</g>
</svg>
