<?xml version="1.0" encoding="utf-8"?>
<!-- Generator: Adobe Illustrator 16.0.0, SVG Export Plug-In . SVG Version: 6.00 Build 0)  -->
<!DOCTYPE svg PUBLIC "-//W3C//DTD SVG 1.1//EN" "http://www.w3.org/Graphics/SVG/1.1/DTD/svg11.dtd">
<svg version="1.1" id="Layer_1" xmlns="http://www.w3.org/2000/svg" xmlns:xlink="http://www.w3.org/1999/xlink" x="0px" y="0px"
	 width="93.807px" height="76.236px" viewBox="0 0 93.807 76.236" enable-background="new 0 0 93.807 76.236" xml:space="preserve">
<g id="Layer_1_1_">
</g>
<g id="Layer_2">
	<path d="M84.221,18.982c0.032,0.828,0.053,1.664,0.053,2.492c0,25.44-19.355,54.762-54.766,54.762
		c-10.869,0-20.988-3.177-29.508-8.64c1.507,0.178,3.033,0.27,4.592,0.27c9.021,0,17.316-3.08,23.909-8.24
		c-8.421-0.154-15.533-5.716-17.981-13.37c1.172,0.224,2.383,0.347,3.619,0.347c1.75,0,3.454-0.226,5.072-0.664
		C10.402,44.17,3.77,36.393,3.77,27.059c0-0.076,0-0.166,0.007-0.238c2.594,1.438,5.554,2.307,8.711,2.404
		c-5.157-3.447-8.56-9.343-8.56-16.017c0-3.537,0.947-6.84,2.599-9.682C16.021,15.175,30.206,22.83,46.2,23.642
		c-0.329-1.41-0.486-2.877-0.486-4.39C45.713,8.627,54.324,0,64.957,0c5.531,0,10.533,2.34,14.046,6.084
		c4.388-0.862,8.493-2.461,12.23-4.678c-1.447,4.502-4.493,8.266-8.48,10.65c3.896-0.464,7.618-1.49,11.054-3.023
		C91.247,12.883,87.983,16.273,84.221,18.982z"/>
</g>
</svg>
