<?xml version="1.0" encoding="utf-8"?>
<!-- Generator: Adobe Illustrator 16.0.0, SVG Export Plug-In . SVG Version: 6.00 Build 0)  -->
<!DOCTYPE svg PUBLIC "-//W3C//DTD SVG 1.1//EN" "http://www.w3.org/Graphics/SVG/1.1/DTD/svg11.dtd">
<svg version="1.1" id="Layer_1" xmlns="http://www.w3.org/2000/svg" xmlns:xlink="http://www.w3.org/1999/xlink" x="0px" y="0px"
	 width="50.578px" height="55.129px" viewBox="45.325 14.712 50.578 55.129" enable-background="new 45.325 14.712 50.578 55.129"
	 xml:space="preserve">
<g id="Layer_1_1_">
</g>
<g id="Layer_2">
	<g>
		<g>
			<path fill="#FFFFFF" d="M93.953,16.768c-2.59-2.672-7.139-2.759-9.824-0.151L71.244,29.092c-0.503,0.484-0.79,1.152-0.799,1.846
				c-0.014,0.694,0.253,1.369,0.739,1.869l1.864,1.92l-1.354,3.692l-0.525,1.438l-0.992-1.026c-0.14-0.144-0.282-0.276-0.424-0.412
				c-3.348-3.2-7.582-4.257-11.431-2.826c-2.964,1.107-5.322,3.593-6.63,6.996l-2.763,7.157l-2.64,6.841
				c-1.323,3.429-1.096,6.033-0.436,7.871c0.504,1.409,1.264,2.367,1.776,2.897c0.984,1.004,3.516,2.971,7.862,2.375
				c0.881-0.123,1.828-0.338,2.858-0.697l14.159-4.954l0.296-0.113c1.824-0.681,3.37-1.678,4.597-2.899
				c1.397-1.392,2.374-3.074,2.799-4.965c0.222-0.979,0.286-1.976,0.207-2.97c-0.204-2.621-1.426-5.216-3.557-7.413l-1.625-1.675
				l1.876-5.13l0.099,0.102c0.747,0.77,1.854,0.985,2.803,0.631c0.238-0.09,0.461-0.228,0.671-0.391
				c0.081-0.061,0.164-0.111,0.237-0.186l12.882-12.479C96.54,23.933,96.617,19.519,93.953,16.768z"/>
		</g>
	</g>
</g>
</svg>
