<?xml version="1.0" encoding="utf-8"?>
<!-- Generator: Adobe Illustrator 16.0.0, SVG Export Plug-In . SVG Version: 6.00 Build 0)  -->
<!DOCTYPE svg PUBLIC "-//W3C//DTD SVG 1.1//EN" "http://www.w3.org/Graphics/SVG/1.1/DTD/svg11.dtd">
<svg version="1.1" id="Layer_1" xmlns="http://www.w3.org/2000/svg" xmlns:xlink="http://www.w3.org/1999/xlink" x="0px" y="0px"
	 width="65.8px" height="65.801px" viewBox="0 0 65.8 65.801" enable-background="new 0 0 65.8 65.801" xml:space="preserve">
<g>
	<path fill="none" stroke="#000000" stroke-width="1.084" stroke-miterlimit="10" d="M35.817,14.816
		c0.187-2.774-0.108-5.896-2.007-7.995c-0.211-0.23,0.128-0.371-0.102-0.592c-3.104-3.025-8.307-5.158-11.144-5.158
		c-2.807,0-5.85,1.206-7.906,3.083c-0.303,0.276-0.1,0.604-0.381,0.905c-2.838,3.045-4.516,7.29-4.273,10.727"/>
	<path fill="none" stroke="#000000" stroke-miterlimit="10" d="M33.708,6.229c-2.671-1.832-6.314,0.49-5.187,3.774
		c1.128,3.288,2.947,4.901,4.959,5.413c1.515,0.385,2.87-0.46,2.87-0.944"/>
	<path fill="none" stroke="#000000" stroke-width="3" stroke-miterlimit="10" d="M30.857,14.114
		c2.543,1.787,4.991,0.605,4.991,0.122"/>
	<path fill="none" stroke="#000000" stroke-width="1.084" stroke-miterlimit="10" d="M9.578,15.651
		c0,7.395,7.464,12.8,13.606,12.939c7.394,0,13.282-8.106,13.17-14.118"/>
	<path fill="none" stroke="#000000" stroke-width="1.084" stroke-miterlimit="10" d="M14.661,4.154
		c4.508,0.195,6.058,2.46,6.058,4.669c0,2.21,0.206,3.232-2.259,5.288c-2.465,2.056-5.906,2.57-7.394,2.056
		c-0.553-0.23-1.489-0.516-1.489-0.516"/>
	<path fill="none" stroke="#000000" stroke-width="3" stroke-miterlimit="10" d="M18.46,14.111c-2.465,2.056-5.906,2.57-7.394,2.056
		c-0.553-0.23-1.583-0.936-1.583-0.936"/>
</g>
<path fill="none" stroke="#000000" stroke-width="2" stroke-miterlimit="10" d="M11.461,8.33C5.374,8.453,1.056,11.547,1.156,13.547
	c0.154,3.081,5.726,6.532,10.166,7.856c8.78,2.618,20.333,1.694,27.11-0.771c3.389-1.232,5.967-4.036,5.545-6.623
	c-0.284-1.75-4.052-3.952-9.177-5.188"/>
<path fill="none" stroke="#000000" stroke-miterlimit="10" d="M9.974,11.776c-6.087,0.123-7.883,2.116-7.783,4.116
	c0.154,3.081,4.537,5.574,8.978,6.896c8.78,2.619,20.178,2.003,26.956-0.462c3.392-1.231,6.275-3.266,5.854-5.854
	c-0.284-1.749-2.812-2.851-7.937-4.084"/>
<path fill="none" stroke="#000000" stroke-miterlimit="10" d="M19.795,22.328c-1.569-1.251-0.106-4.33,1.332-4.638
	c1.438-0.31,3.187-0.284,5.137,0.84c1.13,1.438,1.643,4.723,0,5.441C24.622,24.691,22.869,24.78,19.795,22.328z"/>
<path fill="none" stroke="#000000" stroke-width="0.755" stroke-miterlimit="10" d="M55.664,39.457
	c-3.919,3.293-7.427,11.824-11.994,17.853c-0.411,0.542,0.781,0.687,0.353,1.183c-3.574,4.135-9.431,6.85-14.964,4.133
	c-3.356-2.136-2.283-8.305-0.118-11.088c6.628-7.907,17.668-14.197,26.476-16.244"/>
<path fill="none" stroke="#000000" stroke-width="2" stroke-miterlimit="10" d="M55.664,39.457
	c-8.347,5.609-13.025,29.835-26.605,23.168"/>
<path fill="none" stroke="#000000" stroke-width="0.755" stroke-miterlimit="10" d="M65.8,30.307
	c-0.688,1.292-4.334,4.55-6.567,7.261c-0.546,0.662-0.577,1.623,0.438,1.955c-1.033,1.254-3.781,3.006-6.567,6.086
	c-0.454,0.504-3.442,3.63-0.519,3.162c-2.709,3.022-6.434,4.662-8.537,7.354c-0.648,0.831-0.075,1.604,0.923,1.886
	c-0.979,1.224-1.83,2.22-2.685,2.886c-2.902,2.262-8.156,5.475-13.51,3.184c-2.864-1.764-4.573-5.107-3.124-10.283
	c0.547-1.953,1.728-5.263,3.44-6.896c0.575,2.137,5.53-3.645,8.624-7.928c-0.516,2.242-0.389,3.592,0.951,2.797
	c2.658-1.576,7.621-5.834,10.664-7.229c-0.824,1.333,0.076,1.83,1.073,1.4C57.878,32.723,64.766,30.457,65.8,30.307"/>
<path fill="none" stroke="#FFFFFF" stroke-width="0.75" stroke-miterlimit="10" d="M38.743,39.457
	c-0.516,2.242-1.005,5.113,0.335,4.318"/>
<path fill="none" stroke="#000000" stroke-width="0.755" stroke-miterlimit="10" d="M46.482,47.999
	c2.439-4.026,4.628-7.974,6.252-9.599"/>
<path fill="none" stroke="#000000" stroke-width="0.755" stroke-miterlimit="10" d="M31.067,59.4
	c2.167-0.166,7.255,0.168,11.294-5.166c1.055-1.394,2.096-2.969,3.104-4.579"/>
<path fill="none" stroke="#000000" stroke-width="2" stroke-miterlimit="10" d="M41.858,54.109c1.055-1.394,4.624-5.693,8.792-4.793
	"/>
<path fill="none" stroke="#000000" stroke-width="2" stroke-miterlimit="10" d="M30.65,60.775c1.906,0.545,5.089,0.717,8.234-1.271"
	/>
<path fill="none" stroke="#000000" stroke-width="0.755" stroke-miterlimit="10" d="M29.733,55.734c1.167-2.5,2.5-6.5,7.667-9
	s8.667-4,10.167-5"/>
<path fill="none" stroke="#FFFFFF" stroke-width="0.75" stroke-miterlimit="10" d="M42.734,55.483
	c3.16-5.332,6.529-4.87,6.124-4.831"/>
<path fill="none" stroke="#FFFFFF" stroke-width="0.75" stroke-miterlimit="10" d="M44.317,49.505
	c1.75-1.56,6.738-1.646,6.333-1.604"/>
<path fill="none" stroke="#000000" stroke-width="2" stroke-miterlimit="10" d="M37.4,46.734c1.143-0.551,3.889-2.25,3.889-4.25"/>
<path fill="none" stroke="#FFFFFF" stroke-width="0.75" stroke-miterlimit="10" d="M38.993,47.417
	c1.088-0.652,3.839-3.271,3.657-5.263"/>
</svg>
