<?xml version="1.0" encoding="utf-8"?>
<!-- Generator: Adobe Illustrator 16.0.0, SVG Export Plug-In . SVG Version: 6.00 Build 0)  -->
<!DOCTYPE svg PUBLIC "-//W3C//DTD SVG 1.1//EN" "http://www.w3.org/Graphics/SVG/1.1/DTD/svg11.dtd">
<svg version="1.1" id="Layer_1" xmlns="http://www.w3.org/2000/svg" xmlns:xlink="http://www.w3.org/1999/xlink" x="0px" y="0px"
	 width="65.8px" height="65.801px" viewBox="0 0 65.8 65.801" enable-background="new 0 0 65.8 65.801" xml:space="preserve">
<g id="New_Symbol_22">
	
		<line fill="none" stroke="#000000" stroke-width="0.8004" stroke-miterlimit="10" x1="12.245" y1="2.975" x2="32.187" y2="23.367"/>
	<line fill="none" stroke="#000000" stroke-width="4" stroke-miterlimit="10" x1="30.904" y1="23.298" x2="28.907" y2="36.052"/>
	<line fill="none" stroke="#000000" stroke-width="4" stroke-miterlimit="10" x1="26.949" y1="25.443" x2="24.7" y2="36.686"/>
	<path fill="none" stroke="#000000" stroke-width="0.8004" stroke-miterlimit="10" d="M40.615,31.969l-22.937,7.769
		c0,0-1.842,2.071-0.45,3.414c3.467,3.34,10.593,9.989,18.115,15.729c10.543,8.046,30.242,3.329,20.809-9.989
		c-5.767-8.14-9.389-12.812-11.333-15.213C43.582,32.152,40.615,31.969,40.615,31.969z"/>
	<path fill="none" stroke="#000000" stroke-width="3" stroke-miterlimit="10" d="M20.421,41.805
		c3.467,3.342,8.51,8.009,16.032,13.747c6.68,5.098,17.846,4.663,22.142,0.575"/>
	<path fill="none" stroke="#000000" stroke-width="3" stroke-miterlimit="10" d="M45.35,34.184c-1.237-1.525-3.079-1.858-4.204-1.71
		c-6.002,0.798-16.784,3.745-21.831,7.09c-0.717,0.478,0.67,2.16,2.062,3.503"/>
	<path fill="none" stroke="#000000" stroke-width="3" stroke-miterlimit="10" d="M32.371,22.918
		c-0.578,0.577-3.824,2.185-5.931,2.191c-0.947,0.005-1.523-0.771-3.028-2.089L7.874,8.107c-1.193-1.055-1.308-1.814,2.983-4.231
		c0.763-0.432,1.803,0.555,1.803,0.555"/>
</g>
</svg>
