<?xml version="1.0" encoding="utf-8"?>
<!-- Generator: Adobe Illustrator 16.0.0, SVG Export Plug-In . SVG Version: 6.00 Build 0)  -->
<!DOCTYPE svg PUBLIC "-//W3C//DTD SVG 1.1//EN" "http://www.w3.org/Graphics/SVG/1.1/DTD/svg11.dtd">
<svg version="1.1" id="Layer_1" xmlns="http://www.w3.org/2000/svg" xmlns:xlink="http://www.w3.org/1999/xlink" x="0px" y="0px"
	 width="65.8px" height="65.801px" viewBox="0 0 65.8 65.801" enable-background="new 0 0 65.8 65.801" xml:space="preserve">
<g>
	<g>
		<g>
			<path fill="none" stroke="#000000" stroke-width="1.084" stroke-miterlimit="10" d="M35.817,14.816
				c0.187-2.774-0.108-5.896-2.007-7.995c-0.211-0.23,0.128-0.371-0.102-0.592c-3.104-3.025-8.306-5.158-11.143-5.158
				c-2.807,0-5.85,1.206-7.906,3.083c-0.303,0.276-0.1,0.604-0.381,0.905c-2.838,3.045-4.516,7.29-4.273,10.727"/>
			<path fill="none" stroke="#000000" stroke-miterlimit="10" d="M33.708,6.229c-2.671-1.832-6.314,0.49-5.186,3.774
				c1.128,3.288,2.557,4.828,4.569,5.34c1.515,0.385,3.26-0.387,3.26-0.871"/>
			<path fill="none" stroke="#000000" stroke-width="1.084" stroke-miterlimit="10" d="M9.578,15.651
				c0,7.395,7.464,12.8,13.606,12.939c7.394,0,13.282-8.106,13.17-14.118"/>
			<path fill="none" stroke="#000000" stroke-width="1.084" stroke-miterlimit="10" d="M14.661,4.154
				c4.508,0.195,6.058,2.46,6.058,4.669c0,2.21,0.206,3.232-2.259,5.288c-2.465,2.056-5.906,2.57-7.394,2.056
				c-0.553-0.23-1.489-0.516-1.489-0.516"/>
		</g>
		<path fill="none" stroke="#000000" stroke-width="2" stroke-miterlimit="10" d="M11.461,8.33
			C5.374,8.453,1.056,11.547,1.156,13.547c0.154,3.081,5.726,6.532,10.166,7.856c8.78,2.618,20.333,1.694,27.11-0.771
			c3.389-1.232,5.967-4.036,5.545-6.623c-0.284-1.75-4.052-3.952-9.177-5.188"/>
		<path fill="none" stroke="#000000" stroke-miterlimit="10" d="M9.974,11.776c-6.087,0.123-7.883,2.116-7.783,4.116
			c0.154,3.081,4.537,5.574,8.978,6.896c8.78,2.619,20.178,2.003,26.956-0.462c3.391-1.231,6.275-3.266,5.854-5.854
			c-0.284-1.749-2.812-2.851-7.937-4.084"/>
		<path fill="none" stroke="#000000" stroke-miterlimit="10" d="M19.795,22.328c-1.569-1.251-0.106-4.33,1.332-4.638
			c1.438-0.31,3.187-0.284,5.137,0.84c1.13,1.438,1.643,4.723,0,5.441C24.622,24.691,22.869,24.78,19.795,22.328z"/>
	</g>
</g>
<g>
	<path fill="none" stroke="#000000" stroke-width="0.755" stroke-miterlimit="10" d="M55.664,39.457
		c-7.21,6.056-13.026,29.835-26.606,23.168c-3.356-2.136-2.283-8.304-0.118-11.088c6.628-7.907,17.668-14.197,26.475-16.244"/>
	<path fill="none" stroke="#000000" stroke-width="2" stroke-miterlimit="10" d="M55.664,39.457
		c-8.347,5.61-13.026,29.835-26.606,23.168"/>
	<path fill="none" stroke="#000000" stroke-width="0.755" stroke-miterlimit="10" d="M65.8,30.307
		c-0.688,1.292-4.334,4.551-6.567,7.262c-0.546,0.661-0.577,1.623,0.438,1.955c-1.033,1.253-3.781,3.005-6.567,6.086
		c-0.454,0.503-3.442,3.629-0.518,3.162c-2.71,3.022-6.434,4.661-8.537,7.353c-0.649,0.831-0.076,1.604,0.922,1.886
		c-0.979,1.224-1.83,2.22-2.685,2.886c-2.902,2.261-8.156,5.474-13.509,3.183c-2.864-1.763-4.573-5.107-3.124-10.283
		c0.547-1.953,1.728-5.263,3.44-6.897c0.575,2.137,5.53-3.644,8.624-7.927c-0.517,2.242-0.389,3.592,0.95,2.797
		c2.658-1.576,7.621-5.835,10.665-7.229c-0.825,1.333,0.075,1.83,1.073,1.4C57.879,32.723,64.766,30.457,65.8,30.307"/>
</g>
<path fill="none" stroke="#000000" stroke-width="0.755" stroke-miterlimit="10" d="M46.482,47.999
	c2.44-4.027,4.628-7.974,6.252-9.599"/>
<path fill="none" stroke="#000000" stroke-width="0.755" stroke-miterlimit="10" d="M31.067,59.4
	c2.167-0.166,7.255,0.168,11.294-5.166c1.055-1.393,2.096-2.968,3.103-4.579"/>
<path fill="none" stroke="#000000" stroke-width="2" stroke-miterlimit="10" d="M42.361,54.234c1.055-1.393,4.121-5.818,8.289-4.917
	"/>
<path fill="none" stroke="#000000" stroke-width="2" stroke-miterlimit="10" d="M30.65,60.775c1.906,0.545,5.089,0.717,8.235-1.271"
	/>
<path fill="none" stroke="#000000" stroke-width="0.755" stroke-miterlimit="10" d="M29.733,55.734c1.167-2.5,2.5-6.5,7.667-9
	s8.667-4,10.167-5"/>
<path fill="none" stroke="#FFFFFF" stroke-width="0.75" stroke-miterlimit="10" d="M45.19,52.427
	c1.642-1.265,4.239-1.982,3.834-1.942"/>
<path fill="none" stroke="#FFFFFF" stroke-width="0.75" stroke-miterlimit="10" d="M45.464,49.067
	c1.642-1.265,5.591-1.207,5.186-1.167"/>
<path fill="none" stroke="#000000" stroke-width="2" stroke-miterlimit="10" d="M37.4,46.734c1.143-0.55,3.889-2.25,3.889-4.25"/>
</svg>
