<?xml version="1.0" encoding="utf-8"?>
<!-- Generator: Adobe Illustrator 16.0.0, SVG Export Plug-In . SVG Version: 6.00 Build 0)  -->
<!DOCTYPE svg PUBLIC "-//W3C//DTD SVG 1.1//EN" "http://www.w3.org/Graphics/SVG/1.1/DTD/svg11.dtd">
<svg version="1.1" id="Layer_1" xmlns="http://www.w3.org/2000/svg" xmlns:xlink="http://www.w3.org/1999/xlink" x="0px" y="0px"
	 width="65.8px" height="65.801px" viewBox="0 0 65.8 65.801" enable-background="new 0 0 65.8 65.801" xml:space="preserve">
<g id="New_Symbol_20">
	<path d="M7.86,36.703c-0.437,0.02-0.827,0.051-1.169,0.092v5.184H1.735c-0.019,0.312-0.031,0.666-0.04,1.061h4.996v5.465
		c0.546-0.016,0.934-0.049,1.205-0.084v-5.381h5.272c0.007-0.264,0.015-0.607,0.019-1.061H7.86V36.703z"/>
	<path d="M58.777,5.529c-0.436,0.02-0.826,0.051-1.168,0.093v5.183h-4.956c-0.019,0.313-0.032,0.666-0.041,1.06h4.997v5.467
		c0.546-0.017,0.934-0.05,1.204-0.085v-5.382h5.272c0.008-0.262,0.015-0.607,0.019-1.06h-5.327V5.529z"/>
	<path fill="none" stroke="#000000" stroke-width="2" stroke-miterlimit="10" d="M46.49,7.37
		C29.423,4.166,15.935,6.272,12.719,24.063"/>
	<path fill="none" stroke="#000000" stroke-width="0.8004" stroke-miterlimit="10" d="M46.49,7.37
		C29.423,4.166,18.74,7.683,14.815,25.029"/>
	<path fill="none" stroke="#000000" stroke-width="2" stroke-linejoin="round" stroke-miterlimit="10" d="M9.668,22.583l4.055,2.153
		l3.499,0.935c0,0-3.666,3.666-6.096,5.039C9.926,27.366,9.668,22.583,9.668,22.583z"/>
	<path fill="none" stroke="#000000" stroke-width="2" stroke-miterlimit="10" d="M15.264,53.525
		c2.401,6.002,9.999,6.947,13.086,6.947c12.007,0,16.003-4.086,20.713-9.906c4.717-5.834,6.175-11.365,7.376-17.625"/>
	<path fill="none" stroke="#000000" stroke-width="0.8004" stroke-miterlimit="10" d="M15.264,53.525
		c2.401,6.002,10.016,7.271,13.086,6.947c12.093-1.287,15.304-6.26,18.567-9.908c3.912-4.373,6.689-11.721,7.59-17.897"/>
	<path fill="none" stroke="#000000" stroke-width="2" stroke-linejoin="round" stroke-miterlimit="10" d="M51.019,32.486l3.49,0.183
		l4.713,1.271c-1.163-3.424-1.543-5.458-2.825-8.782C55.33,27.84,53.063,30.21,51.019,32.486z"/>
	<line fill="none" stroke="#000000" stroke-width="2" stroke-miterlimit="10" x1="12.391" y1="54.682" x2="17.24" y2="52.881"/>
	<line fill="none" stroke="#000000" stroke-width="2" stroke-miterlimit="10" x1="47.005" y1="5.281" x2="45.46" y2="9.398"/>
	<polyline fill="none" stroke="#000000" stroke-width="0.8" stroke-miterlimit="10" points="2.598,44.068 5.514,44.068 
		5.857,47.156 	"/>
	<line fill="none" stroke="#000000" stroke-width="0.8" stroke-miterlimit="10" x1="59.546" y1="5.748" x2="59.89" y2="9.933"/>
	<line fill="none" stroke="#000000" stroke-width="0.8" stroke-miterlimit="10" x1="60.062" y1="12.506" x2="59.89" y2="16.452"/>
	<line fill="none" stroke="#000000" stroke-width="0.8" stroke-miterlimit="10" x1="5.685" y1="36.703" x2="5.685" y2="40.98"/>
</g>
</svg>
