<?xml version="1.0" encoding="utf-8"?>
<!-- Generator: Adobe Illustrator 16.0.0, SVG Export Plug-In . SVG Version: 6.00 Build 0)  -->
<!DOCTYPE svg PUBLIC "-//W3C//DTD SVG 1.1//EN" "http://www.w3.org/Graphics/SVG/1.1/DTD/svg11.dtd">
<svg version="1.1" id="Layer_1" xmlns="http://www.w3.org/2000/svg" xmlns:xlink="http://www.w3.org/1999/xlink" x="0px" y="0px"
	 width="65.8px" height="65.801px" viewBox="0 0 65.8 65.801" enable-background="new 0 0 65.8 65.801" xml:space="preserve">
<g id="New_Symbol_14">
	<g>
		<path fill="none" stroke="#000000" stroke-width="0.8004" stroke-miterlimit="10" d="M31.378,24.381c0,0-7.667,1.287-10.333-4.523
			c-1.614-3.516-2.421-12.442,0.768-15.123c2.081-1.747,6.482-0.647,9.565,1.646"/>
		<path fill="none" stroke="#000000" stroke-width="0.8004" stroke-miterlimit="10" d="M21.99,20.395
			c-1.527-3.328-2.85-11.44-0.301-13.782c1.901-1.748,6.772-0.771,9.688,1.77"/>
		
			<line fill="none" stroke="#000000" stroke-width="0.8004" stroke-miterlimit="10" x1="31.378" y1="6.381" x2="31.378" y2="24.381"/>
		<path fill="none" stroke="#000000" stroke-width="0.8004" stroke-miterlimit="10" d="M33.407,24.381c0,0,8.667,0.287,11.334-5.523
			c1.599-3.481,2.441-10.43-0.681-13.987c-2.086-2.377-7.049-0.689-10.653,0.512"/>
		<path fill="none" stroke="#000000" stroke-width="3" stroke-miterlimit="10" d="M31.378,23.381c0,0-7.667,1.287-10.333-4.523"/>
		<path fill="none" stroke="#000000" stroke-width="3" stroke-miterlimit="10" d="M33.407,23.381c0,0,8.667,0.287,11.334-5.523"/>
		<path fill="none" stroke="#000000" stroke-width="0.8004" stroke-miterlimit="10" d="M43.794,19.395
			c1.412-3.078,2.939-8.666,0.847-11.856c-1.859-2.834-6.999-1.568-11.233-0.156"/>
		
			<line fill="none" stroke="#000000" stroke-width="0.8004" stroke-miterlimit="10" x1="33.407" y1="5.381" x2="33.407" y2="24.381"/>
		<path fill="none" stroke="#000000" stroke-width="0.8004" stroke-miterlimit="10" d="M32.795,61.049
			c0,0-3.194-21.848-1.417-36.668"/>
		<path fill="none" stroke="#000000" stroke-width="3" stroke-miterlimit="10" d="M29.999,23.539
			c0.379,7.176-2.246,27.26,2.088,38.592l0.708-1.082"/>
		<path fill="none" stroke="#000000" stroke-width="0.8004" stroke-miterlimit="10" d="M36.378,24.381
			c1,9.5,1.584,30.334-3.583,36.668"/>
		<line fill="none" stroke="#000000" stroke-width="3" stroke-miterlimit="10" x1="29.795" y1="26.549" x2="36.621" y2="26.051"/>
		<path d="M30.128,22.502c0,1.453,1.119,2.629,2.5,2.629c1.381,0,2.5-1.176,2.5-2.629c0-1.451-1.119-2.629-2.5-2.629
			C31.247,19.873,30.128,21.051,30.128,22.502z"/>
	</g>
	<path fill="none" stroke="#000000" stroke-width="0.8004" stroke-miterlimit="10" d="M33.876,51.234c0,0-3.193-21.848-1.417-36.668
		"/>
</g>
</svg>
