<?xml version="1.0" encoding="utf-8"?>
<!-- Generator: Adobe Illustrator 16.0.0, SVG Export Plug-In . SVG Version: 6.00 Build 0)  -->
<!DOCTYPE svg PUBLIC "-//W3C//DTD SVG 1.1//EN" "http://www.w3.org/Graphics/SVG/1.1/DTD/svg11.dtd">
<svg version="1.1" id="Layer_1" xmlns="http://www.w3.org/2000/svg" xmlns:xlink="http://www.w3.org/1999/xlink" x="0px" y="0px"
	 width="65.8px" height="65.801px" viewBox="0 0 65.8 65.801" enable-background="new 0 0 65.8 65.801" xml:space="preserve">
<g id="New_Symbol_6">
	<path fill="none" stroke="#000000" stroke-width="0.8004" stroke-miterlimit="10" d="M32.823,35.699c0,0-3.9-0.09-7.606-1.365
		c-4.112-1.417-6.73-3.073-6.73-3.073s-0.422-0.56-0.288-1.019c0.695-2.393,2.643-9.135,3.494-12.262
		c0.511-1.879,1.68-6.166,2.457-9.572c0.122-0.534,0.423-0.354,0.764-1.25c0.85-2.237,1.809-5.166,1.809-5.166l15.466,4.604
		c0,0-0.16,1.666-1.344,5.606c-0.115,0.384,0.034,0.732-0.102,1.144c-1.018,3.078-2.342,7.168-2.904,8.885
		c-1.027,3.13-3.23,10.024-4.119,12.633C33.535,35.41,32.823,35.699,32.823,35.699z"/>
	<path fill="none" stroke="#000000" stroke-width="3" stroke-miterlimit="10" d="M19.542,31.866
		c0.695-2.393,3.028-10.241,3.879-13.371c0.511-1.879,1.681-6.166,2.457-9.569C26,8.388,26.3,8.571,26.642,7.673
		c0.85-2.236,1.809-5.164,1.809-5.164"/>
	<g>
		<path d="M25.355,1.281c2.786,0.431,5.914,1.167,9.549,2.248c3.457,1.03,7.168,2.532,8.801,3.216l-1.457,3.865
			c-0.301-0.134-0.656-0.297-1.055-0.479c-1.728-0.789-4.336-1.98-6.656-2.72c-3.74-1.19-6.115-1.654-8.211-2.062
			c-0.627-0.122-1.229-0.239-1.833-0.37L25.355,1.281 M25.116,0.437c-0.148,0-0.46,0.317-0.46,0.317L23.625,5.17
			c0,0-0.054,0.422,0.132,0.465c2.869,0.658,5.384,0.897,10.537,2.539c3.037,0.967,6.558,2.717,8.017,3.336
			c0.054,0.021,0.104,0.032,0.15,0.032c0.239,0,0.385-0.251,0.385-0.251l1.759-4.662c0,0-0.066-0.402-0.377-0.533
			c-1.361-0.574-5.386-2.229-9.096-3.334c-4.233-1.26-7.42-1.945-10.002-2.324C25.126,0.437,25.121,0.437,25.116,0.437L25.116,0.437
			z"/>
	</g>
	<path fill="none" stroke="#000000" stroke-width="3" stroke-miterlimit="10" d="M24.559,2.354
		c2.583,0.379,5.769,1.066,10.002,2.326c3.71,1.104,7.733,2.76,9.097,3.334"/>
	<path fill="none" stroke="#000000" stroke-width="3" stroke-miterlimit="10" d="M40.457,14.305c0,0-4.762-2.33-8.755-3.519
		c-3.435-1.022-7.838-1.42-7.838-1.42"/>
	<g>
		<g>
			<path d="M21.685,34.156c0.815,0.41,1.923,0.949,2.486,1.156c1.203,0.439,4.081,0.947,5.63,1.201
				c-0.271,0.93-0.676,2.303-0.939,3.15c-0.117,0.014-0.253,0.021-0.405,0.021c-1.196,0-3.061-0.434-4.378-0.863
				c-1.208-0.395-2.685-1.027-3.26-1.559c-0.012-0.012-0.028-0.027-0.044-0.045L21.685,34.156 M21.127,32.854
				c0,0-0.862,2.896-1.316,4.423c-0.053,0.176,0.28,0.549,0.395,0.654c0.77,0.709,2.514,1.4,3.592,1.752
				c1.226,0.4,3.266,0.908,4.659,0.908c0.206,0,0.397-0.01,0.57-0.035c0.18-0.025,0.552-0.148,0.606-0.32
				c0.396-1.24,1.326-4.457,1.326-4.457s-4.894-0.738-6.477-1.316C23.608,34.141,21.127,32.854,21.127,32.854L21.127,32.854z"/>
		</g>
	</g>
	<path fill="none" stroke="#000000" stroke-width="3" stroke-miterlimit="10" d="M21.134,34.305c0,0,2.226,1.137,3.144,1.465
		c1.574,0.562,1.59,0.559,5.68,1.33"/>
	<path fill="none" stroke="#000000" stroke-width="0.8004" stroke-miterlimit="10" d="M40.111,37.867c0,0,3.314,2.059,7.115,3.016
		c4.219,1.061,7.314,1.105,7.314,1.105s0.66-0.236,0.799-0.693c0.727-2.387,2.779-9.095,3.777-12.179
		c0.601-1.852,1.965-6.082,3.177-9.356c0.19-0.517-0.161-0.525,0.044-1.465c0.511-2.338,1.308-5.312,1.308-5.312L48.179,8.378
		c0,0-0.777,1.483-1.939,5.432c-0.113,0.383-0.43,0.594-0.541,1.012c-0.83,3.134-1.957,7.283-2.424,9.027
		c-0.853,3.183-2.777,10.161-3.459,12.829C39.672,37.236,40.111,37.867,40.111,37.867z"/>
	<path fill="none" stroke="#000000" stroke-width="3" stroke-miterlimit="10" d="M49.75,8.846c0,0-0.776,1.481-1.939,5.43
		c-0.113,0.385-0.429,0.594-0.541,1.015c-0.831,3.131-1.958,7.28-2.425,9.024c-0.853,3.185-2.79,11.027-3.827,13.851"/>
	<g>
		<path d="M46.828,7.674c1.746,0.32,5.682,1.094,9.127,2.118c3.639,1.083,6.662,2.177,9.227,3.338l-1.3,3.569
			c-0.578-0.222-1.144-0.45-1.735-0.69c-1.979-0.804-4.221-1.715-8.006-2.765c-2.346-0.649-5.184-1.077-7.061-1.36
			c-0.432-0.065-0.82-0.124-1.146-0.176L46.828,7.674 M46.654,6.838c-0.289,0-0.516,0.246-0.516,0.246l-1.076,4.864
			c0,0-0.021,0.412,0.328,0.478c1.561,0.279,5.465,0.738,8.536,1.59c5.212,1.443,7.448,2.617,10.211,3.635
			c0.015,0.005,0.028,0.008,0.042,0.008c0.165,0,0.324-0.325,0.324-0.325l1.551-4.263c0,0-0.096-0.463-0.225-0.522
			c-2.368-1.095-5.412-2.263-9.646-3.521c-3.71-1.104-7.983-1.916-9.438-2.18C46.714,6.84,46.683,6.838,46.654,6.838L46.654,6.838z"
			/>
	</g>
	<path fill="none" stroke="#000000" stroke-width="3" stroke-miterlimit="10" d="M65.259,14.465
		c-2.369-1.097-5.413-2.263-9.646-3.521c-3.709-1.104-7.983-1.918-9.438-2.182"/>
	<path fill="none" stroke="#000000" stroke-width="3" stroke-miterlimit="10" d="M45.414,15.78c0,0,5.262,0.652,9.256,1.843
		c3.435,1.021,7.339,3.096,7.339,3.096"/>
	<g>
		<g>
			<path d="M42.195,40.201c1.437,0.635,4.123,1.783,5.371,2.072c0.584,0.137,1.807,0.289,2.715,0.393l-0.912,3.061
				c-0.024,0.006-0.047,0.012-0.063,0.014c-0.124,0.021-0.278,0.031-0.459,0.031c-0.913,0-2.21-0.262-3.123-0.51
				c-1.612-0.434-3.651-1.223-4.465-1.908C41.501,42.5,41.914,41.129,42.195,40.201 M41.627,38.953c0,0-0.979,3.203-1.326,4.457
				c-0.049,0.178,0.194,0.48,0.332,0.602c1.022,0.891,3.427,1.744,4.856,2.127c0.902,0.244,2.312,0.541,3.356,0.541
				c0.222,0,0.427-0.014,0.608-0.043c0.154-0.025,0.636-0.156,0.688-0.334c0.455-1.527,1.316-4.422,1.316-4.422
				s-2.781-0.277-3.688-0.488C46.129,41.01,41.627,38.953,41.627,38.953L41.627,38.953z"/>
		</g>
	</g>
	<path fill="none" stroke="#000000" stroke-width="3" stroke-miterlimit="10" d="M50.66,43.09c0,0-2.484-0.264-3.433-0.492
		c-1.626-0.391-1.638-0.4-5.483-1.99"/>
	<polygon points="39.515,17.282 44.535,18.909 40.714,33.289 34.781,31.659 	"/>
	<path fill="none" stroke="#000000" stroke-width="0.8004" stroke-miterlimit="10" d="M19.542,27.25
		c-7.189,3-11.264,7.14-14.264,10.474c-3,3.332-8.667,9.666-3.333,13.332c5.333,3.668,9.562-0.939,16.228-0.939
		s8.951,2.607,10.278,8.939c1.327,6.334,8.162,10.668,21.3-1c9.91-8.801,13.611-16.75,6.871-20.957"/>
	<path fill="none" stroke="#000000" stroke-width="0.8004" stroke-miterlimit="10" d="M20.542,24.25
		c-7.189,3-11.264,7.141-14.264,10.474c-3,3.332-8.667,9.666-3.333,13.332c5.333,3.668,9.562-0.939,16.228-0.939
		s8.951,2.607,10.278,8.939c1.327,6.334,8.162,10.668,21.3-1c9.91-8.801,13.611-16.75,6.871-20.957"/>
</g>
</svg>
