<?xml version="1.0" encoding="utf-8"?>
<!-- Generator: Adobe Illustrator 16.0.0, SVG Export Plug-In . SVG Version: 6.00 Build 0)  -->
<!DOCTYPE svg PUBLIC "-//W3C//DTD SVG 1.1//EN" "http://www.w3.org/Graphics/SVG/1.1/DTD/svg11.dtd">
<svg version="1.1" id="Layer_1" xmlns="http://www.w3.org/2000/svg" xmlns:xlink="http://www.w3.org/1999/xlink" x="0px" y="0px"
	 width="65.8px" height="65.801px" viewBox="0 0 65.8 65.801" enable-background="new 0 0 65.8 65.801" xml:space="preserve">
<g id="New_Symbol_2">
	<line fill="none" stroke="#000000" stroke-width="2" stroke-miterlimit="10" x1="20.772" y1="63.535" x2="30.081" y2="37.082"/>
	<line fill="none" stroke="#000000" stroke-miterlimit="10" x1="44.54" y1="63.535" x2="35.232" y2="37.082"/>
	<path fill="none" stroke="#000000" stroke-width="3" stroke-miterlimit="10" d="M42.705,11.71c0,5.34-5.383,8.18-9.36,8.18
		c-3.978,0-9.36-2.582-9.36-8.18"/>
	<path fill="none" stroke="#000000" stroke-width="2" stroke-miterlimit="10" d="M26.673,4.437
		c-2.375,0.454-6.921,3.419-6.405,8.407c0.576,5.566,8.011,10.245,13.168,10.245c5.156,0,12.135-4.905,12.135-10.245
		c0-3.439-2.186-5.959-3.934-6.508"/>
	<path fill="none" stroke="#000000" stroke-width="1.0064" stroke-miterlimit="10" d="M24.23,10.695
		c0-6.066,5.294-9.295,9.207-9.295c3.912,0,9.207,2.935,9.207,9.295"/>
	<line fill="none" stroke="#000000" stroke-width="2" stroke-miterlimit="10" x1="21.043" y1="15.9" x2="21.301" y2="25.154"/>
	<line fill="none" stroke="#000000" stroke-width="1.084" stroke-miterlimit="10" x1="43.764" y1="26.445" x2="44.98" y2="15.569"/>
	<path fill="none" stroke="#000000" stroke-width="3" stroke-miterlimit="10" d="M21.301,25.154
		c2.324,5.938,8.004,9.037,14.718,8.004c6.713-1.031,7.745-6.713,7.745-6.713"/>
	
		<line fill="none" stroke="#000000" stroke-width="1.084" stroke-miterlimit="10" x1="40.408" y1="40.731" x2="42.644" y2="29.544"/>
	<path fill="none" stroke="#000000" stroke-width="2" stroke-miterlimit="10" d="M22.076,28.512l1.549,10.797
		c2.84,4.83,12.394,6.502,16.782,1.423"/>
	<line fill="none" stroke="#000000" stroke-width="3" stroke-miterlimit="10" x1="32.359" y1="35.74" x2="27.756" y2="64.4"/>
</g>
</svg>
