<?xml version="1.0" encoding="utf-8"?>
<!-- Generator: Adobe Illustrator 16.0.0, SVG Export Plug-In . SVG Version: 6.00 Build 0)  -->
<!DOCTYPE svg PUBLIC "-//W3C//DTD SVG 1.1//EN" "http://www.w3.org/Graphics/SVG/1.1/DTD/svg11.dtd">
<svg version="1.1" id="Layer_1" xmlns="http://www.w3.org/2000/svg" xmlns:xlink="http://www.w3.org/1999/xlink" x="0px" y="0px"
	 width="65.8px" height="65.801px" viewBox="0 0 65.8 65.801" enable-background="new 0 0 65.8 65.801" xml:space="preserve">
<g id="New_Symbol_12">
	<path fill="none" stroke="#000000" stroke-width="2" stroke-miterlimit="10" d="M34.526,53.857
		c-1.647-0.219-5.897-0.039-7.231-0.09c-4.857-0.187-21.941-0.246-25.646-0.028"/>
	<path fill="none" stroke="#000000" stroke-width="0.8004" stroke-miterlimit="10" d="M2.729,54.844
		c3.704-0.218,19.709-0.333,24.566-0.147c1.334,0.051,4.616-0.145,6.263,0.074c0.596,0.079,0.979-0.69,0.979-0.69
		s-0.268-6.161-0.247-8.218c0.013-1.226,0.247-4.886,0.247-4.886s-0.359-0.799-0.979-0.761c-3.177,0.199-13.699,0.347-17.453,0.304
		c-2.435-0.026-11.353-0.092-13.69-0.288c-0.551-0.049-0.879,0.745-0.879,0.745c-0.271,0.888-0.079,4.719-0.117,5.606
		c-0.038,0.891,0,5.131-0.077,6.473c0,0-0.099,1.825,0.527,1.789c3.704-0.219,20.569-0.334,25.427-0.148
		c1.334,0.051,4.616-0.145,6.264,0.074"/>
	<path fill="none" stroke="#000000" stroke-width="0.8004" stroke-miterlimit="10" d="M27.798,41.288
		c-3.177,0.199-7.939,0.157-11.693,0.113C13.67,41.374,7.2,41.403,4.86,41.206c0,0-0.696,0.553-0.696,0.773
		c0.005,2.396,0.22,5.347,0.189,7.543"/>
	<path fill="none" stroke="#000000" stroke-width="0.8004" stroke-miterlimit="10" d="M4.831,20.504
		c0.025-1.74-0.113-5.897-0.185-7.689c-0.019-0.467,0.709-0.749,0.709-0.749c2.338,0.197,8.314,0.049,10.749,0.076
		c3.754,0.042,12.462-0.024,15.639-0.223"/>
	<path fill="none" stroke="#000000" stroke-width="2" stroke-miterlimit="10" d="M34.325,25.028
		c-1.647-0.218-5.177-0.024-6.51-0.074c-4.857-0.188-20.497-0.247-24.201-0.029c-0.626,0.034-1.637-0.376-1.637-0.891"/>
	<path fill="none" stroke="#000000" stroke-width="0.8004" stroke-miterlimit="10" d="M1.379,12.003c0,0,0.367-1.079,0.917-1.031
		c2.339,0.196,11.374,0.263,13.809,0.291c3.754,0.039,14.276-0.107,17.453-0.306c0.619-0.04,0.979,0.761,0.979,0.761
		s-0.234,3.659-0.247,4.884c-0.021,2.057,0.247,8.22,0.247,8.22s-0.383,0.771-0.979,0.69"/>
	<path fill="none" stroke="#000000" stroke-width="0.8004" stroke-miterlimit="10" d="M64.634,54.08c0,0-0.381,0.771-0.978,0.69
		c-1.647-0.219-4.931-0.023-6.265-0.074c-4.855-0.186-17.094-0.069-20.799,0.147c-0.625,0.037-0.98-0.764-0.98-0.764
		s0.23-3.233,0.246-4.314c0.031-2.196-0.246-8.788-0.246-8.788s0.327-0.794,0.878-0.745c2.338,0.196,7.278,0.262,9.713,0.288
		c3.755,0.043,14.277-0.104,17.453-0.304c0.62-0.038,0.978,0.761,0.978,0.761s-0.233,3.66-0.246,4.886
		C64.368,47.919,64.634,54.08,64.634,54.08z"/>
	<path fill="none" stroke="#000000" stroke-width="2" stroke-miterlimit="10" d="M64.421,53.662
		c-1.647-0.219-5.693,0.156-7.027,0.105c-4.369-0.166-16.766-0.228-21.499-0.106"/>
	<path fill="none" stroke="#000000" stroke-width="2" stroke-miterlimit="10" d="M36.49,40.231c0,0,0.281,7.337,0.25,9.533
		c-0.016,1.081-0.25,2.146-0.25,2.146c0.117,1.448,1.639,1.45,1.639,1.45"/>
	<path fill="none" stroke="#000000" stroke-width="0.8004" stroke-miterlimit="10" d="M4.435,35.135
		c0.01-2.197-0.063-7.635-0.063-7.635c-0.032-0.388-0.058-0.67,0.254-0.645c0.729,0.059,4.028-0.115,4.762-0.088"/>
	<path fill="none" stroke="#000000" stroke-width="2" stroke-miterlimit="10" d="M14.009,39.29c-0.581-0.017-1.48-0.044-1.885-0.072
		c-1.578-0.117-8.306-0.069-9.42,0.146c-0.189,0.036-0.296-0.764-0.296-0.764"/>
	<path fill="none" stroke="#000000" stroke-width="0.8004" stroke-miterlimit="10" d="M1.167,26.467c0,0,0.098-0.913,0.264-0.865
		c0.703,0.195,5.665,0.261,6.398,0.289c1.128,0.043,4.296-0.105,5.252-0.306c0.187-0.037,0.294,0.762,0.294,0.762
		s-0.071,3.661-0.074,4.886c-0.006,2.057,0.074,6.703,0.074,6.703s0.077,0.791-0.547,0.762"/>
	<path fill="none" stroke="#000000" stroke-width="3" stroke-miterlimit="10" d="M3.119,39.194C1.689,40.357,1.918,43.35,2,49.73
		c0.013,0.995,0.5,3.312,0.5,3.312"/>
	<path fill="none" stroke="#000000" stroke-width="3" stroke-miterlimit="10" d="M2.559,10.99c-0.426,3.023,0.132,7.387,0.102,9.516
		c-0.016,1.079-0.447,3.111-0.102,4.089"/>
	<path fill="none" stroke="#000000" stroke-width="3" stroke-miterlimit="10" d="M2.191,26.006
		c-0.154,2.319,0.083,6.932,0.075,9.129c-0.005,1.083,0.235,4.418,0.235,4.418"/>
	<path fill="none" stroke="#000000" stroke-width="0.8004" stroke-miterlimit="10" d="M43.75,39.45c0,0-0.382,0.77-0.977,0.689
		c-1.648-0.218-4.93-0.022-6.264-0.073c-4.856-0.188-17.096-0.069-20.8,0.147c-0.625,0.035-0.982-0.765-0.982-0.765
		s0.231-3.231,0.247-4.314c0.032-2.197-0.247-8.788-0.247-8.788s0.328-0.793,0.879-0.745c2.338,0.195,7.278,0.261,9.712,0.289
		c3.754,0.043,14.277-0.105,17.454-0.306c0.618-0.037,0.978,0.762,0.978,0.762s-0.232,3.661-0.246,4.886
		C43.482,33.289,43.75,39.45,43.75,39.45z"/>
	<path fill="none" stroke="#000000" stroke-width="2" stroke-miterlimit="10" d="M43.75,39.45c-1.648-0.218-5.906-0.261-7.24-0.312
		c-4.856-0.188-17.096-0.069-20.8,0.146"/>
	<path fill="none" stroke="#000000" stroke-width="2" stroke-miterlimit="10" d="M14.78,40.214c0,0,0.131-3.996,0.146-5.079
		c0.044-3.097,0.151-3.934,0.018-9.787"/>
	<path fill="none" stroke="#000000" stroke-width="0.8004" stroke-miterlimit="10" d="M17.178,36.063
		c0.031-2.198-0.171-8.492-0.171-8.492s0.328-0.793,0.879-0.745c2.338,0.195,17.226-0.043,19.661-0.066"/>
	<path fill="none" stroke="#000000" stroke-width="0.8004" stroke-miterlimit="10" d="M38.644,50.693
		c0.037-2.566,0.017-2.557-0.247-8.789c0,0,0.327-0.793,0.878-0.744c2.338,0.195,15.482,0.458,17.914,0.317"/>
</g>
</svg>
