<?xml version="1.0" encoding="utf-8"?>
<!-- Generator: Adobe Illustrator 16.0.0, SVG Export Plug-In . SVG Version: 6.00 Build 0)  -->
<!DOCTYPE svg PUBLIC "-//W3C//DTD SVG 1.1//EN" "http://www.w3.org/Graphics/SVG/1.1/DTD/svg11.dtd">
<svg version="1.1" id="Layer_1" xmlns="http://www.w3.org/2000/svg" xmlns:xlink="http://www.w3.org/1999/xlink" x="0px" y="0px"
	 width="65.8px" height="65.801px" viewBox="0 0 65.8 65.801" enable-background="new 0 0 65.8 65.801" xml:space="preserve">
<g id="New_Symbol_4">
	<g>
		<g>
			<path fill="none" stroke="#000000" stroke-width="0.755" stroke-miterlimit="10" d="M18.817,46.317
				c-5,7.666,0.476,14.147,4.258,16.001"/>
		</g>
		<path fill="none" stroke="#000000" stroke-width="0.755" stroke-miterlimit="10" d="M61.712,51.437
			c-7.101,6.911-26.79,12.915-32.496,12.004"/>
		<path fill="none" stroke="#000000" stroke-width="0.755" stroke-miterlimit="10" d="M60.067,52.016
			c-6.751,4.634-11.084,5.227-18.167,6.551"/>
		<path fill="none" stroke="#000000" stroke-width="3" stroke-miterlimit="10" d="M61.712,51.437
			c-3.342,6.236-17.75,11.026-27.909,10.582"/>
		<path fill="none" stroke="#000000" stroke-width="0.755" stroke-miterlimit="10" d="M51.208,51.734
			c2.708-0.259,6.335,0.384,10.506-0.298"/>
		<path fill="none" stroke="#000000" stroke-width="3" stroke-miterlimit="10" d="M62.967,40.544
			c-1.008,4.331-10.331,9.537-11.76,11.19"/>
		<path fill="none" stroke="#000000" stroke-width="0.755" stroke-miterlimit="10" d="M62.967,40.544
			c-1.008,4.331-12.639,6.952-14.067,8.605"/>
		<path fill="none" stroke="#000000" stroke-width="0.755" stroke-miterlimit="10" d="M45.398,43.07
			c5.218-0.04,11.615-1.735,17.569-2.526"/>
		<path fill="none" stroke="#000000" stroke-width="3" stroke-miterlimit="10" d="M59.47,31.016
			c-4.309,2.735-13.662,7.429-14.072,12.054"/>
		<path fill="none" stroke="#000000" stroke-width="0.755" stroke-miterlimit="10" d="M18.817,46.317
			c3.708-5.167,11.716-7.162,11.021-5.417c-0.431,1.084-1.936,1.823-2.021,2.751c1.366-0.014,8.418-1.313,10.333,0.083
			c0,0-6.377,2.96-5.917,4.667c0,0,8.336,1.221,8.792,1.937c-1.5,1.083-4.771,2.542-5.938,4.625c5.188,0.75,3.625,1.875,6.188,2.062
			c-2.334,3.833-2.942,3.741-4.875,4.998c-2.75,1.788-6.916,2.544-12.892,0.504"/>
		<path fill="none" stroke="#000000" stroke-width="0.755" stroke-miterlimit="10" d="M20.919,44.273
			c9.478-6.889,36.154-15.941,38.551-13.258"/>
		<path fill="none" stroke="#000000" stroke-width="0.755" stroke-miterlimit="10" d="M32.567,39.566
			c7.833-3.417,23.55-10.317,25.625-7.764"/>
	</g>
	<g>
		<g>
			<g>
				<path fill="none" stroke="#000000" stroke-width="1.084" stroke-miterlimit="10" d="M35.817,14.816
					c0.187-2.774-0.108-5.896-2.007-7.995c-0.211-0.23,0.128-0.371-0.102-0.592c-3.104-3.025-8.306-5.158-11.143-5.158
					c-2.807,0-5.85,1.206-7.906,3.083c-0.303,0.276-0.1,0.604-0.381,0.905c-2.838,3.045-4.516,7.29-4.273,10.727"/>
				<path fill="none" stroke="#000000" stroke-miterlimit="10" d="M33.708,6.229c-2.671-1.832-6.314,0.49-5.186,3.774
					c1.128,3.288,2.557,4.828,4.569,5.34c1.515,0.385,3.26-0.387,3.26-0.871"/>
				<path fill="none" stroke="#000000" stroke-width="1.084" stroke-miterlimit="10" d="M9.578,15.651
					c0,7.395,7.464,12.8,13.606,12.939c7.394,0,13.282-8.106,13.17-14.118"/>
				<path fill="none" stroke="#000000" stroke-width="1.084" stroke-miterlimit="10" d="M14.661,4.154
					c4.508,0.195,6.058,2.46,6.058,4.669c0,2.21,0.206,3.232-2.259,5.288c-2.465,2.056-5.906,2.57-7.394,2.056
					c-0.553-0.23-1.489-0.516-1.489-0.516"/>
			</g>
			<path fill="none" stroke="#000000" stroke-width="2" stroke-miterlimit="10" d="M11.461,8.33
				C5.374,8.453,1.056,11.547,1.156,13.547c0.154,3.081,5.726,6.532,10.166,7.856c8.78,2.618,20.333,1.694,27.11-0.771
				c3.389-1.232,5.967-4.036,5.545-6.623c-0.284-1.75-4.052-3.952-9.177-5.188"/>
			<path fill="none" stroke="#000000" stroke-miterlimit="10" d="M9.974,11.776c-6.087,0.123-7.883,2.116-7.783,4.116
				c0.154,3.081,4.537,5.574,8.978,6.896c8.78,2.619,20.178,2.003,26.956-0.462c3.391-1.231,6.275-3.266,5.854-5.854
				c-0.284-1.749-2.812-2.851-7.937-4.084"/>
			<path fill="none" stroke="#000000" stroke-miterlimit="10" d="M19.795,22.328c-1.569-1.251-0.106-4.33,1.332-4.638
				c1.438-0.31,3.187-0.284,5.137,0.84c1.13,1.438,1.643,4.723,0,5.441C24.622,24.691,22.869,24.78,19.795,22.328z"/>
		</g>
	</g>
</g>
</svg>
