<?xml version="1.0" encoding="utf-8"?>
<!-- Generator: Adobe Illustrator 16.0.0, SVG Export Plug-In . SVG Version: 6.00 Build 0)  -->
<!DOCTYPE svg PUBLIC "-//W3C//DTD SVG 1.1//EN" "http://www.w3.org/Graphics/SVG/1.1/DTD/svg11.dtd">
<svg version="1.1" id="Layer_1" xmlns="http://www.w3.org/2000/svg" xmlns:xlink="http://www.w3.org/1999/xlink" x="0px" y="0px"
	 width="65.8px" height="65.801px" viewBox="0 0 65.8 65.801" enable-background="new 0 0 65.8 65.801" xml:space="preserve">
<g id="New_Symbol_16">
	<path fill="none" stroke="#000000" stroke-width="0.8004" stroke-miterlimit="10" d="M31.369,15.828c0,0-0.171,13.197-0.555,22.863
		c-0.434,10.939-0.626,20.755-0.646,21.852c-0.041,2.124,1.848,2.958,4.065,2.958s4.435-1.479,4.064-3.144
		c-0.585-9.412-0.525-16.051-0.832-22.497c-0.562-11.901-0.554-22.032-0.554-22.032"/>
	<path fill="none" stroke="#000000" stroke-width="0.8004" stroke-miterlimit="10" d="M32.9,15.828c0,0-0.171,13.197-0.555,22.863
		c-0.434,10.939-0.625,20.755-0.646,21.852"/>
	<path fill="none" stroke="#000000" stroke-width="2.558" stroke-miterlimit="10" d="M30.953,46.452
		c-0.106,4.887,0.31,13.3,0.323,14.09c0.035,2.064,1.38,2.941,3.598,2.941"/>
	<path fill="none" stroke="#000000" stroke-width="0.8588" stroke-miterlimit="10" d="M25.641,15.432c0,0,6.521,0.944,8.707,0.946
		c2.253,0.003,8.979-0.946,8.979-0.946s0.816-3.006,0.816-7.277c0-3.164-0.816-5.854-0.816-5.854l-9.252,0.633l-8.299-0.633
		c0,0-1.359,3.956-1.359,6.327C24.417,11.003,25.641,15.432,25.641,15.432z"/>
	<path fill="none" stroke="#000000" stroke-width="0.8588" stroke-miterlimit="10" d="M23.572,3.683
		c-0.398,1.369-0.929,3.468-0.929,4.946c0,0.73,0.117,1.661,0.278,2.595"/>
	<path fill="none" stroke="#000000" stroke-width="2.7447" stroke-miterlimit="10" d="M44.924,13.999c0,0,0.408-2.011,0.408-5.112
		c0-2.302-0.347-4.257-0.347-4.257"/>
	<path fill="none" stroke="#000000" stroke-width="0.8588" stroke-miterlimit="10" d="M43.91,4.655l4.596,0.3
		c0,0,0.893,3.271,0.893,5.354c0,2.083-1.338,3.717-1.338,3.717l-4.479-0.15"/>
	<path fill="none" stroke="#000000" stroke-width="0.8588" stroke-miterlimit="10" d="M25.16,3.887
		c-3.918,0.548-6.84,1.786-8.327,6.396c-0.744,2.677-0.744,3.716,1.784,3.716c2.974-1.188,0.927-1.892,6.429-0.998"/>
	<path fill="none" stroke="#000000" stroke-width="2.7447" stroke-miterlimit="10" d="M16.882,13.109
		c2.974-0.1,2.676-2.775,8.164-1.297"/>
	<polyline fill="none" stroke="#000000" stroke-width="2.558" stroke-miterlimit="10" points="31.302,17.583 34.232,18.18 
		36.97,17.766 	"/>
</g>
</svg>
