<?xml version="1.0" encoding="utf-8"?>
<!-- Generator: Adobe Illustrator 16.0.0, SVG Export Plug-In . SVG Version: 6.00 Build 0)  -->
<!DOCTYPE svg PUBLIC "-//W3C//DTD SVG 1.1//EN" "http://www.w3.org/Graphics/SVG/1.1/DTD/svg11.dtd">
<svg version="1.1" id="Layer_1" xmlns="http://www.w3.org/2000/svg" xmlns:xlink="http://www.w3.org/1999/xlink" x="0px" y="0px"
	 width="65.8px" height="65.801px" viewBox="0 0 65.8 65.801" enable-background="new 0 0 65.8 65.801" xml:space="preserve">
<g id="New_Symbol_8">
	<g>
		<path fill="none" stroke="#000000" stroke-width="0.8004" stroke-miterlimit="10" d="M27.249,49.736
			c0-8.096-1.633-15.729,7.54-14.658c4.707,0.551,8.581,6.562,8.581,14.658s-3.896,13.943-8.581,14.658
			C26.674,65.635,27.249,57.832,27.249,49.736z"/>
		<path fill="none" stroke="#000000" stroke-width="0.8004" stroke-miterlimit="10" d="M43.37,47.904
			c0,8.096-3.896,13.943-8.581,14.658"/>
		<path fill="none" stroke="#000000" stroke-width="0.8004" stroke-miterlimit="10" d="M10.48,49.736
			c0-8.096,3.507-15.424,8.186-14.658c7.214,1.182,8.582,6.562,8.582,14.658s-0.84,15.436-8.582,14.658
			C13.951,63.922,10.48,57.832,10.48,49.736z"/>
		<path fill="none" stroke="#000000" stroke-width="0.8004" stroke-miterlimit="10" d="M10.48,51.568
			c0-8.096,3.507-15.424,8.186-14.658"/>
		<path fill="none" stroke="#000000" stroke-width="3" stroke-linecap="round" stroke-miterlimit="10" d="M34.789,63.479
			c-8.115,1.24-7.54-5.645-7.54-13.74c0-8.098-1.693-15.471,7.479-14.398"/>
		<path fill="none" stroke="#000000" stroke-width="3" stroke-linecap="round" stroke-miterlimit="10" d="M18.667,35.994
			c7.214,1.182,7.666,5.646,7.666,13.742s0.076,14.52-7.666,13.742"/>
	</g>
	<path fill="none" stroke="#000000" stroke-width="0.8004" stroke-miterlimit="10" d="M40.778,17.527
		C41.093,6.17,47.716,4.453,52.134,4.453c6.491,0,11.752,5.374,11.752,13.47c0,8.097-3.074,13.584-11.316,14.223
		C46.097,32.647,40.455,29.159,40.778,17.527z"/>
	<path fill="none" stroke="#000000" stroke-width="0.8004" stroke-miterlimit="10" d="M53.485,31.211
		c-6.472,0.467-12.114-2.78-11.792-13.604C42.007,7.042,48.632,5.442,53.05,5.442"/>
	<path fill="none" stroke="#000000" stroke-width="4" stroke-linecap="round" stroke-miterlimit="10" d="M51.675,5.52
		c6.188,0.021,12.856,4.709,13.127,12.8c0.229,6.841-4.274,10.86-10.228,12.311"/>
	<g>
		<path fill="none" stroke="#000000" stroke-width="0.8004" stroke-miterlimit="10" d="M26.41,16.211
			c4.778,0,7.859,1.86,7.859,6.601c0,4.739-3.875,8.581-8.651,8.581s-7.859-3.051-7.859-7.789
			C17.759,18.865,21.633,16.211,26.41,16.211z"/>
		<path fill="none" stroke="#000000" stroke-width="0.8004" stroke-miterlimit="10" d="M34.062,20.851
			c0,4.739-3.667,8.955-8.444,8.955"/>
		<path fill="none" stroke="#000000" stroke-width="2" stroke-linecap="round" stroke-miterlimit="10" d="M26.432,30.249
			c-4.778,0-7.758-1.906-7.758-6.646c0-4.738,4.474-7.757,9.251-7.757"/>
		<path fill="none" stroke="#000000" stroke-width="0.8004" stroke-miterlimit="10" d="M26.015,2.465c4.778,0,8.65,3.843,8.65,8.581
			c0,4.741-3.478,5.018-8.255,5.018s-9.046-1.466-9.046-6.205S21.236,2.465,26.015,2.465z"/>
		<path fill="none" stroke="#000000" stroke-width="0.8004" stroke-miterlimit="10" d="M28.912,2.959
			c3.383,3.104,4.539,4.428,4.837,7.171c0.513,4.713-3.477,5.018-8.255,5.018"/>
		<path fill="none" stroke="#000000" stroke-width="2" stroke-linecap="round" stroke-miterlimit="10" d="M27.249,15.618
			c-4.776,0-9.778-2.13-9.778-6.87"/>
		<path fill="none" stroke="#000000" stroke-width="0.8004" stroke-miterlimit="10" d="M9.289,16.211c4.777,0,8.65,2.653,8.65,7.393
			c0,4.738-4.188,8.02-8.966,8.02s-8.509-2.354-8.336-8.02C0.782,18.867,4.511,16.211,9.289,16.211z"/>
		<path fill="none" stroke="#000000" stroke-width="2" stroke-linecap="round" stroke-miterlimit="10" d="M8.891,15.847
			c4.778,0,7.81,3.019,7.81,7.757s-4.82,7.257-9.597,7.257"/>
		<path fill="none" stroke="#000000" stroke-width="0.8004" stroke-miterlimit="10" d="M8.891,1.276
			c4.778,0,8.651,3.844,8.651,8.582c0,4.739-3.477,6.204-8.254,6.204c-4.778,0-9.049-1.465-9.049-6.204
			C0.24,5.12,4.115,1.276,8.891,1.276z"/>
		<path fill="none" stroke="#000000" stroke-width="0.8004" stroke-miterlimit="10" d="M11.902,15.147
			C6.174,15.618,0.24,13.681,0.24,8.942"/>
		<path fill="none" stroke="#000000" stroke-width="2" stroke-linecap="round" stroke-miterlimit="10" d="M7.221,15.961
			c5.022,0,9.83-1.137,9.406-7.02c-0.136-1.896-1.371-3.757-1.371-3.757"/>
	</g>
	<path d="M18.425,39.025c-1.199,0-2.172,0.885-2.172,1.98c0,1.094,0.973,1.98,2.172,1.98c1.201,0,2.174-0.889,2.174-1.98
		C20.598,39.91,19.625,39.025,18.425,39.025z M17.968,40.385c-0.461,0.432-1.004,1.244-1.211,1.021s0.18-1.262,0.912-1.748
		c0.525-0.35,1.693-0.102,1.9,0.121C19.775,40.002,18.43,39.953,17.968,40.385z"/>
	<path d="M36.179,41.814c-1.199,0-2.172,0.885-2.172,1.98c0,1.094,0.973,1.979,2.172,1.979c1.201,0,2.174-0.887,2.174-1.979
		C38.353,42.699,37.38,41.814,36.179,41.814z M35.709,43.17c-0.461,0.432-1.004,1.244-1.211,1.023
		c-0.206-0.225,0.181-1.264,0.912-1.75c0.526-0.348,1.694-0.1,1.899,0.123C37.517,42.787,36.173,42.74,35.709,43.17z"/>
	<path d="M49.779,21.522c-1.199,0-2.172,0.887-2.172,1.98s0.973,1.979,2.172,1.979c1.201,0,2.174-0.887,2.174-1.979
		C51.953,22.409,50.98,21.522,49.779,21.522z M50,22.639c-0.63,0-1.583,0.228-1.583-0.075c0-0.306,0.992-0.804,1.858-0.658
		c0.622,0.102,1.309,1.08,1.309,1.383S50.632,22.639,50,22.639z"/>
	<path d="M8.414,20.124c-1.094,0-1.98,0.973-1.98,2.174c0,0.062,0.012,0.12,0.016,0.181c0.543,0.145,1.668,0.599,2.108,0.461
		c0.602-0.19,1.441-0.691,1.533-0.402c0.092,0.289-0.705,1.062-1.574,1.187c-0.46,0.063-1.472-0.477-2.014-0.882
		c0.221,0.937,0.989,1.629,1.911,1.629c1.095,0,1.982-0.972,1.982-2.172C10.396,21.096,9.509,20.124,8.414,20.124z"/>
	<path d="M9.673,6.496c-0.878,0-1.614,0.63-1.874,1.497c0.406,0.443,1.058,1.271,1.473,1.369c0.613,0.146,1.592,0.147,1.521,0.442
		c-0.07,0.295-1.15,0.549-1.959,0.209C8.474,9.862,7.998,9.14,7.703,8.542C7.701,8.584,7.692,8.625,7.692,8.667
		c0,1.201,0.887,2.174,1.982,2.174c1.093,0,1.979-0.973,1.979-2.174C11.652,7.469,10.765,6.496,9.673,6.496z"/>
	<path d="M25.108,8.421c0-1.2-0.886-2.174-1.98-2.174c-1.094,0-1.981,0.974-1.981,2.174s0.887,2.172,1.981,2.172
		C24.222,10.593,25.108,9.622,25.108,8.421z M21.657,8.905c-0.207-0.224,0.18-1.263,0.911-1.748c0.525-0.351,1.693-0.103,1.9,0.121
		c0.207,0.223-1.138,0.175-1.601,0.604C22.407,8.312,21.863,9.126,21.657,8.905z"/>
	<path d="M23.183,24.446c-0.207-0.224,0.18-1.263,0.911-1.749c0.279-0.186,0.953-0.206,1.557-0.156
		c-0.293-0.188-0.63-0.303-0.994-0.303c-1.094,0-1.98,0.973-1.98,2.173c0,1.199,0.887,2.172,1.98,2.172
		c1.093,0,1.981-0.973,1.981-2.172c0-0.547-0.191-1.042-0.495-1.424c-0.608,0.083-1.473,0.179-1.749,0.437
		C23.932,23.854,23.389,24.667,23.183,24.446z"/>
</g>
</svg>
