<?xml version="1.0" encoding="utf-8"?>
<!-- Generator: Adobe Illustrator 16.0.0, SVG Export Plug-In . SVG Version: 6.00 Build 0)  -->
<!DOCTYPE svg PUBLIC "-//W3C//DTD SVG 1.1//EN" "http://www.w3.org/Graphics/SVG/1.1/DTD/svg11.dtd">
<svg version="1.1" id="Layer_1" xmlns="http://www.w3.org/2000/svg" xmlns:xlink="http://www.w3.org/1999/xlink" x="0px" y="0px"
	 width="65.8px" height="65.801px" viewBox="0 0 65.8 65.801" enable-background="new 0 0 65.8 65.801" xml:space="preserve">
<g id="New_Symbol">
	<line fill="none" stroke="#000000" stroke-width="3" stroke-miterlimit="10" x1="22.285" y1="4.489" x2="37.725" y2="31.232"/>
	<line fill="none" stroke="#000000" stroke-miterlimit="10" x1="25.436" y1="2.933" x2="40.641" y2="28.991"/>
	<path fill="none" stroke="#000000" stroke-miterlimit="10" d="M35.699,52.116c0,0-10.163,0.126-12.634-3.453
		c-3.007-4.356,1.21-18.232,1.21-18.232l4.481-15.373"/>
	<path fill="none" stroke="#000000" stroke-width="3" stroke-miterlimit="10" d="M35.699,52.116l-11.908,0.451
		c0,0-5.463,0.832-7.687-2.812c-2.729-4.471,5.463-24.5,5.463-24.5l5.875-11.385"/>
	<line fill="none" stroke="#000000" stroke-miterlimit="10" x1="35.699" y1="52.116" x2="37.606" y2="42.426"/>
	<line fill="none" stroke="#000000" stroke-width="3" stroke-miterlimit="10" x1="19.057" y1="60.001" x2="23.619" y2="53.916"/>
	<line fill="none" stroke="#000000" stroke-width="3" stroke-miterlimit="10" x1="29.269" y1="51.659" x2="34.083" y2="60.001"/>
	<line fill="none" stroke="#000000" stroke-miterlimit="10" x1="14.139" y1="59.729" x2="48.703" y2="59.729"/>
	<polygon fill="none" stroke="#000000" stroke-miterlimit="10" points="50.815,34.759 32.055,39.367 32.901,42.635 51.662,38.026 	
		"/>
	<line fill="none" stroke="#000000" stroke-width="3" stroke-miterlimit="10" x1="32.901" y1="42.635" x2="51.662" y2="38.026"/>
	<line fill="none" stroke="#000000" stroke-width="3" stroke-miterlimit="10" x1="14.139" y1="62.87" x2="48.703" y2="62.87"/>
</g>
</svg>
