<?xml version="1.0" encoding="utf-8"?>
<!-- Generator: Adobe Illustrator 16.0.0, SVG Export Plug-In . SVG Version: 6.00 Build 0)  -->
<!DOCTYPE svg PUBLIC "-//W3C//DTD SVG 1.1//EN" "http://www.w3.org/Graphics/SVG/1.1/DTD/svg11.dtd">
<svg version="1.1" xmlns="http://www.w3.org/2000/svg" xmlns:xlink="http://www.w3.org/1999/xlink" x="0px" y="0px"
	 width="68.327px" height="80.333px" viewBox="87.887 -9.24 68.327 80.333" enable-background="new 87.887 -9.24 68.327 80.333"
	 xml:space="preserve">
<g id="Layer_1">
	<path fill="#FFFFFF" d="M150.257,0.712c-3.067-3.166-8.456-3.27-11.637-0.18L123.357,15.31c-0.596,0.574-0.936,1.364-0.946,2.188
		c-0.017,0.822,0.3,1.621,0.876,2.211l2.208,2.275l-1.604,4.373l-0.622,1.704l-1.176-1.215c-0.165-0.169-0.334-0.328-0.502-0.488
		c-3.965-3.789-8.981-5.042-13.54-3.348c-3.512,1.312-6.305,4.257-7.854,8.288l-3.272,8.479l-3.126,8.102
		c-1.567,4.061-1.299,7.148-0.517,9.324c0.598,1.672,1.498,2.805,2.104,3.434c1.166,1.189,4.165,3.518,9.312,2.812
		c1.044-0.145,2.166-0.4,3.386-0.826l16.772-5.867l0.351-0.135c2.161-0.805,3.992-1.988,5.445-3.434
		c1.655-1.648,2.812-3.645,3.314-5.881c0.263-1.162,0.339-2.342,0.246-3.52c-0.242-3.104-1.689-6.178-4.213-8.779l-1.926-1.986
		l2.223-6.075l0.117,0.121c0.885,0.909,2.195,1.165,3.319,0.747c0.282-0.107,0.546-0.27,0.795-0.462
		c0.097-0.072,0.194-0.135,0.28-0.22l15.26-14.784C153.32,9.198,153.412,3.971,150.257,0.712z"/>
</g>
<g id="Layer_5">
	<g>
		<polygon fill="#FFFFFF" points="131.803,24.75 151.413,5.816 142.78,-1.145 120.653,17.459 		"/>
		<polygon fill="#FFFFFF" points="104.697,23.408 98.699,40.652 111.256,21.627 		"/>
		<polygon fill="#FFFFFF" points="133.953,46.553 147.759,15.931 134.152,29.068 131.589,36.755 		"/>
		<polygon fill="#FFFFFF" points="94.084,58.381 98.217,62.72 114.437,47.325 		"/>
		<polygon fill="#FFFFFF" points="102.938,63.139 131.869,53.063 128.455,38.92 		"/>
		<polygon fill="#FFFFFF" points="117.028,19.334 93.835,54.472 128.15,35.832 130.676,28.259 		"/>
	</g>
</g>
<g id="Layer_3">
	<g>
		<polygon fill="#FFFFFF" points="147.484,26.935 154.263,27.154 139.729,-4.148 123.308,18.429 		"/>
		<polygon fill="#FFFFFF" points="92.156,31.724 116.107,19.254 102.28,10.49 		"/>
		<polygon fill="#FFFFFF" points="132.747,38.573 135.44,63.59 154.054,31.15 147.565,30.94 		"/>
		<polygon fill="#FFFFFF" points="91.827,38.369 111.302,64.7 127.072,39.328 		"/>
		<polygon fill="#FFFFFF" points="113.167,67.382 132.988,68.841 129.927,40.418 		"/>
		<polygon fill="#FFFFFF" points="144.591,29.097 120.188,20.512 91.662,35.364 130.382,36.417 		"/>
		<polygon fill="#FFFFFF" points="137.245,-5.833 103.623,7.789 119.854,18.078 		"/>
	</g>
</g>
<g id="Layer_6">
	<g>
		<polygon fill="#FFFFFF" points="133.605,19.717 153.012,11.446 143.879,-4.757 122.437,11.555 		"/>
		<polygon fill="#FFFFFF" points="91.379,42.989 114.717,13.003 91.97,7.835 		"/>
		<polygon fill="#FFFFFF" points="143.928,48.785 152.804,16.431 135.748,23.7 137.188,35.698 		"/>
		<polygon fill="#FFFFFF" points="94.261,50.52 118.135,66.635 130.817,39.926 		"/>
		<polygon fill="#FFFFFF" points="121.636,67.137 143.083,54.523 135.041,38.908 		"/>
		<polygon fill="#FFFFFF" points="118.887,13.145 92.034,47.648 133.767,35.554 132.251,22.911 		"/>
		<polygon fill="#FFFFFF" points="139.634,-5.773 94.718,4.995 118.406,10.377 		"/>
	</g>
</g>
</svg>
