<?xml version="1.0" encoding="utf-8"?>
<!-- Generator: Adobe Illustrator 16.0.0, SVG Export Plug-In . SVG Version: 6.00 Build 0)  -->
<!DOCTYPE svg PUBLIC "-//W3C//DTD SVG 1.1//EN" "http://www.w3.org/Graphics/SVG/1.1/DTD/svg11.dtd">
<svg version="1.1" xmlns="http://www.w3.org/2000/svg" xmlns:xlink="http://www.w3.org/1999/xlink" x="0px" y="0px"
	 width="56.999px" height="62.13px" viewBox="94.113 -0.139 56.999 62.13" enable-background="new 94.113 -0.139 56.999 62.13"
	 xml:space="preserve">
<g id="Layer_1">
	<path fill="#B26CFF" d="M148.913,2.179c-2.918-3.012-8.045-3.11-11.071-0.17l-14.521,14.06c-0.566,0.546-0.89,1.297-0.9,2.08
		c-0.016,0.782,0.285,1.543,0.833,2.104l2.101,2.165l-1.525,4.161l-0.592,1.621l-1.118-1.157c-0.157-0.162-0.318-0.312-0.478-0.464
		c-3.772-3.605-8.544-4.797-12.882-3.185c-3.341,1.248-5.999,4.049-7.473,7.884l-3.114,8.067l-2.975,7.709
		c-1.491,3.862-1.235,6.799-0.492,8.87c0.569,1.589,1.425,2.668,2.002,3.267c1.109,1.131,3.962,3.348,8.86,2.677
		c0.993-0.139,2.06-0.381,3.221-0.786l15.956-5.584l0.334-0.128c2.056-0.766,3.798-1.891,5.18-3.267
		c1.575-1.569,2.676-3.467,3.154-5.595c0.25-1.105,0.323-2.228,0.233-3.349c-0.229-2.953-1.606-5.877-4.008-8.353l-1.831-1.889
		l2.114-5.78l0.11,0.114c0.842,0.865,2.089,1.109,3.159,0.711c0.269-0.104,0.52-0.257,0.756-0.44
		c0.092-0.068,0.185-0.128,0.268-0.209l14.518-14.065C151.829,10.253,151.916,5.28,148.913,2.179z"/>
</g>
<g id="Layer_2">
	<path fill="#6DB950" d="M148.913,2.179c-2.918-3.012-8.045-3.11-11.071-0.17l-14.521,14.06c-0.566,0.546-0.89,1.297-0.9,2.08
		c-0.016,0.782,0.285,1.543,0.833,2.104l2.101,2.165l-1.525,4.161l-0.592,1.621l-1.118-1.157c-0.157-0.162-0.318-0.312-0.478-0.464
		c-3.772-3.605-8.544-4.797-12.882-3.185c-3.341,1.248-5.999,4.049-7.473,7.884l-3.114,8.067l-2.975,7.709
		c-1.491,3.862-1.235,6.799-0.492,8.87c0.569,1.589,1.425,2.668,2.002,3.267c1.109,1.131,3.962,3.348,8.86,2.677
		c0.993-0.139,2.06-0.381,3.221-0.786l15.956-5.584l0.334-0.128c2.056-0.766,3.798-1.891,5.18-3.267
		c1.575-1.569,2.676-3.467,3.154-5.595c0.25-1.105,0.323-2.228,0.233-3.349c-0.229-2.953-1.606-5.877-4.008-8.353l-1.831-1.889
		l2.114-5.78l0.11,0.114c0.842,0.865,2.089,1.109,3.159,0.711c0.269-0.104,0.52-0.257,0.756-0.44
		c0.092-0.068,0.185-0.128,0.268-0.209l14.518-14.065C151.829,10.253,151.916,5.28,148.913,2.179z"/>
</g>
<g id="Layer_3">
	<path fill="#5351CF" d="M148.913,2.179c-2.918-3.012-8.045-3.11-11.071-0.17l-14.521,14.06c-0.566,0.546-0.89,1.297-0.9,2.08
		c-0.016,0.782,0.285,1.543,0.833,2.104l2.101,2.165l-1.525,4.161l-0.592,1.621l-1.118-1.157c-0.157-0.162-0.318-0.312-0.478-0.464
		c-3.772-3.605-8.544-4.797-12.882-3.185c-3.341,1.248-5.999,4.049-7.473,7.884l-3.114,8.067l-2.975,7.709
		c-1.491,3.862-1.235,6.799-0.492,8.87c0.569,1.589,1.425,2.668,2.002,3.267c1.109,1.131,3.962,3.348,8.86,2.677
		c0.993-0.139,2.06-0.381,3.221-0.786l15.956-5.584l0.334-0.128c2.056-0.766,3.798-1.891,5.18-3.267
		c1.575-1.569,2.676-3.467,3.154-5.595c0.25-1.105,0.323-2.228,0.233-3.349c-0.229-2.953-1.606-5.877-4.008-8.353l-1.831-1.889
		l2.114-5.78l0.11,0.114c0.842,0.865,2.089,1.109,3.159,0.711c0.269-0.104,0.52-0.257,0.756-0.44
		c0.092-0.068,0.185-0.128,0.268-0.209l14.518-14.065C151.829,10.253,151.916,5.28,148.913,2.179z"/>
</g>
<g id="Layer_4">
	<path fill="#DF5A6E" d="M148.913,2.179c-2.918-3.012-8.045-3.11-11.071-0.17l-14.521,14.06c-0.566,0.546-0.89,1.297-0.9,2.08
		c-0.016,0.782,0.285,1.543,0.833,2.104l2.101,2.165l-1.525,4.161l-0.592,1.621l-1.118-1.157c-0.157-0.162-0.318-0.312-0.478-0.464
		c-3.772-3.605-8.544-4.797-12.882-3.185c-3.341,1.248-5.999,4.049-7.473,7.884l-3.114,8.067l-2.975,7.709
		c-1.491,3.862-1.235,6.799-0.492,8.87c0.569,1.589,1.425,2.668,2.002,3.267c1.109,1.131,3.962,3.348,8.86,2.677
		c0.993-0.139,2.06-0.381,3.221-0.786l15.956-5.584l0.334-0.128c2.056-0.766,3.798-1.891,5.18-3.267
		c1.575-1.569,2.676-3.467,3.154-5.595c0.25-1.105,0.323-2.228,0.233-3.349c-0.229-2.953-1.606-5.877-4.008-8.353l-1.831-1.889
		l2.114-5.78l0.11,0.114c0.842,0.865,2.089,1.109,3.159,0.711c0.269-0.104,0.52-0.257,0.756-0.44
		c0.092-0.068,0.185-0.128,0.268-0.209l14.518-14.065C151.829,10.253,151.916,5.28,148.913,2.179z"/>
</g>
<g id="Layer_5">
	<path fill="#F0D942" d="M148.913,2.179c-2.918-3.012-8.045-3.11-11.071-0.17l-14.521,14.06c-0.566,0.546-0.89,1.297-0.9,2.08
		c-0.016,0.782,0.285,1.543,0.833,2.104l2.101,2.165l-1.525,4.161l-0.592,1.621l-1.118-1.157c-0.157-0.162-0.318-0.312-0.478-0.464
		c-3.772-3.605-8.544-4.797-12.882-3.185c-3.341,1.248-5.999,4.049-7.473,7.884l-3.114,8.067l-2.975,7.709
		c-1.491,3.862-1.235,6.799-0.492,8.87c0.569,1.589,1.425,2.668,2.002,3.267c1.109,1.131,3.962,3.348,8.86,2.677
		c0.993-0.139,2.06-0.381,3.221-0.786l15.956-5.584l0.334-0.128c2.056-0.766,3.798-1.891,5.18-3.267
		c1.575-1.569,2.676-3.467,3.154-5.595c0.25-1.105,0.323-2.228,0.233-3.349c-0.229-2.953-1.606-5.877-4.008-8.353l-1.831-1.889
		l2.114-5.78l0.11,0.114c0.842,0.865,2.089,1.109,3.159,0.711c0.269-0.104,0.52-0.257,0.756-0.44
		c0.092-0.068,0.185-0.128,0.268-0.209l14.518-14.065C151.829,10.253,151.916,5.28,148.913,2.179z"/>
</g>
<g id="Layer_6">
	<path fill="#93E3DA" d="M148.913,2.179c-2.918-3.012-8.045-3.11-11.071-0.17l-14.521,14.06c-0.566,0.546-0.89,1.297-0.9,2.08
		c-0.016,0.782,0.285,1.543,0.833,2.104l2.101,2.165l-1.525,4.161l-0.592,1.621l-1.118-1.157c-0.157-0.162-0.318-0.312-0.478-0.464
		c-3.772-3.605-8.544-4.797-12.882-3.185c-3.341,1.248-5.999,4.049-7.473,7.884l-3.114,8.067l-2.975,7.709
		c-1.491,3.862-1.235,6.799-0.492,8.87c0.569,1.589,1.425,2.668,2.002,3.267c1.109,1.131,3.962,3.348,8.86,2.677
		c0.993-0.139,2.06-0.381,3.221-0.786l15.956-5.584l0.334-0.128c2.056-0.766,3.798-1.891,5.18-3.267
		c1.575-1.569,2.676-3.467,3.154-5.595c0.25-1.105,0.323-2.228,0.233-3.349c-0.229-2.953-1.606-5.877-4.008-8.353l-1.831-1.889
		l2.114-5.78l0.11,0.114c0.842,0.865,2.089,1.109,3.159,0.711c0.269-0.104,0.52-0.257,0.756-0.44
		c0.092-0.068,0.185-0.128,0.268-0.209l14.518-14.065C151.829,10.253,151.916,5.28,148.913,2.179z"/>
</g>
</svg>
